<?xml version="1.0" encoding="UTF-8" standalone="no"?>
<!DOCTYPE svg PUBLIC "-//W3C//DTD SVG 1.1//EN"
 "http://www.w3.org/Graphics/SVG/1.1/DTD/svg11.dtd">
<!-- Generated by graphviz version 2.40.1 (20161225.0304)
 -->
<!-- Title: %3 Pages: 1 -->
<svg width="1664pt" height="271pt"
 viewBox="0.00 0.00 1664.29 271.22" xmlns="http://www.w3.org/2000/svg" xmlns:xlink="http://www.w3.org/1999/xlink">
<g id="graph0" class="graph" transform="scale(1 1) rotate(0) translate(4 267.2203)">
<title>%3</title>
<!-- 139648252570760 -->
<g id="node1" class="node">
<title>139648252570760</title>
<ellipse fill="none" stroke="#000000" cx="828.1457" cy="-26.8701" rx="93.1765" ry="26.7407"/>
<text text-anchor="middle" x="828.1457" y="-30.6701" font-family="Times,serif" font-size="14.00" fill="#000000">make_sentence </text>
<text text-anchor="middle" x="828.1457" y="-15.6701" font-family="Times,serif" font-size="14.00" fill="#000000"> (—)</text>
</g>
<!-- 139648251335848 -->
<g id="node2" class="node">
<title>139648251335848</title>
<ellipse fill="none" stroke="#000000" cx="828.1457" cy="-131.6102" rx="164.0976" ry="26.7407"/>
<text text-anchor="middle" x="828.1457" y="-135.4102" font-family="Times,serif" font-size="14.00" fill="#000000">gather </text>
<text text-anchor="middle" x="828.1457" y="-120.4102" font-family="Times,serif" font-size="14.00" fill="#000000"> (—, —, —, —, —, —, —, —, —)</text>
</g>
<!-- 139648251335848&#45;&gt;139648252570760 -->
<g id="edge1" class="edge">
<title>139648251335848&#45;&gt;139648252570760</title>
<path fill="none" stroke="#000000" d="M828.1457,-104.637C828.1457,-92.2976 828.1457,-77.4761 828.1457,-64.0972"/>
<polygon fill="#000000" stroke="#000000" points="831.6458,-63.7518 828.1457,-53.7518 824.6458,-63.7519 831.6458,-63.7518"/>
<text text-anchor="middle" x="850.1457" y="-75.5401" font-family="Times,serif" font-size="14.00" fill="#000000">words</text>
</g>
<!-- 139648251288768 -->
<g id="node3" class="node">
<title>139648251288768</title>
<ellipse fill="none" stroke="#000000" cx="84.1457" cy="-236.3503" rx="84.2917" ry="26.7407"/>
<text text-anchor="middle" x="84.1457" y="-240.1503" font-family="Times,serif" font-size="14.00" fill="#000000">reverse_word </text>
<text text-anchor="middle" x="84.1457" y="-225.1503" font-family="Times,serif" font-size="14.00" fill="#000000"> (&#39;the&#39;)</text>
</g>
<!-- 139648251288768&#45;&gt;139648251335848 -->
<g id="edge2" class="edge">
<title>139648251288768&#45;&gt;139648251335848</title>
<path fill="none" stroke="#000000" d="M144.3365,-217.4803C155.185,-214.5033 166.4466,-211.6856 177.1457,-209.4802 342.5686,-175.3821 534.9388,-154.6505 667.441,-143.2462"/>
<polygon fill="#000000" stroke="#000000" points="668.007,-146.7107 677.6735,-142.3738 667.4123,-139.736 668.007,-146.7107"/>
<text text-anchor="middle" x="359.6457" y="-180.2802" font-family="Times,serif" font-size="14.00" fill="#000000">a</text>
</g>
<!-- 139648251288992 -->
<g id="node4" class="node">
<title>139648251288992</title>
<ellipse fill="none" stroke="#000000" cx="270.1457" cy="-236.3503" rx="84.2917" ry="26.7407"/>
<text text-anchor="middle" x="270.1457" y="-240.1503" font-family="Times,serif" font-size="14.00" fill="#000000">reverse_word </text>
<text text-anchor="middle" x="270.1457" y="-225.1503" font-family="Times,serif" font-size="14.00" fill="#000000"> (&#39;quick&#39;)</text>
</g>
<!-- 139648251288992&#45;&gt;139648251335848 -->
<g id="edge3" class="edge">
<title>139648251288992&#45;&gt;139648251335848</title>
<path fill="none" stroke="#000000" d="M330.9156,-217.7033C341.6008,-214.7371 352.6575,-211.8652 363.1457,-209.4802 472.692,-184.5698 598.4334,-163.9872 691.5171,-150.2521"/>
<polygon fill="#000000" stroke="#000000" points="692.1741,-153.6932 701.5598,-148.7781 691.1575,-146.7674 692.1741,-153.6932"/>
<text text-anchor="middle" x="533.6457" y="-180.2802" font-family="Times,serif" font-size="14.00" fill="#000000">a</text>
</g>
<!-- 139648251289216 -->
<g id="node5" class="node">
<title>139648251289216</title>
<ellipse fill="none" stroke="#000000" cx="456.1457" cy="-236.3503" rx="84.2917" ry="26.7407"/>
<text text-anchor="middle" x="456.1457" y="-240.1503" font-family="Times,serif" font-size="14.00" fill="#000000">reverse_word </text>
<text text-anchor="middle" x="456.1457" y="-225.1503" font-family="Times,serif" font-size="14.00" fill="#000000"> (&#39;brown&#39;)</text>
</g>
<!-- 139648251289216&#45;&gt;139648251335848 -->
<g id="edge4" class="edge">
<title>139648251289216&#45;&gt;139648251335848</title>
<path fill="none" stroke="#000000" d="M518.6552,-218.2053C528.8415,-215.2727 539.2839,-212.2811 549.1457,-209.4802 610.8538,-191.9546 680.3376,-172.5604 734.5267,-157.5111"/>
<polygon fill="#000000" stroke="#000000" points="735.7624,-160.8005 744.4617,-154.753 733.8899,-154.0556 735.7624,-160.8005"/>
<text text-anchor="middle" x="668.6457" y="-180.2802" font-family="Times,serif" font-size="14.00" fill="#000000">a</text>
</g>
<!-- 139648251289440 -->
<g id="node6" class="node">
<title>139648251289440</title>
<ellipse fill="none" stroke="#000000" cx="642.1457" cy="-236.3503" rx="84.2917" ry="26.7407"/>
<text text-anchor="middle" x="642.1457" y="-240.1503" font-family="Times,serif" font-size="14.00" fill="#000000">reverse_word </text>
<text text-anchor="middle" x="642.1457" y="-225.1503" font-family="Times,serif" font-size="14.00" fill="#000000"> (&#39;fox&#39;)</text>
</g>
<!-- 139648251289440&#45;&gt;139648251335848 -->
<g id="edge5" class="edge">
<title>139648251289440&#45;&gt;139648251335848</title>
<path fill="none" stroke="#000000" d="M683.8877,-212.8446C710.2726,-197.9868 744.6622,-178.6213 773.2462,-162.5251"/>
<polygon fill="#000000" stroke="#000000" points="775.3091,-165.3803 782.3052,-157.4238 771.8744,-159.2809 775.3091,-165.3803"/>
<text text-anchor="middle" x="751.6457" y="-180.2802" font-family="Times,serif" font-size="14.00" fill="#000000">a</text>
</g>
<!-- 139648251334784 -->
<g id="node7" class="node">
<title>139648251334784</title>
<ellipse fill="none" stroke="#000000" cx="828.1457" cy="-236.3503" rx="84.2917" ry="26.7407"/>
<text text-anchor="middle" x="828.1457" y="-240.1503" font-family="Times,serif" font-size="14.00" fill="#000000">reverse_word </text>
<text text-anchor="middle" x="828.1457" y="-225.1503" font-family="Times,serif" font-size="14.00" fill="#000000"> (&#39;jumps&#39;)</text>
</g>
<!-- 139648251334784&#45;&gt;139648251335848 -->
<g id="edge6" class="edge">
<title>139648251334784&#45;&gt;139648251335848</title>
<path fill="none" stroke="#000000" d="M828.1457,-209.3771C828.1457,-197.0377 828.1457,-182.2162 828.1457,-168.8373"/>
<polygon fill="#000000" stroke="#000000" points="831.6458,-168.4919 828.1457,-158.4919 824.6458,-168.492 831.6458,-168.4919"/>
<text text-anchor="middle" x="832.6457" y="-180.2802" font-family="Times,serif" font-size="14.00" fill="#000000">a</text>
</g>
<!-- 139648251335008 -->
<g id="node8" class="node">
<title>139648251335008</title>
<ellipse fill="none" stroke="#000000" cx="1014.1457" cy="-236.3503" rx="84.2917" ry="26.7407"/>
<text text-anchor="middle" x="1014.1457" y="-240.1503" font-family="Times,serif" font-size="14.00" fill="#000000">reverse_word </text>
<text text-anchor="middle" x="1014.1457" y="-225.1503" font-family="Times,serif" font-size="14.00" fill="#000000"> (&#39;over&#39;)</text>
</g>
<!-- 139648251335008&#45;&gt;139648251335848 -->
<g id="edge7" class="edge">
<title>139648251335008&#45;&gt;139648251335848</title>
<path fill="none" stroke="#000000" d="M972.4037,-212.8446C946.0189,-197.9868 911.6292,-178.6213 883.0452,-162.5251"/>
<polygon fill="#000000" stroke="#000000" points="884.417,-159.2809 873.9862,-157.4238 880.9823,-165.3803 884.417,-159.2809"/>
<text text-anchor="middle" x="937.6457" y="-180.2802" font-family="Times,serif" font-size="14.00" fill="#000000">a</text>
</g>
<!-- 139648251335232 -->
<g id="node9" class="node">
<title>139648251335232</title>
<ellipse fill="none" stroke="#000000" cx="1200.1457" cy="-236.3503" rx="84.2917" ry="26.7407"/>
<text text-anchor="middle" x="1200.1457" y="-240.1503" font-family="Times,serif" font-size="14.00" fill="#000000">reverse_word </text>
<text text-anchor="middle" x="1200.1457" y="-225.1503" font-family="Times,serif" font-size="14.00" fill="#000000"> (&#39;the&#39;)</text>
</g>
<!-- 139648251335232&#45;&gt;139648251335848 -->
<g id="edge8" class="edge">
<title>139648251335232&#45;&gt;139648251335848</title>
<path fill="none" stroke="#000000" d="M1137.6362,-218.2053C1127.4499,-215.2727 1117.0075,-212.2811 1107.1457,-209.4802 1045.4376,-191.9546 975.9538,-172.5604 921.7647,-157.5111"/>
<polygon fill="#000000" stroke="#000000" points="922.4015,-154.0556 911.8297,-154.753 920.529,-160.8005 922.4015,-154.0556"/>
<text text-anchor="middle" x="1043.6457" y="-180.2802" font-family="Times,serif" font-size="14.00" fill="#000000">a</text>
</g>
<!-- 139648251335456 -->
<g id="node10" class="node">
<title>139648251335456</title>
<ellipse fill="none" stroke="#000000" cx="1386.1457" cy="-236.3503" rx="84.2917" ry="26.7407"/>
<text text-anchor="middle" x="1386.1457" y="-240.1503" font-family="Times,serif" font-size="14.00" fill="#000000">reverse_word </text>
<text text-anchor="middle" x="1386.1457" y="-225.1503" font-family="Times,serif" font-size="14.00" fill="#000000"> (&#39;lazy&#39;)</text>
</g>
<!-- 139648251335456&#45;&gt;139648251335848 -->
<g id="edge9" class="edge">
<title>139648251335456&#45;&gt;139648251335848</title>
<path fill="none" stroke="#000000" d="M1325.3759,-217.7033C1314.6906,-214.7371 1303.6339,-211.8652 1293.1457,-209.4802 1183.5994,-184.5698 1057.8581,-163.9872 964.7743,-150.2521"/>
<polygon fill="#000000" stroke="#000000" points="965.1339,-146.7674 954.7316,-148.7781 964.1173,-153.6932 965.1339,-146.7674"/>
<text text-anchor="middle" x="1209.6457" y="-180.2802" font-family="Times,serif" font-size="14.00" fill="#000000">a</text>
</g>
<!-- 139648251335680 -->
<g id="node11" class="node">
<title>139648251335680</title>
<ellipse fill="none" stroke="#000000" cx="1572.1457" cy="-236.3503" rx="84.2917" ry="26.7407"/>
<text text-anchor="middle" x="1572.1457" y="-240.1503" font-family="Times,serif" font-size="14.00" fill="#000000">reverse_word </text>
<text text-anchor="middle" x="1572.1457" y="-225.1503" font-family="Times,serif" font-size="14.00" fill="#000000"> (&#39;dog&#39;)</text>
</g>
<!-- 139648251335680&#45;&gt;139648251335848 -->
<g id="edge10" class="edge">
<title>139648251335680&#45;&gt;139648251335848</title>
<path fill="none" stroke="#000000" d="M1511.9541,-217.4845C1501.1056,-214.5071 1489.8443,-211.6882 1479.1457,-209.4802 1313.7309,-175.3428 1121.3594,-154.6175 988.8547,-143.2254"/>
<polygon fill="#000000" stroke="#000000" points="988.883,-139.7152 978.622,-142.3539 988.289,-146.69 988.883,-139.7152"/>
<text text-anchor="middle" x="1377.6457" y="-180.2802" font-family="Times,serif" font-size="14.00" fill="#000000">a</text>
</g>
</g>
</svg>
