<?xml version="1.0" encoding="UTF-8" standalone="no"?>
<!DOCTYPE svg PUBLIC "-//W3C//DTD SVG 1.1//EN"
 "http://www.w3.org/Graphics/SVG/1.1/DTD/svg11.dtd">
<!-- Generated by graphviz version 2.38.0 (20140413.2041)
 -->
<!-- Title: %3 Pages: 1 -->
<svg width="1349pt" height="271pt"
 viewBox="0.00 0.00 1348.94 271.22" xmlns="http://www.w3.org/2000/svg" xmlns:xlink="http://www.w3.org/1999/xlink">
<g id="graph0" class="graph" transform="scale(1 1) rotate(0) translate(4 267.22)">
<title>%3</title>
<!-- 140272426417512 -->
<g id="node1" class="node"><title>140272426417512</title>
<ellipse fill="none" stroke="black" cx="670.468" cy="-26.8701" rx="73.5782" ry="26.7407"/>
<text text-anchor="middle" x="670.468" y="-30.6701" font-family="Times,serif" font-size="14.00">make_sentence </text>
<text text-anchor="middle" x="670.468" y="-15.6701" font-family="Times,serif" font-size="14.00"> (—)</text>
</g>
<!-- 140272425597528 -->
<g id="node2" class="node"><title>140272425597528</title>
<ellipse fill="none" stroke="black" cx="670.468" cy="-131.61" rx="154.299" ry="26.7407"/>
<text text-anchor="middle" x="670.468" y="-135.41" font-family="Times,serif" font-size="14.00">gather </text>
<text text-anchor="middle" x="670.468" y="-120.41" font-family="Times,serif" font-size="14.00"> (—, —, —, —, —, —, —, —, —)</text>
</g>
<!-- 140272425597528&#45;&gt;140272426417512 -->
<g id="edge1" class="edge"><title>140272425597528&#45;&gt;140272426417512</title>
<path fill="none" stroke="black" d="M670.468,-104.685C670.468,-92.3951 670.468,-77.5066 670.468,-64.1214"/>
<polygon fill="black" stroke="black" points="673.968,-63.7874 670.468,-53.7874 666.968,-63.7875 673.968,-63.7874"/>
<text text-anchor="middle" x="687.468" y="-75.5401" font-family="Times,serif" font-size="14.00">words</text>
</g>
<!-- 140272425595568 -->
<g id="node3" class="node"><title>140272425595568</title>
<ellipse fill="none" stroke="black" cx="66.468" cy="-236.35" rx="66.4361" ry="26.7407"/>
<text text-anchor="middle" x="66.468" y="-240.15" font-family="Times,serif" font-size="14.00">reverse_word </text>
<text text-anchor="middle" x="66.468" y="-225.15" font-family="Times,serif" font-size="14.00"> (&#39;the&#39;)</text>
</g>
<!-- 140272425595568&#45;&gt;140272425597528 -->
<g id="edge2" class="edge"><title>140272425595568&#45;&gt;140272425597528</title>
<path fill="none" stroke="black" d="M114.327,-217.599C123.577,-214.585 133.257,-211.713 142.468,-209.48 270.67,-178.402 419.626,-158.113 526.575,-146.226"/>
<polygon fill="black" stroke="black" points="527.235,-149.675 536.792,-145.102 526.469,-142.717 527.235,-149.675"/>
<text text-anchor="middle" x="303.968" y="-180.28" font-family="Times,serif" font-size="14.00">a</text>
</g>
<!-- 140272425595792 -->
<g id="node4" class="node"><title>140272425595792</title>
<ellipse fill="none" stroke="black" cx="217.468" cy="-236.35" rx="66.4361" ry="26.7407"/>
<text text-anchor="middle" x="217.468" y="-240.15" font-family="Times,serif" font-size="14.00">reverse_word </text>
<text text-anchor="middle" x="217.468" y="-225.15" font-family="Times,serif" font-size="14.00"> (&#39;quick&#39;)</text>
</g>
<!-- 140272425595792&#45;&gt;140272425597528 -->
<g id="edge3" class="edge"><title>140272425595792&#45;&gt;140272425597528</title>
<path fill="none" stroke="black" d="M265.837,-217.862C274.954,-214.859 284.455,-211.923 293.468,-209.48 379.235,-186.24 477.665,-166.396 552.439,-152.694"/>
<polygon fill="black" stroke="black" points="553.154,-156.122 562.364,-150.886 551.899,-149.235 553.154,-156.122"/>
<text text-anchor="middle" x="430.968" y="-180.28" font-family="Times,serif" font-size="14.00">a</text>
</g>
<!-- 140272425596016 -->
<g id="node5" class="node"><title>140272425596016</title>
<ellipse fill="none" stroke="black" cx="368.468" cy="-236.35" rx="66.4361" ry="26.7407"/>
<text text-anchor="middle" x="368.468" y="-240.15" font-family="Times,serif" font-size="14.00">reverse_word </text>
<text text-anchor="middle" x="368.468" y="-225.15" font-family="Times,serif" font-size="14.00"> (&#39;brown&#39;)</text>
</g>
<!-- 140272425596016&#45;&gt;140272425597528 -->
<g id="edge4" class="edge"><title>140272425596016&#45;&gt;140272425597528</title>
<path fill="none" stroke="black" d="M418.342,-218.371C427.051,-215.407 436.023,-212.354 444.468,-209.48 493.71,-192.725 548.99,-173.922 592.552,-159.107"/>
<polygon fill="black" stroke="black" points="593.887,-162.35 602.227,-155.816 591.633,-155.723 593.887,-162.35"/>
<text text-anchor="middle" x="541.968" y="-180.28" font-family="Times,serif" font-size="14.00">a</text>
</g>
<!-- 140272425596240 -->
<g id="node6" class="node"><title>140272425596240</title>
<ellipse fill="none" stroke="black" cx="519.468" cy="-236.35" rx="66.4361" ry="26.7407"/>
<text text-anchor="middle" x="519.468" y="-240.15" font-family="Times,serif" font-size="14.00">reverse_word </text>
<text text-anchor="middle" x="519.468" y="-225.15" font-family="Times,serif" font-size="14.00"> (&#39;fox&#39;)</text>
</g>
<!-- 140272425596240&#45;&gt;140272425597528 -->
<g id="edge5" class="edge"><title>140272425596240&#45;&gt;140272425597528</title>
<path fill="none" stroke="black" d="M552.606,-212.804C573.869,-198.336 601.759,-179.359 625.071,-163.498"/>
<polygon fill="black" stroke="black" points="627.133,-166.329 633.432,-157.81 623.195,-160.541 627.133,-166.329"/>
<text text-anchor="middle" x="607.968" y="-180.28" font-family="Times,serif" font-size="14.00">a</text>
</g>
<!-- 140272425596464 -->
<g id="node7" class="node"><title>140272425596464</title>
<ellipse fill="none" stroke="black" cx="670.468" cy="-236.35" rx="66.4361" ry="26.7407"/>
<text text-anchor="middle" x="670.468" y="-240.15" font-family="Times,serif" font-size="14.00">reverse_word </text>
<text text-anchor="middle" x="670.468" y="-225.15" font-family="Times,serif" font-size="14.00"> (&#39;jumps&#39;)</text>
</g>
<!-- 140272425596464&#45;&gt;140272425597528 -->
<g id="edge6" class="edge"><title>140272425596464&#45;&gt;140272425597528</title>
<path fill="none" stroke="black" d="M670.468,-209.425C670.468,-197.135 670.468,-182.247 670.468,-168.862"/>
<polygon fill="black" stroke="black" points="673.968,-168.528 670.468,-158.528 666.968,-168.528 673.968,-168.528"/>
<text text-anchor="middle" x="673.968" y="-180.28" font-family="Times,serif" font-size="14.00">a</text>
</g>
<!-- 140272425596688 -->
<g id="node8" class="node"><title>140272425596688</title>
<ellipse fill="none" stroke="black" cx="821.468" cy="-236.35" rx="66.4361" ry="26.7407"/>
<text text-anchor="middle" x="821.468" y="-240.15" font-family="Times,serif" font-size="14.00">reverse_word </text>
<text text-anchor="middle" x="821.468" y="-225.15" font-family="Times,serif" font-size="14.00"> (&#39;over&#39;)</text>
</g>
<!-- 140272425596688&#45;&gt;140272425597528 -->
<g id="edge7" class="edge"><title>140272425596688&#45;&gt;140272425597528</title>
<path fill="none" stroke="black" d="M788.33,-212.804C767.068,-198.336 739.177,-179.359 715.865,-163.498"/>
<polygon fill="black" stroke="black" points="717.741,-160.541 707.504,-157.81 713.803,-166.329 717.741,-160.541"/>
<text text-anchor="middle" x="758.968" y="-180.28" font-family="Times,serif" font-size="14.00">a</text>
</g>
<!-- 140272425596912 -->
<g id="node9" class="node"><title>140272425596912</title>
<ellipse fill="none" stroke="black" cx="972.468" cy="-236.35" rx="66.4361" ry="26.7407"/>
<text text-anchor="middle" x="972.468" y="-240.15" font-family="Times,serif" font-size="14.00">reverse_word </text>
<text text-anchor="middle" x="972.468" y="-225.15" font-family="Times,serif" font-size="14.00"> (&#39;the&#39;)</text>
</g>
<!-- 140272425596912&#45;&gt;140272425597528 -->
<g id="edge8" class="edge"><title>140272425596912&#45;&gt;140272425597528</title>
<path fill="none" stroke="black" d="M922.594,-218.371C913.885,-215.407 904.913,-212.354 896.468,-209.48 847.226,-192.725 791.946,-173.922 748.384,-159.107"/>
<polygon fill="black" stroke="black" points="749.303,-155.723 738.709,-155.816 747.049,-162.35 749.303,-155.723"/>
<text text-anchor="middle" x="844.968" y="-180.28" font-family="Times,serif" font-size="14.00">a</text>
</g>
<!-- 140272425597136 -->
<g id="node10" class="node"><title>140272425597136</title>
<ellipse fill="none" stroke="black" cx="1123.47" cy="-236.35" rx="66.4361" ry="26.7407"/>
<text text-anchor="middle" x="1123.47" y="-240.15" font-family="Times,serif" font-size="14.00">reverse_word </text>
<text text-anchor="middle" x="1123.47" y="-225.15" font-family="Times,serif" font-size="14.00"> (&#39;lazy&#39;)</text>
</g>
<!-- 140272425597136&#45;&gt;140272425597528 -->
<g id="edge9" class="edge"><title>140272425597136&#45;&gt;140272425597528</title>
<path fill="none" stroke="black" d="M1075.1,-217.862C1065.98,-214.859 1056.48,-211.923 1047.47,-209.48 961.701,-186.24 863.271,-166.396 788.497,-152.694"/>
<polygon fill="black" stroke="black" points="789.037,-149.235 778.572,-150.886 787.783,-156.122 789.037,-149.235"/>
<text text-anchor="middle" x="969.968" y="-180.28" font-family="Times,serif" font-size="14.00">a</text>
</g>
<!-- 140272425597360 -->
<g id="node11" class="node"><title>140272425597360</title>
<ellipse fill="none" stroke="black" cx="1274.47" cy="-236.35" rx="66.4361" ry="26.7407"/>
<text text-anchor="middle" x="1274.47" y="-240.15" font-family="Times,serif" font-size="14.00">reverse_word </text>
<text text-anchor="middle" x="1274.47" y="-225.15" font-family="Times,serif" font-size="14.00"> (&#39;dog&#39;)</text>
</g>
<!-- 140272425597360&#45;&gt;140272425597528 -->
<g id="edge10" class="edge"><title>140272425597360&#45;&gt;140272425597528</title>
<path fill="none" stroke="black" d="M1226.61,-217.604C1217.36,-214.59 1207.68,-211.716 1198.47,-209.48 1070.28,-178.36 921.319,-158.075 814.367,-146.202"/>
<polygon fill="black" stroke="black" points="814.473,-142.692 804.15,-145.079 813.708,-149.65 814.473,-142.692"/>
<text text-anchor="middle" x="1116.97" y="-180.28" font-family="Times,serif" font-size="14.00">a</text>
</g>
</g>
</svg>
