<?xml version="1.0" encoding="UTF-8" standalone="no"?>
<!DOCTYPE svg PUBLIC "-//W3C//DTD SVG 1.1//EN"
 "http://www.w3.org/Graphics/SVG/1.1/DTD/svg11.dtd">
<!-- Generated by graphviz version 2.38.0 (20140413.2041)
 -->
<!-- Title: %3 Pages: 1 -->
<svg width="293pt" height="376pt"
 viewBox="0.00 0.00 293.44 375.96" xmlns="http://www.w3.org/2000/svg" xmlns:xlink="http://www.w3.org/1999/xlink">
<g id="graph0" class="graph" transform="scale(1 1) rotate(0) translate(4 371.96)">
<title>%3</title>
<!-- 140272425410800 -->
<g id="node1" class="node"><title>140272425410800</title>
<ellipse fill="none" stroke="black" cx="142.719" cy="-26.8701" rx="50.8235" ry="26.7407"/>
<text text-anchor="middle" x="142.719" y="-30.6701" font-family="Times,serif" font-size="14.00">compress </text>
<text text-anchor="middle" x="142.719" y="-15.6701" font-family="Times,serif" font-size="14.00"> (—)</text>
</g>
<!-- 140272425411696 -->
<g id="node2" class="node"><title>140272425411696</title>
<ellipse fill="none" stroke="black" cx="142.719" cy="-131.61" rx="61.5366" ry="26.7407"/>
<text text-anchor="middle" x="142.719" y="-135.41" font-family="Times,serif" font-size="14.00">gather </text>
<text text-anchor="middle" x="142.719" y="-120.41" font-family="Times,serif" font-size="14.00"> (—, —, —)</text>
</g>
<!-- 140272425411696&#45;&gt;140272425410800 -->
<g id="edge1" class="edge"><title>140272425411696&#45;&gt;140272425410800</title>
<path fill="none" stroke="black" d="M142.719,-104.685C142.719,-92.3951 142.719,-77.5066 142.719,-64.1214"/>
<polygon fill="black" stroke="black" points="146.219,-63.7874 142.719,-53.7874 139.219,-63.7875 146.219,-63.7874"/>
<text text-anchor="middle" x="149.219" y="-75.5401" font-family="Times,serif" font-size="14.00">lst</text>
</g>
<!-- 140272425413656 -->
<g id="node3" class="node"><title>140272425413656</title>
<ellipse fill="none" stroke="black" cx="42.7193" cy="-236.35" rx="41.0244" ry="26.7407"/>
<text text-anchor="middle" x="42.7193" y="-240.15" font-family="Times,serif" font-size="14.00">gather </text>
<text text-anchor="middle" x="42.7193" y="-225.15" font-family="Times,serif" font-size="14.00"> (2, —)</text>
</g>
<!-- 140272425413656&#45;&gt;140272425411696 -->
<g id="edge2" class="edge"><title>140272425413656&#45;&gt;140272425411696</title>
<path fill="none" stroke="black" d="M64.1718,-213.31C78.0797,-199.021 96.4194,-180.179 111.879,-164.295"/>
<polygon fill="black" stroke="black" points="114.739,-166.375 119.206,-156.768 109.723,-161.493 114.739,-166.375"/>
<text text-anchor="middle" x="102.219" y="-180.28" font-family="Times,serif" font-size="14.00">a</text>
</g>
<!-- 140272425411808 -->
<g id="node4" class="node"><title>140272425411808</title>
<ellipse fill="none" stroke="black" cx="41.7193" cy="-341.09" rx="41.9398" ry="26.7407"/>
<text text-anchor="middle" x="41.7193" y="-344.89" font-family="Times,serif" font-size="14.00">divides </text>
<text text-anchor="middle" x="41.7193" y="-329.89" font-family="Times,serif" font-size="14.00"> (5, 2)</text>
</g>
<!-- 140272425411808&#45;&gt;140272425413656 -->
<g id="edge3" class="edge"><title>140272425411808&#45;&gt;140272425413656</title>
<path fill="none" stroke="black" d="M41.9716,-314.165C42.0913,-301.875 42.2362,-286.987 42.3665,-273.602"/>
<polygon fill="black" stroke="black" points="45.8694,-273.301 42.467,-263.268 38.8698,-273.233 45.8694,-273.301"/>
<text text-anchor="middle" x="46.2193" y="-285.02" font-family="Times,serif" font-size="14.00">a</text>
</g>
<!-- 140272425411136 -->
<g id="node5" class="node"><title>140272425411136</title>
<ellipse fill="none" stroke="black" cx="142.719" cy="-236.35" rx="41.0244" ry="26.7407"/>
<text text-anchor="middle" x="142.719" y="-240.15" font-family="Times,serif" font-size="14.00">gather </text>
<text text-anchor="middle" x="142.719" y="-225.15" font-family="Times,serif" font-size="14.00"> (3, —)</text>
</g>
<!-- 140272425411136&#45;&gt;140272425411696 -->
<g id="edge4" class="edge"><title>140272425411136&#45;&gt;140272425411696</title>
<path fill="none" stroke="black" d="M142.719,-209.425C142.719,-197.135 142.719,-182.247 142.719,-168.862"/>
<polygon fill="black" stroke="black" points="146.219,-168.528 142.719,-158.528 139.219,-168.528 146.219,-168.528"/>
<text text-anchor="middle" x="146.219" y="-180.28" font-family="Times,serif" font-size="14.00">a</text>
</g>
<!-- 140272425413600 -->
<g id="node6" class="node"><title>140272425413600</title>
<ellipse fill="none" stroke="black" cx="142.719" cy="-341.09" rx="41.9398" ry="26.7407"/>
<text text-anchor="middle" x="142.719" y="-344.89" font-family="Times,serif" font-size="14.00">divides </text>
<text text-anchor="middle" x="142.719" y="-329.89" font-family="Times,serif" font-size="14.00"> (5, 3)</text>
</g>
<!-- 140272425413600&#45;&gt;140272425411136 -->
<g id="edge5" class="edge"><title>140272425413600&#45;&gt;140272425411136</title>
<path fill="none" stroke="black" d="M142.719,-314.165C142.719,-301.875 142.719,-286.987 142.719,-273.602"/>
<polygon fill="black" stroke="black" points="146.219,-273.268 142.719,-263.268 139.219,-273.268 146.219,-273.268"/>
<text text-anchor="middle" x="146.219" y="-285.02" font-family="Times,serif" font-size="14.00">a</text>
</g>
<!-- 140272425411416 -->
<g id="node7" class="node"><title>140272425411416</title>
<ellipse fill="none" stroke="black" cx="243.719" cy="-236.35" rx="41.0244" ry="26.7407"/>
<text text-anchor="middle" x="243.719" y="-240.15" font-family="Times,serif" font-size="14.00">gather </text>
<text text-anchor="middle" x="243.719" y="-225.15" font-family="Times,serif" font-size="14.00"> (4, —)</text>
</g>
<!-- 140272425411416&#45;&gt;140272425411696 -->
<g id="edge6" class="edge"><title>140272425411416&#45;&gt;140272425411696</title>
<path fill="none" stroke="black" d="M222.052,-213.31C208.005,-199.021 189.482,-180.179 173.868,-164.295"/>
<polygon fill="black" stroke="black" points="175.974,-161.446 166.468,-156.768 170.983,-166.353 175.974,-161.446"/>
<text text-anchor="middle" x="202.219" y="-180.28" font-family="Times,serif" font-size="14.00">a</text>
</g>
<!-- 140272425410856 -->
<g id="node8" class="node"><title>140272425410856</title>
<ellipse fill="none" stroke="black" cx="243.719" cy="-341.09" rx="41.9398" ry="26.7407"/>
<text text-anchor="middle" x="243.719" y="-344.89" font-family="Times,serif" font-size="14.00">divides </text>
<text text-anchor="middle" x="243.719" y="-329.89" font-family="Times,serif" font-size="14.00"> (5, 4)</text>
</g>
<!-- 140272425410856&#45;&gt;140272425411416 -->
<g id="edge7" class="edge"><title>140272425410856&#45;&gt;140272425411416</title>
<path fill="none" stroke="black" d="M243.719,-314.165C243.719,-301.875 243.719,-286.987 243.719,-273.602"/>
<polygon fill="black" stroke="black" points="247.219,-273.268 243.719,-263.268 240.219,-273.268 247.219,-273.268"/>
<text text-anchor="middle" x="247.219" y="-285.02" font-family="Times,serif" font-size="14.00">a</text>
</g>
</g>
</svg>
