<?xml version="1.0" encoding="UTF-8" standalone="no"?>
<!DOCTYPE svg PUBLIC "-//W3C//DTD SVG 1.1//EN"
 "http://www.w3.org/Graphics/SVG/1.1/DTD/svg11.dtd">
<!-- Generated by graphviz version 2.40.1 (20161225.0304)
 -->
<!-- Title: %3 Pages: 1 -->
<svg width="350pt" height="376pt"
 viewBox="0.00 0.00 349.82 375.96" xmlns="http://www.w3.org/2000/svg" xmlns:xlink="http://www.w3.org/1999/xlink">
<g id="graph0" class="graph" transform="scale(1 1) rotate(0) translate(4 371.9605)">
<title>%3</title>
<!-- 139648251094912 -->
<g id="node1" class="node">
<title>139648251094912</title>
<ellipse fill="none" stroke="#000000" cx="170.9117" cy="-26.8701" rx="63.7795" ry="26.7407"/>
<text text-anchor="middle" x="170.9117" y="-30.6701" font-family="Times,serif" font-size="14.00" fill="#000000">compress </text>
<text text-anchor="middle" x="170.9117" y="-15.6701" font-family="Times,serif" font-size="14.00" fill="#000000"> (—)</text>
</g>
<!-- 139648251096312 -->
<g id="node2" class="node">
<title>139648251096312</title>
<ellipse fill="none" stroke="#000000" cx="170.9117" cy="-131.6102" rx="65.1077" ry="26.7407"/>
<text text-anchor="middle" x="170.9117" y="-135.4102" font-family="Times,serif" font-size="14.00" fill="#000000">gather </text>
<text text-anchor="middle" x="170.9117" y="-120.4102" font-family="Times,serif" font-size="14.00" fill="#000000"> (—, —, —)</text>
</g>
<!-- 139648251096312&#45;&gt;139648251094912 -->
<g id="edge1" class="edge">
<title>139648251096312&#45;&gt;139648251094912</title>
<path fill="none" stroke="#000000" d="M170.9117,-104.637C170.9117,-92.2976 170.9117,-77.4761 170.9117,-64.0972"/>
<polygon fill="#000000" stroke="#000000" points="174.4118,-63.7518 170.9117,-53.7518 167.4118,-63.7519 174.4118,-63.7518"/>
<text text-anchor="middle" x="180.4117" y="-75.5401" font-family="Times,serif" font-size="14.00" fill="#000000">lst</text>
</g>
<!-- 139648251093680 -->
<g id="node3" class="node">
<title>139648251093680</title>
<ellipse fill="none" stroke="#000000" cx="53.9117" cy="-236.3503" rx="48.1667" ry="26.7407"/>
<text text-anchor="middle" x="53.9117" y="-240.1503" font-family="Times,serif" font-size="14.00" fill="#000000">gather </text>
<text text-anchor="middle" x="53.9117" y="-225.1503" font-family="Times,serif" font-size="14.00" fill="#000000"> (2, —)</text>
</g>
<!-- 139648251093680&#45;&gt;139648251096312 -->
<g id="edge2" class="edge">
<title>139648251093680&#45;&gt;139648251096312</title>
<path fill="none" stroke="#000000" d="M79.5878,-213.3646C96.0683,-198.611 117.6876,-179.2572 135.7539,-163.0839"/>
<polygon fill="#000000" stroke="#000000" points="138.1376,-165.6476 143.2538,-156.3699 133.4686,-160.4321 138.1376,-165.6476"/>
<text text-anchor="middle" x="124.4117" y="-180.2802" font-family="Times,serif" font-size="14.00" fill="#000000">a</text>
</g>
<!-- 139648251096704 -->
<g id="node4" class="node">
<title>139648251096704</title>
<ellipse fill="none" stroke="#000000" cx="50.9117" cy="-341.0904" rx="50.8235" ry="26.7407"/>
<text text-anchor="middle" x="50.9117" y="-344.8904" font-family="Times,serif" font-size="14.00" fill="#000000">divides </text>
<text text-anchor="middle" x="50.9117" y="-329.8904" font-family="Times,serif" font-size="14.00" fill="#000000"> (5, 2)</text>
</g>
<!-- 139648251096704&#45;&gt;139648251093680 -->
<g id="edge3" class="edge">
<title>139648251096704&#45;&gt;139648251093680</title>
<path fill="none" stroke="#000000" d="M51.6843,-314.1172C52.0377,-301.7778 52.4622,-286.9563 52.8454,-273.5774"/>
<polygon fill="#000000" stroke="#000000" points="56.3539,-273.3282 53.1417,-263.2321 49.3568,-273.1277 56.3539,-273.3282"/>
<text text-anchor="middle" x="57.4117" y="-285.0203" font-family="Times,serif" font-size="14.00" fill="#000000">a</text>
</g>
<!-- 139648251093176 -->
<g id="node5" class="node">
<title>139648251093176</title>
<ellipse fill="none" stroke="#000000" cx="170.9117" cy="-236.3503" rx="48.1667" ry="26.7407"/>
<text text-anchor="middle" x="170.9117" y="-240.1503" font-family="Times,serif" font-size="14.00" fill="#000000">gather </text>
<text text-anchor="middle" x="170.9117" y="-225.1503" font-family="Times,serif" font-size="14.00" fill="#000000"> (3, —)</text>
</g>
<!-- 139648251093176&#45;&gt;139648251096312 -->
<g id="edge4" class="edge">
<title>139648251093176&#45;&gt;139648251096312</title>
<path fill="none" stroke="#000000" d="M170.9117,-209.3771C170.9117,-197.0377 170.9117,-182.2162 170.9117,-168.8373"/>
<polygon fill="#000000" stroke="#000000" points="174.4118,-168.4919 170.9117,-158.4919 167.4118,-168.492 174.4118,-168.4919"/>
<text text-anchor="middle" x="175.4117" y="-180.2802" font-family="Times,serif" font-size="14.00" fill="#000000">a</text>
</g>
<!-- 139648251096200 -->
<g id="node6" class="node">
<title>139648251096200</title>
<ellipse fill="none" stroke="#000000" cx="170.9117" cy="-341.0904" rx="50.8235" ry="26.7407"/>
<text text-anchor="middle" x="170.9117" y="-344.8904" font-family="Times,serif" font-size="14.00" fill="#000000">divides </text>
<text text-anchor="middle" x="170.9117" y="-329.8904" font-family="Times,serif" font-size="14.00" fill="#000000"> (5, 3)</text>
</g>
<!-- 139648251096200&#45;&gt;139648251093176 -->
<g id="edge5" class="edge">
<title>139648251096200&#45;&gt;139648251093176</title>
<path fill="none" stroke="#000000" d="M170.9117,-314.1172C170.9117,-301.7778 170.9117,-286.9563 170.9117,-273.5774"/>
<polygon fill="#000000" stroke="#000000" points="174.4118,-273.232 170.9117,-263.2321 167.4118,-273.2321 174.4118,-273.232"/>
<text text-anchor="middle" x="175.4117" y="-285.0203" font-family="Times,serif" font-size="14.00" fill="#000000">a</text>
</g>
<!-- 139648251094688 -->
<g id="node7" class="node">
<title>139648251094688</title>
<ellipse fill="none" stroke="#000000" cx="287.9117" cy="-236.3503" rx="48.1667" ry="26.7407"/>
<text text-anchor="middle" x="287.9117" y="-240.1503" font-family="Times,serif" font-size="14.00" fill="#000000">gather </text>
<text text-anchor="middle" x="287.9117" y="-225.1503" font-family="Times,serif" font-size="14.00" fill="#000000"> (4, —)</text>
</g>
<!-- 139648251094688&#45;&gt;139648251096312 -->
<g id="edge6" class="edge">
<title>139648251094688&#45;&gt;139648251096312</title>
<path fill="none" stroke="#000000" d="M262.2355,-213.3646C245.755,-198.611 224.1358,-179.2572 206.0694,-163.0839"/>
<polygon fill="#000000" stroke="#000000" points="208.3547,-160.4321 198.5696,-156.3699 203.6858,-165.6476 208.3547,-160.4321"/>
<text text-anchor="middle" x="241.4117" y="-180.2802" font-family="Times,serif" font-size="14.00" fill="#000000">a</text>
</g>
<!-- 139648251093904 -->
<g id="node8" class="node">
<title>139648251093904</title>
<ellipse fill="none" stroke="#000000" cx="290.9117" cy="-341.0904" rx="50.8235" ry="26.7407"/>
<text text-anchor="middle" x="290.9117" y="-344.8904" font-family="Times,serif" font-size="14.00" fill="#000000">divides </text>
<text text-anchor="middle" x="290.9117" y="-329.8904" font-family="Times,serif" font-size="14.00" fill="#000000"> (5, 4)</text>
</g>
<!-- 139648251093904&#45;&gt;139648251094688 -->
<g id="edge7" class="edge">
<title>139648251093904&#45;&gt;139648251094688</title>
<path fill="none" stroke="#000000" d="M290.1391,-314.1172C289.7857,-301.7778 289.3612,-286.9563 288.978,-273.5774"/>
<polygon fill="#000000" stroke="#000000" points="292.4666,-273.1277 288.6816,-263.2321 285.4695,-273.3282 292.4666,-273.1277"/>
<text text-anchor="middle" x="294.4117" y="-285.0203" font-family="Times,serif" font-size="14.00" fill="#000000">a</text>
</g>
</g>
</svg>
