<?xml version="1.0" encoding="UTF-8" standalone="no"?>
<!DOCTYPE svg PUBLIC "-//W3C//DTD SVG 1.1//EN"
 "http://www.w3.org/Graphics/SVG/1.1/DTD/svg11.dtd">
<!-- Generated by graphviz version 2.40.1 (20161225.0304)
 -->
<!-- Title: %3 Pages: 1 -->
<svg width="1664pt" height="271pt"
 viewBox="0.00 0.00 1664.29 271.22" xmlns="http://www.w3.org/2000/svg" xmlns:xlink="http://www.w3.org/1999/xlink">
<g id="graph0" class="graph" transform="scale(1 1) rotate(0) translate(4 267.2203)">
<title>%3</title>
<!-- 139797966313848 -->
<g id="node1" class="node">
<title>139797966313848</title>
<ellipse fill="none" stroke="#000000" cx="828.1457" cy="-26.8701" rx="212.2642" ry="26.7407"/>
<text text-anchor="middle" x="828.1457" y="-30.6701" font-family="Times,serif" font-size="14.00" fill="#000000">make_sentence </text>
<text text-anchor="middle" x="828.1457" y="-15.6701" font-family="Times,serif" font-size="14.00" fill="#000000"> ([&#39;eht&#39;, &#39;kciuq&#39;, &#39;nw ... eht&#39;, &#39;yzal&#39;, &#39;god&#39;])</text>
</g>
<!-- 139797965447296 -->
<g id="node2" class="node">
<title>139797965447296</title>
<ellipse fill="none" stroke="#000000" cx="828.1457" cy="-131.6102" rx="321.053" ry="26.7407"/>
<text text-anchor="middle" x="828.1457" y="-135.4102" font-family="Times,serif" font-size="14.00" fill="#000000">gather </text>
<text text-anchor="middle" x="828.1457" y="-120.4102" font-family="Times,serif" font-size="14.00" fill="#000000"> (&#39;eht&#39;, &#39;kciuq&#39;, &#39;nworb&#39;, &#39;xof&#39;, &#39;spmuj&#39;, &#39;revo&#39;, &#39;eht&#39;, &#39;yzal&#39;, &#39;god&#39;)</text>
</g>
<!-- 139797965447296&#45;&gt;139797966313848 -->
<g id="edge1" class="edge">
<title>139797965447296&#45;&gt;139797966313848</title>
<path fill="none" stroke="#000000" d="M828.1457,-104.637C828.1457,-92.2976 828.1457,-77.4761 828.1457,-64.0972"/>
<polygon fill="#000000" stroke="#000000" points="831.6458,-63.7518 828.1457,-53.7518 824.6458,-63.7519 831.6458,-63.7518"/>
<text text-anchor="middle" x="850.1457" y="-75.5401" font-family="Times,serif" font-size="14.00" fill="#000000">words</text>
</g>
<!-- 139797965408408 -->
<g id="node3" class="node">
<title>139797965408408</title>
<ellipse fill="none" stroke="#000000" cx="84.1457" cy="-236.3503" rx="84.2917" ry="26.7407"/>
<text text-anchor="middle" x="84.1457" y="-240.1503" font-family="Times,serif" font-size="14.00" fill="#000000">reverse_word </text>
<text text-anchor="middle" x="84.1457" y="-225.1503" font-family="Times,serif" font-size="14.00" fill="#000000"> (&#39;the&#39;)</text>
</g>
<!-- 139797965408408&#45;&gt;139797965447296 -->
<g id="edge2" class="edge">
<title>139797965408408&#45;&gt;139797965447296</title>
<path fill="none" stroke="#000000" d="M144.3365,-217.4803C155.185,-214.5033 166.4466,-211.6856 177.1457,-209.4802 310.249,-182.044 460.7984,-163.2617 583.5694,-151.0288"/>
<polygon fill="#000000" stroke="#000000" points="584.2493,-154.4788 593.8567,-150.0126 583.5611,-147.5127 584.2493,-154.4788"/>
<text text-anchor="middle" x="359.6457" y="-180.2802" font-family="Times,serif" font-size="14.00" fill="#000000">a</text>
</g>
<!-- 139797965408632 -->
<g id="node4" class="node">
<title>139797965408632</title>
<ellipse fill="none" stroke="#000000" cx="270.1457" cy="-236.3503" rx="84.2917" ry="26.7407"/>
<text text-anchor="middle" x="270.1457" y="-240.1503" font-family="Times,serif" font-size="14.00" fill="#000000">reverse_word </text>
<text text-anchor="middle" x="270.1457" y="-225.1503" font-family="Times,serif" font-size="14.00" fill="#000000"> (&#39;quick&#39;)</text>
</g>
<!-- 139797965408632&#45;&gt;139797965447296 -->
<g id="edge3" class="edge">
<title>139797965408632&#45;&gt;139797965447296</title>
<path fill="none" stroke="#000000" d="M330.9156,-217.7033C341.6008,-214.7371 352.6575,-211.8652 363.1457,-209.4802 457.9641,-187.9189 564.9156,-169.5999 652.3211,-156.1571"/>
<polygon fill="#000000" stroke="#000000" points="652.9822,-159.5968 662.3379,-154.6247 651.9236,-152.6773 652.9822,-159.5968"/>
<text text-anchor="middle" x="533.6457" y="-180.2802" font-family="Times,serif" font-size="14.00" fill="#000000">a</text>
</g>
<!-- 139797965408856 -->
<g id="node5" class="node">
<title>139797965408856</title>
<ellipse fill="none" stroke="#000000" cx="456.1457" cy="-236.3503" rx="84.2917" ry="26.7407"/>
<text text-anchor="middle" x="456.1457" y="-240.1503" font-family="Times,serif" font-size="14.00" fill="#000000">reverse_word </text>
<text text-anchor="middle" x="456.1457" y="-225.1503" font-family="Times,serif" font-size="14.00" fill="#000000"> (&#39;brown&#39;)</text>
</g>
<!-- 139797965408856&#45;&gt;139797965447296 -->
<g id="edge4" class="edge">
<title>139797965408856&#45;&gt;139797965447296</title>
<path fill="none" stroke="#000000" d="M518.6552,-218.2053C528.8415,-215.2727 539.2839,-212.2811 549.1457,-209.4802 607.4383,-192.9247 672.6695,-174.7016 725.3919,-160.0489"/>
<polygon fill="#000000" stroke="#000000" points="726.388,-163.4048 735.0863,-157.3557 724.5143,-156.6602 726.388,-163.4048"/>
<text text-anchor="middle" x="668.6457" y="-180.2802" font-family="Times,serif" font-size="14.00" fill="#000000">a</text>
</g>
<!-- 139797965409080 -->
<g id="node6" class="node">
<title>139797965409080</title>
<ellipse fill="none" stroke="#000000" cx="642.1457" cy="-236.3503" rx="84.2917" ry="26.7407"/>
<text text-anchor="middle" x="642.1457" y="-240.1503" font-family="Times,serif" font-size="14.00" fill="#000000">reverse_word </text>
<text text-anchor="middle" x="642.1457" y="-225.1503" font-family="Times,serif" font-size="14.00" fill="#000000"> (&#39;fox&#39;)</text>
</g>
<!-- 139797965409080&#45;&gt;139797965447296 -->
<g id="edge5" class="edge">
<title>139797965409080&#45;&gt;139797965447296</title>
<path fill="none" stroke="#000000" d="M683.8877,-212.8446C709.7893,-198.2589 743.4052,-179.3291 771.6699,-163.4128"/>
<polygon fill="#000000" stroke="#000000" points="773.6461,-166.3168 780.6422,-158.3603 770.2113,-160.2174 773.6461,-166.3168"/>
<text text-anchor="middle" x="751.6457" y="-180.2802" font-family="Times,serif" font-size="14.00" fill="#000000">a</text>
</g>
<!-- 139797965409304 -->
<g id="node7" class="node">
<title>139797965409304</title>
<ellipse fill="none" stroke="#000000" cx="828.1457" cy="-236.3503" rx="84.2917" ry="26.7407"/>
<text text-anchor="middle" x="828.1457" y="-240.1503" font-family="Times,serif" font-size="14.00" fill="#000000">reverse_word </text>
<text text-anchor="middle" x="828.1457" y="-225.1503" font-family="Times,serif" font-size="14.00" fill="#000000"> (&#39;jumps&#39;)</text>
</g>
<!-- 139797965409304&#45;&gt;139797965447296 -->
<g id="edge6" class="edge">
<title>139797965409304&#45;&gt;139797965447296</title>
<path fill="none" stroke="#000000" d="M828.1457,-209.3771C828.1457,-197.0377 828.1457,-182.2162 828.1457,-168.8373"/>
<polygon fill="#000000" stroke="#000000" points="831.6458,-168.4919 828.1457,-158.4919 824.6458,-168.492 831.6458,-168.4919"/>
<text text-anchor="middle" x="832.6457" y="-180.2802" font-family="Times,serif" font-size="14.00" fill="#000000">a</text>
</g>
<!-- 139797965409528 -->
<g id="node8" class="node">
<title>139797965409528</title>
<ellipse fill="none" stroke="#000000" cx="1014.1457" cy="-236.3503" rx="84.2917" ry="26.7407"/>
<text text-anchor="middle" x="1014.1457" y="-240.1503" font-family="Times,serif" font-size="14.00" fill="#000000">reverse_word </text>
<text text-anchor="middle" x="1014.1457" y="-225.1503" font-family="Times,serif" font-size="14.00" fill="#000000"> (&#39;over&#39;)</text>
</g>
<!-- 139797965409528&#45;&gt;139797965447296 -->
<g id="edge7" class="edge">
<title>139797965409528&#45;&gt;139797965447296</title>
<path fill="none" stroke="#000000" d="M972.4037,-212.8446C946.5021,-198.2589 912.8862,-179.3291 884.6215,-163.4128"/>
<polygon fill="#000000" stroke="#000000" points="886.0801,-160.2174 875.6493,-158.3603 882.6453,-166.3168 886.0801,-160.2174"/>
<text text-anchor="middle" x="937.6457" y="-180.2802" font-family="Times,serif" font-size="14.00" fill="#000000">a</text>
</g>
<!-- 139797965409752 -->
<g id="node9" class="node">
<title>139797965409752</title>
<ellipse fill="none" stroke="#000000" cx="1200.1457" cy="-236.3503" rx="84.2917" ry="26.7407"/>
<text text-anchor="middle" x="1200.1457" y="-240.1503" font-family="Times,serif" font-size="14.00" fill="#000000">reverse_word </text>
<text text-anchor="middle" x="1200.1457" y="-225.1503" font-family="Times,serif" font-size="14.00" fill="#000000"> (&#39;the&#39;)</text>
</g>
<!-- 139797965409752&#45;&gt;139797965447296 -->
<g id="edge8" class="edge">
<title>139797965409752&#45;&gt;139797965447296</title>
<path fill="none" stroke="#000000" d="M1137.6362,-218.2053C1127.4499,-215.2727 1117.0075,-212.2811 1107.1457,-209.4802 1048.8531,-192.9247 983.6219,-174.7016 930.8995,-160.0489"/>
<polygon fill="#000000" stroke="#000000" points="931.7771,-156.6602 921.2052,-157.3557 929.9034,-163.4048 931.7771,-156.6602"/>
<text text-anchor="middle" x="1043.6457" y="-180.2802" font-family="Times,serif" font-size="14.00" fill="#000000">a</text>
</g>
<!-- 139797965409976 -->
<g id="node10" class="node">
<title>139797965409976</title>
<ellipse fill="none" stroke="#000000" cx="1386.1457" cy="-236.3503" rx="84.2917" ry="26.7407"/>
<text text-anchor="middle" x="1386.1457" y="-240.1503" font-family="Times,serif" font-size="14.00" fill="#000000">reverse_word </text>
<text text-anchor="middle" x="1386.1457" y="-225.1503" font-family="Times,serif" font-size="14.00" fill="#000000"> (&#39;lazy&#39;)</text>
</g>
<!-- 139797965409976&#45;&gt;139797965447296 -->
<g id="edge9" class="edge">
<title>139797965409976&#45;&gt;139797965447296</title>
<path fill="none" stroke="#000000" d="M1325.3759,-217.7033C1314.6906,-214.7371 1303.6339,-211.8652 1293.1457,-209.4802 1198.3273,-187.9189 1091.3758,-169.5999 1003.9703,-156.1571"/>
<polygon fill="#000000" stroke="#000000" points="1004.3678,-152.6773 993.9535,-154.6247 1003.3092,-159.5968 1004.3678,-152.6773"/>
<text text-anchor="middle" x="1209.6457" y="-180.2802" font-family="Times,serif" font-size="14.00" fill="#000000">a</text>
</g>
<!-- 139797965410200 -->
<g id="node11" class="node">
<title>139797965410200</title>
<ellipse fill="none" stroke="#000000" cx="1572.1457" cy="-236.3503" rx="84.2917" ry="26.7407"/>
<text text-anchor="middle" x="1572.1457" y="-240.1503" font-family="Times,serif" font-size="14.00" fill="#000000">reverse_word </text>
<text text-anchor="middle" x="1572.1457" y="-225.1503" font-family="Times,serif" font-size="14.00" fill="#000000"> (&#39;dog&#39;)</text>
</g>
<!-- 139797965410200&#45;&gt;139797965447296 -->
<g id="edge10" class="edge">
<title>139797965410200&#45;&gt;139797965447296</title>
<path fill="none" stroke="#000000" d="M1511.9541,-217.4845C1501.1056,-214.5071 1489.8443,-211.6882 1479.1457,-209.4802 1346.049,-182.0124 1195.5,-163.2279 1072.7276,-151.0018"/>
<polygon fill="#000000" stroke="#000000" points="1072.7356,-147.4857 1062.4401,-149.9862 1072.0479,-154.4518 1072.7356,-147.4857"/>
<text text-anchor="middle" x="1377.6457" y="-180.2802" font-family="Times,serif" font-size="14.00" fill="#000000">a</text>
</g>
</g>
</svg>
