<?xml version="1.0" encoding="UTF-8" standalone="no"?>
<!DOCTYPE svg PUBLIC "-//W3C//DTD SVG 1.1//EN"
 "http://www.w3.org/Graphics/SVG/1.1/DTD/svg11.dtd">
<!-- Generated by graphviz version 2.40.1 (0)
 -->
<!-- Title: %3 Pages: 1 -->
<svg width="214pt" height="271pt"
 viewBox="0.00 0.00 214.05 271.22" xmlns="http://www.w3.org/2000/svg" xmlns:xlink="http://www.w3.org/1999/xlink">
<g id="graph0" class="graph" transform="scale(1 1) rotate(0) translate(4 267.2203)">
<title>%3</title>
<!-- 139745624703272 -->
<g id="node1" class="node">
<title>139745624703272</title>
<ellipse fill="none" stroke="#000000" cx="101.2548" cy="-26.8701" rx="48.5816" ry="26.7407"/>
<text text-anchor="middle" x="101.2548" y="-30.6701" font-family="Times,serif" font-size="14.00" fill="#000000">mul </text>
<text text-anchor="middle" x="101.2548" y="-15.6701" font-family="Times,serif" font-size="14.00" fill="#000000"> (—, —)</text>
</g>
<!-- 139745633820232 -->
<g id="node2" class="node">
<title>139745633820232</title>
<ellipse fill="none" stroke="#000000" cx="45.2548" cy="-131.6102" rx="45.011" ry="26.7407"/>
<text text-anchor="middle" x="45.2548" y="-135.4102" font-family="Times,serif" font-size="14.00" fill="#000000">mul </text>
<text text-anchor="middle" x="45.2548" y="-120.4102" font-family="Times,serif" font-size="14.00" fill="#000000"> (—, 2)</text>
</g>
<!-- 139745633820232&#45;&gt;139745624703272 -->
<g id="edge1" class="edge">
<title>139745633820232&#45;&gt;139745624703272</title>
<path fill="none" stroke="#000000" d="M58.954,-105.9879C66.0195,-92.7729 74.7456,-76.4518 82.4337,-62.0723"/>
<polygon fill="#000000" stroke="#000000" points="85.6796,-63.4244 87.3081,-52.9554 79.5066,-60.1239 85.6796,-63.4244"/>
<text text-anchor="middle" x="81.7548" y="-75.5401" font-family="Times,serif" font-size="14.00" fill="#000000">x</text>
</g>
<!-- 139745624620896 -->
<g id="node3" class="node">
<title>139745624620896</title>
<ellipse fill="none" stroke="#000000" cx="125.2548" cy="-236.3503" rx="41.9398" ry="26.7407"/>
<text text-anchor="middle" x="125.2548" y="-240.1503" font-family="Times,serif" font-size="14.00" fill="#000000">add </text>
<text text-anchor="middle" x="125.2548" y="-225.1503" font-family="Times,serif" font-size="14.00" fill="#000000"> (1, 1)</text>
</g>
<!-- 139745624620896&#45;&gt;139745633820232 -->
<g id="edge3" class="edge">
<title>139745624620896&#45;&gt;139745633820232</title>
<path fill="none" stroke="#000000" d="M106.7001,-212.0575C95.8732,-197.8824 82.0703,-179.8108 70.2905,-164.3881"/>
<polygon fill="#000000" stroke="#000000" points="72.8375,-161.9566 63.986,-156.134 67.2745,-166.2056 72.8375,-161.9566"/>
<text text-anchor="middle" x="94.7548" y="-180.2802" font-family="Times,serif" font-size="14.00" fill="#000000">x</text>
</g>
<!-- 139745624703048 -->
<g id="node4" class="node">
<title>139745624703048</title>
<ellipse fill="none" stroke="#000000" cx="157.2548" cy="-131.6102" rx="48.5816" ry="26.7407"/>
<text text-anchor="middle" x="157.2548" y="-135.4102" font-family="Times,serif" font-size="14.00" fill="#000000">add </text>
<text text-anchor="middle" x="157.2548" y="-120.4102" font-family="Times,serif" font-size="14.00" fill="#000000"> (—, —)</text>
</g>
<!-- 139745624620896&#45;&gt;139745624703048 -->
<g id="edge2" class="edge">
<title>139745624620896&#45;&gt;139745624703048</title>
<path fill="none" stroke="#000000" d="M122.4057,-209.2812C122.1506,-198.8124 122.9184,-186.8731 126.2548,-176.4802 127.4894,-172.6347 129.1732,-168.825 131.1223,-165.1458"/>
<polygon fill="#000000" stroke="#000000" points="134.2711,-166.7003 136.4089,-156.3234 128.2665,-163.1022 134.2711,-166.7003"/>
<text text-anchor="middle" x="130.7548" y="-180.2802" font-family="Times,serif" font-size="14.00" fill="#000000">y</text>
</g>
<!-- 139745624620896&#45;&gt;139745624703048 -->
<g id="edge4" class="edge">
<title>139745624620896&#45;&gt;139745624703048</title>
<path fill="none" stroke="#000000" d="M133.3298,-209.9199C137.2035,-197.2408 141.9063,-181.8477 146.1139,-168.0759"/>
<polygon fill="#000000" stroke="#000000" points="149.4965,-168.9827 149.0712,-158.3964 142.802,-166.9373 149.4965,-168.9827"/>
<text text-anchor="middle" x="146.7548" y="-180.2802" font-family="Times,serif" font-size="14.00" fill="#000000">x</text>
</g>
<!-- 139745624703048&#45;&gt;139745624703272 -->
<g id="edge5" class="edge">
<title>139745624703048&#45;&gt;139745624703272</title>
<path fill="none" stroke="#000000" d="M143.4121,-105.7194C136.3447,-92.5008 127.6443,-76.2279 119.9865,-61.905"/>
<polygon fill="#000000" stroke="#000000" points="122.9339,-59.9945 115.1324,-52.826 116.7608,-63.295 122.9339,-59.9945"/>
<text text-anchor="middle" x="136.7548" y="-75.5401" font-family="Times,serif" font-size="14.00" fill="#000000">y</text>
</g>
</g>
</svg>
