<?xml version="1.0" encoding="UTF-8" standalone="no"?>
<!DOCTYPE svg PUBLIC "-//W3C//DTD SVG 1.1//EN"
 "http://www.w3.org/Graphics/SVG/1.1/DTD/svg11.dtd">
<!-- Generated by graphviz version 2.40.1 (20161225.0304)
 -->
<!-- Title: %3 Pages: 1 -->
<svg width="106pt" height="166pt"
 viewBox="0.00 0.00 105.58 166.48" xmlns="http://www.w3.org/2000/svg" xmlns:xlink="http://www.w3.org/1999/xlink">
<g id="graph0" class="graph" transform="scale(1 1) rotate(0) translate(4 162.4802)">
<title>%3</title>
<!-- 140096471527096 -->
<g id="node1" class="node">
<title>140096471527096</title>
<ellipse fill="none" stroke="#000000" cx="48.7904" cy="-26.8701" rx="48.5816" ry="26.7407"/>
<text text-anchor="middle" x="48.7904" y="-30.6701" font-family="Times,serif" font-size="14.00" fill="#000000">add </text>
<text text-anchor="middle" x="48.7904" y="-15.6701" font-family="Times,serif" font-size="14.00" fill="#000000"> (—, —)</text>
</g>
<!-- 140096471526536 -->
<g id="node2" class="node">
<title>140096471526536</title>
<ellipse fill="none" stroke="#000000" cx="48.7904" cy="-131.6102" rx="41.9398" ry="26.7407"/>
<text text-anchor="middle" x="48.7904" y="-135.4102" font-family="Times,serif" font-size="14.00" fill="#000000">add </text>
<text text-anchor="middle" x="48.7904" y="-120.4102" font-family="Times,serif" font-size="14.00" fill="#000000"> (1, 1)</text>
</g>
<!-- 140096471526536&#45;&gt;140096471527096 -->
<g id="edge1" class="edge">
<title>140096471526536&#45;&gt;140096471527096</title>
<path fill="none" stroke="#000000" d="M37.4969,-105.5803C34.2243,-95.1424 31.9661,-82.951 33.7904,-71.7401 34.248,-68.928 34.857,-66.0541 35.5679,-63.1869"/>
<polygon fill="#000000" stroke="#000000" points="38.9357,-64.1395 38.3061,-53.5634 32.2029,-62.2238 38.9357,-64.1395"/>
<text text-anchor="middle" x="38.2904" y="-75.5401" font-family="Times,serif" font-size="14.00" fill="#000000">x</text>
</g>
<!-- 140096471526536&#45;&gt;140096471527096 -->
<g id="edge2" class="edge">
<title>140096471526536&#45;&gt;140096471527096</title>
<path fill="none" stroke="#000000" d="M48.7904,-104.637C48.7904,-92.2976 48.7904,-77.4761 48.7904,-64.0972"/>
<polygon fill="#000000" stroke="#000000" points="52.2905,-63.7518 48.7904,-53.7518 45.2905,-63.7519 52.2905,-63.7518"/>
<text text-anchor="middle" x="53.2904" y="-75.5401" font-family="Times,serif" font-size="14.00" fill="#000000">y</text>
</g>
</g>
</svg>
