<?xml version="1.0" encoding="UTF-8" standalone="no"?>
<!DOCTYPE svg PUBLIC "-//W3C//DTD SVG 1.1//EN"
 "http://www.w3.org/Graphics/SVG/1.1/DTD/svg11.dtd">
<!-- Generated by graphviz version 2.40.1 (20161225.0304)
 -->
<!-- Title: %3 Pages: 1 -->
<svg width="650pt" height="271pt"
 viewBox="0.00 0.00 650.08 271.22" xmlns="http://www.w3.org/2000/svg" xmlns:xlink="http://www.w3.org/1999/xlink">
<g id="graph0" class="graph" transform="scale(1 1) rotate(0) translate(4 267.2203)">
<title>%3</title>
<!-- 139712680460240 -->
<g id="node1" class="node">
<title>139712680460240</title>
<ellipse fill="none" stroke="#000000" cx="320.5391" cy="-26.8701" rx="82.0488" ry="26.7407"/>
<text text-anchor="middle" x="320.5391" y="-30.6701" font-family="Times,serif" font-size="14.00" fill="#000000">make_dict </text>
<text text-anchor="middle" x="320.5391" y="-15.6701" font-family="Times,serif" font-size="14.00" fill="#000000"> (—, —, —, —)</text>
</g>
<!-- 139712680460128 -->
<g id="node2" class="node">
<title>139712680460128</title>
<ellipse fill="none" stroke="#000000" cx="73.5391" cy="-131.6102" rx="73.5782" ry="26.7407"/>
<text text-anchor="middle" x="73.5391" y="-135.4102" font-family="Times,serif" font-size="14.00" fill="#000000">make_tuple </text>
<text text-anchor="middle" x="73.5391" y="-120.4102" font-family="Times,serif" font-size="14.00" fill="#000000"> (&#39;Kneu&#39;, —)</text>
</g>
<!-- 139712680460128&#45;&gt;139712680460240 -->
<g id="edge1" class="edge">
<title>139712680460128&#45;&gt;139712680460240</title>
<path fill="none" stroke="#000000" d="M121.7495,-111.1666C161.5588,-94.2855 218.2455,-70.2476 260.9055,-52.1576"/>
<polygon fill="#000000" stroke="#000000" points="262.4905,-55.2873 270.3306,-48.1609 259.7577,-48.8427 262.4905,-55.2873"/>
<text text-anchor="middle" x="239.0391" y="-75.5401" font-family="Times,serif" font-size="14.00" fill="#000000">kwargs</text>
</g>
<!-- 139712680893240 -->
<g id="node3" class="node">
<title>139712680893240</title>
<ellipse fill="none" stroke="#000000" cx="73.5391" cy="-236.3503" rx="65.1077" ry="26.7407"/>
<text text-anchor="middle" x="73.5391" y="-240.1503" font-family="Times,serif" font-size="14.00" fill="#000000">word_size </text>
<text text-anchor="middle" x="73.5391" y="-225.1503" font-family="Times,serif" font-size="14.00" fill="#000000"> (&#39;Kneu&#39;)</text>
</g>
<!-- 139712680893240&#45;&gt;139712680460128 -->
<g id="edge2" class="edge">
<title>139712680893240&#45;&gt;139712680460128</title>
<path fill="none" stroke="#000000" d="M73.5391,-209.3771C73.5391,-197.0377 73.5391,-182.2162 73.5391,-168.8373"/>
<polygon fill="#000000" stroke="#000000" points="77.0392,-168.4919 73.5391,-158.4919 70.0392,-168.492 77.0392,-168.4919"/>
<text text-anchor="middle" x="89.5391" y="-180.2802" font-family="Times,serif" font-size="14.00" fill="#000000">args</text>
</g>
<!-- 139712680460016 -->
<g id="node4" class="node">
<title>139712680460016</title>
<ellipse fill="none" stroke="#000000" cx="238.5391" cy="-131.6102" rx="73.5782" ry="26.7407"/>
<text text-anchor="middle" x="238.5391" y="-135.4102" font-family="Times,serif" font-size="14.00" fill="#000000">make_tuple </text>
<text text-anchor="middle" x="238.5391" y="-120.4102" font-family="Times,serif" font-size="14.00" fill="#000000"> (&#39;kneu&#39;, —)</text>
</g>
<!-- 139712680460016&#45;&gt;139712680460240 -->
<g id="edge3" class="edge">
<title>139712680460016&#45;&gt;139712680460240</title>
<path fill="none" stroke="#000000" d="M258.8088,-105.7194C269.2753,-92.3503 282.1877,-75.857 293.493,-61.4165"/>
<polygon fill="#000000" stroke="#000000" points="296.5245,-63.2221 299.9331,-53.1905 291.0127,-58.907 296.5245,-63.2221"/>
<text text-anchor="middle" x="311.0391" y="-75.5401" font-family="Times,serif" font-size="14.00" fill="#000000">kwargs</text>
</g>
<!-- 139712680459064 -->
<g id="node5" class="node">
<title>139712680459064</title>
<ellipse fill="none" stroke="#000000" cx="238.5391" cy="-236.3503" rx="65.1077" ry="26.7407"/>
<text text-anchor="middle" x="238.5391" y="-240.1503" font-family="Times,serif" font-size="14.00" fill="#000000">word_size </text>
<text text-anchor="middle" x="238.5391" y="-225.1503" font-family="Times,serif" font-size="14.00" fill="#000000"> (&#39;kneu&#39;)</text>
</g>
<!-- 139712680459064&#45;&gt;139712680460016 -->
<g id="edge4" class="edge">
<title>139712680459064&#45;&gt;139712680460016</title>
<path fill="none" stroke="#000000" d="M238.5391,-209.3771C238.5391,-197.0377 238.5391,-182.2162 238.5391,-168.8373"/>
<polygon fill="#000000" stroke="#000000" points="242.0392,-168.4919 238.5391,-158.4919 235.0392,-168.492 242.0392,-168.4919"/>
<text text-anchor="middle" x="254.5391" y="-180.2802" font-family="Times,serif" font-size="14.00" fill="#000000">args</text>
</g>
<!-- 139712680458056 -->
<g id="node6" class="node">
<title>139712680458056</title>
<ellipse fill="none" stroke="#000000" cx="403.5391" cy="-131.6102" rx="73.5782" ry="26.7407"/>
<text text-anchor="middle" x="403.5391" y="-135.4102" font-family="Times,serif" font-size="14.00" fill="#000000">make_tuple </text>
<text text-anchor="middle" x="403.5391" y="-120.4102" font-family="Times,serif" font-size="14.00" fill="#000000"> (&#39;ote&#39;, —)</text>
</g>
<!-- 139712680458056&#45;&gt;139712680460240 -->
<g id="edge5" class="edge">
<title>139712680458056&#45;&gt;139712680460240</title>
<path fill="none" stroke="#000000" d="M383.0222,-105.7194C372.4281,-92.3503 359.3582,-75.857 347.915,-61.4165"/>
<polygon fill="#000000" stroke="#000000" points="350.3504,-58.8543 341.3965,-53.1905 344.8641,-63.2019 350.3504,-58.8543"/>
<text text-anchor="middle" x="394.0391" y="-75.5401" font-family="Times,serif" font-size="14.00" fill="#000000">kwargs</text>
</g>
<!-- 139712680458616 -->
<g id="node7" class="node">
<title>139712680458616</title>
<ellipse fill="none" stroke="#000000" cx="403.5391" cy="-236.3503" rx="65.1077" ry="26.7407"/>
<text text-anchor="middle" x="403.5391" y="-240.1503" font-family="Times,serif" font-size="14.00" fill="#000000">word_size </text>
<text text-anchor="middle" x="403.5391" y="-225.1503" font-family="Times,serif" font-size="14.00" fill="#000000"> (&#39;ote&#39;)</text>
</g>
<!-- 139712680458616&#45;&gt;139712680458056 -->
<g id="edge6" class="edge">
<title>139712680458616&#45;&gt;139712680458056</title>
<path fill="none" stroke="#000000" d="M403.5391,-209.3771C403.5391,-197.0377 403.5391,-182.2162 403.5391,-168.8373"/>
<polygon fill="#000000" stroke="#000000" points="407.0392,-168.4919 403.5391,-158.4919 400.0392,-168.492 407.0392,-168.4919"/>
<text text-anchor="middle" x="419.5391" y="-180.2802" font-family="Times,serif" font-size="14.00" fill="#000000">args</text>
</g>
<!-- 139712680459848 -->
<g id="node8" class="node">
<title>139712680459848</title>
<ellipse fill="none" stroke="#000000" cx="568.5391" cy="-131.6102" rx="73.5782" ry="26.7407"/>
<text text-anchor="middle" x="568.5391" y="-135.4102" font-family="Times,serif" font-size="14.00" fill="#000000">make_tuple </text>
<text text-anchor="middle" x="568.5391" y="-120.4102" font-family="Times,serif" font-size="14.00" fill="#000000"> (&#39;eur&#39;, —)</text>
</g>
<!-- 139712680459848&#45;&gt;139712680460240 -->
<g id="edge7" class="edge">
<title>139712680459848&#45;&gt;139712680460240</title>
<path fill="none" stroke="#000000" d="M520.1335,-111.1666C480.1631,-94.2855 423.2469,-70.2476 380.4142,-52.1576"/>
<polygon fill="#000000" stroke="#000000" points="381.5248,-48.8274 370.9509,-48.1609 378.8013,-55.2759 381.5248,-48.8274"/>
<text text-anchor="middle" x="485.0391" y="-75.5401" font-family="Times,serif" font-size="14.00" fill="#000000">kwargs</text>
</g>
<!-- 139712680459680 -->
<g id="node9" class="node">
<title>139712680459680</title>
<ellipse fill="none" stroke="#000000" cx="568.5391" cy="-236.3503" rx="65.1077" ry="26.7407"/>
<text text-anchor="middle" x="568.5391" y="-240.1503" font-family="Times,serif" font-size="14.00" fill="#000000">word_size </text>
<text text-anchor="middle" x="568.5391" y="-225.1503" font-family="Times,serif" font-size="14.00" fill="#000000"> (&#39;eur&#39;)</text>
</g>
<!-- 139712680459680&#45;&gt;139712680459848 -->
<g id="edge8" class="edge">
<title>139712680459680&#45;&gt;139712680459848</title>
<path fill="none" stroke="#000000" d="M568.5391,-209.3771C568.5391,-197.0377 568.5391,-182.2162 568.5391,-168.8373"/>
<polygon fill="#000000" stroke="#000000" points="572.0392,-168.4919 568.5391,-158.4919 565.0392,-168.492 572.0392,-168.4919"/>
<text text-anchor="middle" x="584.5391" y="-180.2802" font-family="Times,serif" font-size="14.00" fill="#000000">args</text>
</g>
</g>
</svg>
