<?xml version="1.0" encoding="UTF-8" standalone="no"?>
<!-- Generator: Adobe Illustrator 16.0.3, SVG Export Plug-In . SVG Version: 6.00 Build 0)  -->

<svg
   xmlns:dc="http://purl.org/dc/elements/1.1/"
   xmlns:cc="http://creativecommons.org/ns#"
   xmlns:rdf="http://www.w3.org/1999/02/22-rdf-syntax-ns#"
   xmlns:svg="http://www.w3.org/2000/svg"
   xmlns="http://www.w3.org/2000/svg"
   xmlns:sodipodi="http://sodipodi.sourceforge.net/DTD/sodipodi-0.dtd"
   xmlns:inkscape="http://www.inkscape.org/namespaces/inkscape"
   version="1.1"
   id="Layer_1"
   x="0px"
   y="0px"
   width="205.34116"
   height="39.690189"
   viewBox="0 0 205.34115 39.690189"
   enable-background="new 0 0 1190.551 841.89"
   xml:space="preserve"
   inkscape:version="0.91 r13725"
   sodipodi:docname="nlesc-logo-white.svg"><metadata
     id="metadata57"><rdf:RDF><cc:Work
         rdf:about=""><dc:format>image/svg+xml</dc:format><dc:type
           rdf:resource="http://purl.org/dc/dcmitype/StillImage" /><dc:title></dc:title></cc:Work></rdf:RDF></metadata><defs
     id="defs55" /><sodipodi:namedview
     pagecolor="#ffffff"
     bordercolor="#666666"
     borderopacity="1"
     objecttolerance="10"
     gridtolerance="10"
     guidetolerance="10"
     inkscape:pageopacity="0"
     inkscape:pageshadow="2"
     inkscape:window-width="1920"
     inkscape:window-height="1053"
     id="namedview53"
     showgrid="false"
     fit-margin-top="0"
     fit-margin-left="0"
     fit-margin-right="0"
     fit-margin-bottom="0"
     inkscape:zoom="8.9702929"
     inkscape:cx="48.081185"
     inkscape:cy="13.304691"
     inkscape:window-x="1920"
     inkscape:window-y="27"
     inkscape:window-maximized="1"
     inkscape:current-layer="layer2" /><g
     inkscape:groupmode="layer"
     id="layer1"
     inkscape:label="bg"
     transform="translate(-689.26608,131.97034)"
     style="display:none"
     sodipodi:insensitive="true"><rect
       style="color:#000000;clip-rule:nonzero;display:inline;overflow:visible;visibility:visible;opacity:1;isolation:auto;mix-blend-mode:normal;color-interpolation:sRGB;color-interpolation-filters:linearRGB;solid-color:#000000;solid-opacity:1;fill:#800080;fill-opacity:1;fill-rule:nonzero;stroke:none;stroke-width:8;stroke-linecap:butt;stroke-linejoin:miter;stroke-miterlimit:4;stroke-dasharray:none;stroke-dashoffset:0;stroke-opacity:1;color-rendering:auto;image-rendering:auto;shape-rendering:auto;text-rendering:auto;enable-background:accumulate"
       id="rect4212"
       width="260.16159"
       height="74.981712"
       x="666.08313"
       y="-148.47925"
       ry="8.5714302"
       rx="8.5714302" /></g><g
     inkscape:groupmode="layer"
     id="layer2"
     inkscape:label="logo"
     transform="translate(-689.26608,131.97034)"><g
       transform="translate(492.61824,-162.80991)"
       id="g4229"><g
         id="g3"><path
           style="fill:#ffffff"
           inkscape:connector-curvature="0"
           id="path5"
           d="m 343.563,59.291 c -0.034,0.512 -0.132,1.011 -0.298,1.498 -0.165,0.487 -0.396,0.921 -0.693,1.301 -0.446,0.562 -1.045,1.04 -1.795,1.437 -0.752,0.396 -1.623,0.594 -2.613,0.594 -0.991,0 -1.875,-0.202 -2.65,-0.607 -0.776,-0.404 -1.387,-0.879 -1.833,-1.424 -0.479,-0.611 -0.833,-1.313 -1.064,-2.105 -0.231,-0.793 -0.347,-1.66 -0.347,-2.601 0,-0.941 0.116,-1.809 0.347,-2.601 0.231,-0.793 0.585,-1.495 1.064,-2.105 0.446,-0.544 1.057,-1.019 1.833,-1.424 0.776,-0.404 1.659,-0.607 2.65,-0.607 0.991,0 1.861,0.198 2.613,0.595 0.75,0.396 1.349,0.875 1.795,1.437 0.297,0.38 0.528,0.813 0.693,1.3 0.166,0.487 0.264,0.987 0.298,1.498 l -3.047,0 c -0.017,-0.231 -0.058,-0.446 -0.123,-0.644 -0.067,-0.198 -0.149,-0.379 -0.248,-0.544 -0.182,-0.281 -0.438,-0.512 -0.768,-0.693 -0.33,-0.181 -0.734,-0.273 -1.213,-0.273 -0.43,0 -0.797,0.075 -1.102,0.223 -0.306,0.148 -0.566,0.339 -0.78,0.57 -0.38,0.413 -0.619,0.908 -0.718,1.485 -0.1,0.579 -0.148,1.173 -0.148,1.784 0,0.611 0.049,1.201 0.148,1.771 0.099,0.569 0.338,1.061 0.718,1.473 0.214,0.231 0.474,0.425 0.78,0.582 0.305,0.157 0.672,0.235 1.102,0.235 0.479,0 0.883,-0.09 1.213,-0.273 0.33,-0.181 0.586,-0.412 0.768,-0.693 0.099,-0.166 0.181,-0.347 0.248,-0.545 0.065,-0.198 0.106,-0.413 0.123,-0.644 l 3.047,0 z" /><path
           style="fill:#ffffff"
           inkscape:connector-curvature="0"
           id="path7"
           d="m 356.466,57.507 c -0.017,0.116 -0.025,0.223 -0.025,0.322 l 0,0.545 -8.619,0 c 0,0.495 0.079,0.966 0.236,1.412 0.156,0.446 0.392,0.817 0.706,1.115 0.231,0.215 0.499,0.401 0.805,0.557 0.305,0.157 0.672,0.235 1.102,0.235 0.446,0 0.813,-0.045 1.102,-0.136 0.289,-0.091 0.548,-0.252 0.78,-0.483 0.297,-0.297 0.503,-0.66 0.619,-1.089 l 2.972,0 c -0.034,0.38 -0.161,0.796 -0.384,1.25 -0.223,0.454 -0.458,0.83 -0.706,1.126 -0.545,0.644 -1.197,1.107 -1.957,1.387 -0.76,0.281 -1.553,0.421 -2.377,0.421 -0.892,0 -1.664,-0.145 -2.316,-0.434 -0.653,-0.289 -1.234,-0.673 -1.746,-1.151 -0.644,-0.627 -1.135,-1.378 -1.474,-2.254 -0.338,-0.875 -0.508,-1.841 -0.508,-2.898 0,-1.04 0.153,-2.002 0.459,-2.885 0.305,-0.883 0.771,-1.639 1.399,-2.266 0.479,-0.496 1.061,-0.892 1.747,-1.189 0.685,-0.297 1.473,-0.446 2.365,-0.446 0.958,0 1.85,0.194 2.675,0.582 0.825,0.389 1.502,0.987 2.031,1.796 0.479,0.71 0.784,1.433 0.917,2.167 0.131,0.735 0.197,1.507 0.197,2.316 z M 353.37,56.12 c -0.016,-0.941 -0.281,-1.692 -0.792,-2.254 -0.215,-0.231 -0.483,-0.413 -0.805,-0.545 -0.322,-0.131 -0.706,-0.198 -1.152,-0.198 -0.479,0 -0.9,0.091 -1.263,0.273 -0.363,0.182 -0.66,0.421 -0.892,0.718 -0.231,0.281 -0.396,0.578 -0.495,0.892 -0.099,0.314 -0.157,0.685 -0.173,1.114 l 5.572,0 z" /><path
           style="fill:#ffffff"
           inkscape:connector-curvature="0"
           id="path9"
           d="m 366.497,63.848 0,-7.901 c 0,-0.759 -0.149,-1.354 -0.446,-1.783 -0.297,-0.429 -0.859,-0.644 -1.684,-0.644 -0.545,0 -1,0.153 -1.362,0.458 -0.363,0.306 -0.653,0.697 -0.867,1.176 -0.215,0.479 -0.339,1.036 -0.372,1.672 -0.033,0.636 -0.049,1.226 -0.049,1.771 l 0,5.251 -3.096,0 0,-12.88 2.601,0 0.223,1.659 c 0.379,-0.677 0.92,-1.176 1.623,-1.498 0.702,-0.322 1.424,-0.483 2.167,-0.483 0.693,0 1.309,0.116 1.845,0.347 0.536,0.231 0.991,0.549 1.362,0.953 0.372,0.405 0.656,0.892 0.854,1.461 0.198,0.57 0.297,1.185 0.297,1.845 l 0,8.595 -3.096,0 z" /><path
           style="fill:#ffffff"
           inkscape:connector-curvature="0"
           id="path11"
           d="m 379.797,63.674 c -0.892,0.231 -1.775,0.347 -2.65,0.347 -1.304,0 -2.279,-0.351 -2.922,-1.052 -0.644,-0.702 -0.965,-1.672 -0.965,-2.91 l 0,-6.539 -2.354,0 0,-2.551 2.354,0 0,-3.27 3.095,-0.768 0,4.037 3.245,0 0,2.551 -3.245,0 0,6.266 c 0,0.495 0.116,0.854 0.347,1.078 0.231,0.223 0.594,0.334 1.09,0.334 0.33,0 0.639,-0.008 0.929,-0.025 0.289,-0.016 0.648,-0.049 1.077,-0.099 l 0,2.601 z" /><path
           style="fill:#ffffff"
           inkscape:connector-curvature="0"
           id="path13"
           d="m 392.33,57.507 c -0.016,0.116 -0.024,0.223 -0.024,0.322 l 0,0.545 -8.62,0 c 0,0.495 0.078,0.966 0.235,1.412 0.157,0.446 0.392,0.817 0.705,1.115 0.231,0.215 0.5,0.401 0.805,0.557 0.306,0.157 0.674,0.235 1.103,0.235 0.446,0 0.813,-0.045 1.103,-0.136 0.289,-0.091 0.549,-0.252 0.78,-0.483 0.296,-0.297 0.503,-0.66 0.619,-1.089 l 2.972,0 c -0.033,0.38 -0.161,0.796 -0.384,1.25 -0.222,0.454 -0.458,0.83 -0.706,1.126 -0.544,0.644 -1.197,1.107 -1.957,1.387 -0.76,0.281 -1.552,0.421 -2.377,0.421 -0.892,0 -1.665,-0.145 -2.316,-0.434 -0.653,-0.289 -1.234,-0.673 -1.747,-1.151 -0.644,-0.627 -1.135,-1.378 -1.474,-2.254 -0.338,-0.875 -0.508,-1.841 -0.508,-2.898 0,-1.04 0.153,-2.002 0.458,-2.885 0.305,-0.883 0.771,-1.639 1.4,-2.266 0.478,-0.496 1.061,-0.892 1.746,-1.189 0.685,-0.297 1.474,-0.446 2.366,-0.446 0.957,0 1.849,0.194 2.675,0.582 0.826,0.389 1.502,0.987 2.031,1.796 0.479,0.71 0.784,1.433 0.916,2.167 0.132,0.735 0.199,1.507 0.199,2.316 z m -3.096,-1.387 c -0.018,-0.941 -0.282,-1.692 -0.793,-2.254 -0.215,-0.231 -0.483,-0.413 -0.805,-0.545 -0.322,-0.131 -0.706,-0.198 -1.151,-0.198 -0.479,0 -0.901,0.091 -1.264,0.273 -0.363,0.182 -0.661,0.421 -0.891,0.718 -0.231,0.281 -0.396,0.578 -0.496,0.892 -0.1,0.314 -0.157,0.685 -0.174,1.114 l 5.574,0 z" /><path
           style="fill:#ffffff"
           inkscape:connector-curvature="0"
           id="path15"
           d="m 401.989,53.841 c -0.38,-0.083 -0.735,-0.124 -1.064,-0.124 -1.09,0 -1.917,0.346 -2.478,1.04 -0.561,0.693 -0.841,1.561 -0.841,2.6 l 0,6.49 -3.121,0 0,-12.879 2.626,0 0.272,1.932 c 0.297,-0.743 0.788,-1.279 1.473,-1.61 0.686,-0.33 1.408,-0.495 2.168,-0.495 0.313,0 0.635,0.024 0.965,0.074 l 0,2.972 z" /></g><g
         id="g17"><path
           style="fill:#ffffff"
           inkscape:connector-curvature="0"
           id="path19"
           d="m 242.388,53.906 c -0.215,-0.231 -0.483,-0.413 -0.805,-0.546 -0.19,-0.078 -0.407,-0.125 -0.638,-0.157 l 0,2.957 2.237,0 c -0.017,-0.941 -0.282,-1.692 -0.794,-2.254 z" /><path
           style="fill:#ffffff"
           inkscape:connector-curvature="0"
           id="path21"
           d="m 324.38,54.153 c -0.231,0.282 -0.396,0.579 -0.495,0.892 -0.099,0.314 -0.157,0.686 -0.173,1.115 l 2.273,0 0,-2.95 c -0.257,0.045 -0.497,0.117 -0.713,0.225 -0.363,0.182 -0.661,0.421 -0.892,0.718 z" /><path
           style="fill:#ffffff"
           inkscape:connector-curvature="0"
           id="path23"
           d="m 288.315,53.36 c -0.321,-0.131 -0.705,-0.198 -1.152,-0.198 -0.479,0 -0.9,0.091 -1.264,0.273 -0.363,0.181 -0.661,0.42 -0.892,0.718 -0.231,0.282 -0.396,0.579 -0.496,0.892 -0.098,0.314 -0.156,0.686 -0.173,1.115 l 5.575,0 c -0.017,-0.941 -0.281,-1.692 -0.793,-2.254 -0.214,-0.231 -0.482,-0.413 -0.805,-0.546 z" /><path
           style="fill:#ffffff"
           inkscape:connector-curvature="0"
           id="path25"
           d="m 322.572,62.628 c -0.645,-0.627 -1.136,-1.378 -1.475,-2.255 -0.337,-0.875 -0.508,-1.842 -0.508,-2.899 0,-1.041 0.153,-2.002 0.459,-2.886 0.305,-0.884 0.772,-1.64 1.399,-2.268 0.479,-0.495 1.061,-0.892 1.748,-1.189 0.533,-0.232 1.131,-0.371 1.79,-0.422 l 0,-8.189 -85.04,0 0,8.19 c 0.773,0.056 1.503,0.237 2.187,0.557 0.827,0.389 1.503,0.988 2.032,1.797 0.479,0.71 0.784,1.433 0.917,2.168 0.132,0.735 0.198,1.508 0.198,2.316 -0.016,0.116 -0.024,0.224 -0.024,0.323 l 0,0.544 -5.309,0 0,3.295 c 0.239,-0.021 0.459,-0.054 0.638,-0.11 0.289,-0.09 0.549,-0.251 0.78,-0.483 0.297,-0.297 0.504,-0.661 0.62,-1.089 l 2.973,0 c -0.033,0.379 -0.161,0.796 -0.384,1.25 -0.222,0.455 -0.458,0.831 -0.706,1.127 -0.545,0.645 -1.199,1.107 -1.958,1.388 -0.631,0.233 -1.286,0.364 -1.963,0.403 l 0,5.254 85.04,0 0,-5.264 c -0.623,-0.055 -1.177,-0.19 -1.667,-0.406 -0.653,-0.289 -1.236,-0.673 -1.747,-1.152 z m -61.636,-1.834 c -0.273,0.595 -0.623,1.107 -1.054,1.537 -0.676,0.677 -1.499,1.16 -2.465,1.449 -0.967,0.289 -1.995,0.435 -3.085,0.435 -0.941,0 -1.87,-0.137 -2.788,-0.41 -0.917,-0.272 -1.738,-0.739 -2.465,-1.4 -0.528,-0.479 -0.966,-1.069 -1.313,-1.772 -0.347,-0.702 -0.521,-1.474 -0.521,-2.316 l 3.271,0 c 0,0.43 0.087,0.831 0.26,1.202 0.174,0.372 0.392,0.69 0.658,0.953 0.379,0.38 0.837,0.632 1.374,0.756 0.537,0.124 1.062,0.186 1.574,0.186 0.61,0 1.188,-0.071 1.735,-0.211 0.544,-0.14 0.982,-0.384 1.313,-0.731 0.198,-0.214 0.364,-0.441 0.496,-0.681 0.132,-0.239 0.197,-0.574 0.197,-1.003 0,-0.645 -0.21,-1.128 -0.632,-1.45 -0.421,-0.322 -0.904,-0.533 -1.449,-0.631 -0.595,-0.116 -1.248,-0.199 -1.958,-0.249 -0.71,-0.049 -1.354,-0.124 -1.933,-0.222 -0.611,-0.1 -1.185,-0.273 -1.721,-0.521 -0.538,-0.248 -1.008,-0.574 -1.414,-0.979 -0.404,-0.404 -0.727,-0.892 -0.966,-1.462 -0.239,-0.57 -0.359,-1.218 -0.359,-1.945 0,-0.694 0.14,-1.33 0.421,-1.908 0.28,-0.579 0.652,-1.099 1.115,-1.561 0.578,-0.579 1.321,-1.032 2.23,-1.364 0.908,-0.33 1.883,-0.495 2.924,-0.495 0.941,0 1.845,0.145 2.713,0.434 0.868,0.289 1.598,0.714 2.193,1.276 0.528,0.496 0.954,1.057 1.276,1.685 0.321,0.627 0.49,1.313 0.507,2.056 l -3.271,0 c -0.016,-0.313 -0.095,-0.624 -0.235,-0.929 -0.14,-0.306 -0.318,-0.574 -0.532,-0.806 -0.282,-0.297 -0.678,-0.528 -1.19,-0.693 -0.512,-0.165 -1.008,-0.249 -1.486,-0.249 -0.496,0 -1.004,0.066 -1.523,0.199 -0.521,0.132 -0.963,0.389 -1.327,0.768 -0.183,0.198 -0.327,0.413 -0.433,0.644 -0.107,0.232 -0.162,0.512 -0.162,0.842 0,0.579 0.166,1.021 0.496,1.326 0.331,0.306 0.76,0.5 1.289,0.582 0.562,0.083 1.193,0.157 1.896,0.223 0.702,0.067 1.342,0.141 1.92,0.224 0.661,0.099 1.284,0.276 1.87,0.532 0.586,0.256 1.099,0.595 1.537,1.016 0.438,0.421 0.784,0.929 1.041,1.524 0.257,0.595 0.384,1.264 0.384,2.007 0.001,0.828 -0.136,1.538 -0.408,2.132 z m 4.818,-1.598 c 0.099,0.57 0.339,1.062 0.719,1.475 0.214,0.231 0.476,0.425 0.78,0.583 0.305,0.157 0.673,0.235 1.103,0.235 0.479,0 0.884,-0.09 1.214,-0.272 0.331,-0.181 0.587,-0.414 0.769,-0.693 0.098,-0.166 0.181,-0.347 0.248,-0.546 0.065,-0.197 0.106,-0.413 0.123,-0.644 l 3.049,0 c -0.034,0.513 -0.133,1.013 -0.298,1.499 -0.165,0.488 -0.397,0.921 -0.693,1.301 -0.447,0.562 -1.046,1.041 -1.797,1.438 -0.752,0.396 -1.623,0.595 -2.614,0.595 -0.991,0 -1.875,-0.203 -2.651,-0.607 -0.776,-0.404 -1.388,-0.879 -1.834,-1.425 -0.48,-0.611 -0.834,-1.313 -1.065,-2.105 -0.231,-0.793 -0.347,-1.661 -0.347,-2.603 0,-0.942 0.115,-1.809 0.347,-2.601 0.231,-0.793 0.585,-1.495 1.065,-2.107 0.446,-0.545 1.058,-1.02 1.834,-1.424 0.776,-0.405 1.66,-0.607 2.651,-0.607 0.991,0 1.862,0.198 2.614,0.595 0.751,0.396 1.35,0.876 1.797,1.437 0.296,0.38 0.528,0.814 0.693,1.3 0.165,0.488 0.264,0.988 0.298,1.5 l -3.049,0 c -0.017,-0.231 -0.058,-0.446 -0.123,-0.645 -0.066,-0.198 -0.149,-0.379 -0.248,-0.544 -0.182,-0.281 -0.438,-0.512 -0.769,-0.695 -0.33,-0.181 -0.735,-0.272 -1.214,-0.272 -0.43,0 -0.798,0.075 -1.103,0.224 -0.305,0.148 -0.566,0.339 -0.78,0.569 -0.38,0.414 -0.62,0.909 -0.719,1.487 -0.098,0.579 -0.148,1.173 -0.148,1.784 0,0.608 0.05,1.198 0.148,1.768 z m 13.208,4.695 -3.147,0 0,-12.885 3.147,0 0,12.885 z m 0.074,-14.668 -3.32,0 0,-3.197 3.32,0 0,3.197 z m 13.95,8.648 0,0.544 -8.623,0 c 0,0.496 0.079,0.967 0.235,1.413 0.157,0.447 0.393,0.818 0.707,1.115 0.231,0.215 0.499,0.4 0.805,0.557 0.305,0.158 0.673,0.235 1.103,0.235 0.446,0 0.813,-0.045 1.102,-0.136 0.289,-0.09 0.549,-0.251 0.782,-0.483 0.297,-0.297 0.503,-0.661 0.619,-1.089 l 2.974,0 c -0.034,0.379 -0.161,0.796 -0.384,1.25 -0.223,0.454 -0.459,0.831 -0.707,1.127 -0.545,0.645 -1.197,1.107 -1.958,1.388 -0.759,0.281 -1.553,0.422 -2.379,0.422 -0.892,0 -1.664,-0.146 -2.316,-0.435 -0.653,-0.289 -1.235,-0.673 -1.747,-1.152 -0.644,-0.627 -1.135,-1.378 -1.475,-2.255 -0.338,-0.875 -0.508,-1.842 -0.508,-2.899 0,-1.041 0.152,-2.002 0.458,-2.886 0.305,-0.884 0.772,-1.64 1.4,-2.268 0.479,-0.495 1.061,-0.892 1.748,-1.189 0.685,-0.298 1.473,-0.446 2.365,-0.446 0.958,0 1.851,0.194 2.677,0.582 0.825,0.389 1.502,0.988 2.031,1.797 0.479,0.71 0.785,1.433 0.917,2.168 0.132,0.735 0.198,1.508 0.198,2.316 -0.015,0.117 -0.024,0.224 -0.024,0.324 z m 13.158,6.02 -3.098,0 0,-7.903 c 0,-0.761 -0.148,-1.354 -0.446,-1.785 -0.298,-0.429 -0.859,-0.644 -1.684,-0.644 -0.546,0 -1,0.152 -1.364,0.457 -0.363,0.306 -0.653,0.699 -0.867,1.177 -0.215,0.48 -0.339,1.037 -0.372,1.673 -0.034,0.636 -0.049,1.227 -0.049,1.771 l 0,5.252 -3.098,0 0,-12.883 2.603,0 0.222,1.66 c 0.379,-0.677 0.92,-1.177 1.623,-1.499 0.702,-0.323 1.425,-0.483 2.168,-0.483 0.694,0 1.31,0.116 1.846,0.347 0.537,0.231 0.992,0.549 1.363,0.953 0.372,0.406 0.656,0.893 0.854,1.463 0.199,0.569 0.298,1.186 0.298,1.845 l 0,8.599 z m 5.327,-4.695 c 0.098,0.57 0.338,1.062 0.718,1.475 0.215,0.231 0.475,0.425 0.781,0.583 0.306,0.157 0.673,0.235 1.103,0.235 0.479,0 0.884,-0.09 1.214,-0.272 0.33,-0.181 0.585,-0.414 0.769,-0.693 0.099,-0.166 0.181,-0.347 0.248,-0.546 0.065,-0.197 0.106,-0.413 0.124,-0.644 l 3.048,0 c -0.034,0.513 -0.132,1.013 -0.298,1.499 -0.165,0.488 -0.396,0.921 -0.693,1.301 -0.447,0.562 -1.044,1.041 -1.796,1.438 -0.752,0.396 -1.623,0.595 -2.614,0.595 -0.992,0 -1.875,-0.203 -2.652,-0.607 -0.776,-0.404 -1.388,-0.879 -1.833,-1.425 -0.479,-0.611 -0.834,-1.313 -1.066,-2.105 -0.232,-0.793 -0.347,-1.661 -0.347,-2.603 0,-0.942 0.115,-1.809 0.347,-2.601 0.231,-0.793 0.586,-1.495 1.066,-2.107 0.445,-0.545 1.057,-1.02 1.833,-1.424 0.776,-0.405 1.66,-0.607 2.652,-0.607 0.991,0 1.862,0.198 2.614,0.595 0.752,0.396 1.35,0.876 1.796,1.437 0.297,0.38 0.528,0.814 0.693,1.3 0.167,0.488 0.265,0.988 0.298,1.5 l -3.048,0 c -0.017,-0.231 -0.058,-0.446 -0.124,-0.645 -0.067,-0.198 -0.148,-0.379 -0.248,-0.544 -0.183,-0.281 -0.439,-0.512 -0.769,-0.695 -0.331,-0.181 -0.735,-0.272 -1.214,-0.272 -0.43,0 -0.797,0.075 -1.103,0.224 -0.306,0.148 -0.565,0.339 -0.781,0.569 -0.379,0.414 -0.62,0.909 -0.718,1.487 -0.099,0.579 -0.149,1.173 -0.149,1.784 0,0.608 0.05,1.198 0.149,1.768 z" /><path
           style="fill:#ffffff"
           inkscape:connector-curvature="0"
           id="path27"
           d="m 323.972,59.828 c 0.156,0.447 0.392,0.818 0.706,1.115 0.231,0.215 0.499,0.4 0.805,0.557 0.151,0.078 0.319,0.137 0.502,0.176 l 0,-3.261 -2.249,0 c 0,0.496 0.079,0.967 0.236,1.413 z" /></g><g
         id="g29"><path
           style="fill:#ffffff"
           inkscape:connector-curvature="0"
           id="path31"
           d="m 243.948,38.255 0,-3.012 c 0,-0.29 -0.057,-0.516 -0.17,-0.68 -0.113,-0.164 -0.327,-0.246 -0.643,-0.246 -0.207,0 -0.381,0.058 -0.519,0.175 -0.139,0.116 -0.249,0.266 -0.331,0.448 -0.082,0.182 -0.129,0.395 -0.142,0.638 -0.013,0.242 -0.019,0.467 -0.019,0.675 l 0,2.002 -1.181,0 0,-4.91 0.991,0 0.086,0.633 c 0.145,-0.258 0.351,-0.449 0.618,-0.571 0.268,-0.123 0.543,-0.184 0.826,-0.184 0.265,0 0.499,0.044 0.703,0.132 0.205,0.088 0.378,0.209 0.52,0.364 0.142,0.155 0.25,0.34 0.326,0.557 0.075,0.217 0.113,0.452 0.113,0.704 l 0,3.276 -1.178,0 z" /><path
           style="fill:#ffffff"
           inkscape:connector-curvature="0"
           id="path33"
           d="m 250.492,35.837 c -0.007,0.044 -0.01,0.085 -0.01,0.123 l 0,0.208 -3.286,0 c 0,0.189 0.03,0.368 0.09,0.538 0.06,0.17 0.149,0.312 0.27,0.425 0.088,0.082 0.189,0.152 0.307,0.212 0.116,0.06 0.256,0.09 0.42,0.09 0.17,0 0.311,-0.018 0.42,-0.052 0.11,-0.035 0.21,-0.096 0.298,-0.184 0.113,-0.113 0.192,-0.251 0.236,-0.416 l 1.133,0 c -0.013,0.145 -0.062,0.304 -0.146,0.477 -0.084,0.173 -0.175,0.316 -0.269,0.43 -0.208,0.245 -0.457,0.422 -0.746,0.529 -0.29,0.107 -0.592,0.16 -0.907,0.16 -0.34,0 -0.634,-0.055 -0.883,-0.165 -0.248,-0.11 -0.471,-0.256 -0.665,-0.439 -0.246,-0.239 -0.434,-0.526 -0.563,-0.859 -0.129,-0.333 -0.193,-0.702 -0.193,-1.105 0,-0.396 0.059,-0.763 0.175,-1.1 0.116,-0.336 0.294,-0.625 0.533,-0.864 0.183,-0.189 0.404,-0.34 0.666,-0.453 0.261,-0.113 0.562,-0.17 0.901,-0.17 0.365,0 0.705,0.074 1.021,0.222 0.314,0.148 0.572,0.376 0.774,0.685 0.182,0.271 0.299,0.546 0.349,0.826 0.05,0.28 0.075,0.574 0.075,0.882 z m -1.18,-0.528 c -0.006,-0.359 -0.107,-0.645 -0.302,-0.859 -0.082,-0.088 -0.185,-0.158 -0.308,-0.208 -0.122,-0.05 -0.269,-0.076 -0.438,-0.076 -0.183,0 -0.344,0.035 -0.481,0.104 -0.139,0.069 -0.252,0.161 -0.34,0.274 -0.089,0.107 -0.151,0.22 -0.189,0.34 -0.038,0.12 -0.06,0.261 -0.066,0.425 l 2.124,0 z" /><path
           style="fill:#ffffff"
           inkscape:connector-curvature="0"
           id="path35"
           d="m 254.137,38.189 c -0.34,0.088 -0.677,0.132 -1.011,0.132 -0.497,0 -0.868,-0.133 -1.114,-0.401 -0.245,-0.267 -0.368,-0.637 -0.368,-1.109 l 0,-2.493 -0.896,0 0,-0.973 0.896,0 0,-1.247 1.181,-0.292 0,1.539 1.237,0 0,0.973 -1.237,0 0,2.389 c 0,0.189 0.044,0.326 0.132,0.411 0.089,0.085 0.227,0.127 0.416,0.127 0.126,0 0.244,-0.003 0.354,-0.01 0.11,-0.006 0.247,-0.019 0.411,-0.038 l 0,0.992 z" /><path
           style="fill:#ffffff"
           inkscape:connector-curvature="0"
           id="path37"
           d="m 257.951,38.255 0,-3.031 c 0,-0.283 -0.057,-0.506 -0.17,-0.67 -0.113,-0.164 -0.327,-0.246 -0.643,-0.246 -0.176,0 -0.328,0.042 -0.457,0.128 -0.13,0.085 -0.235,0.193 -0.316,0.326 -0.082,0.132 -0.142,0.278 -0.18,0.439 -0.038,0.161 -0.057,0.316 -0.057,0.467 l 0,2.587 -1.181,0 0,-6.817 1.181,0 0,2.427 c 0.145,-0.208 0.34,-0.367 0.585,-0.477 0.246,-0.11 0.498,-0.165 0.756,-0.165 0.265,0 0.499,0.044 0.703,0.132 0.205,0.088 0.378,0.211 0.52,0.368 0.142,0.158 0.25,0.343 0.326,0.557 0.075,0.214 0.113,0.447 0.113,0.699 l 0,3.276 -1.18,0 z" /><path
           style="fill:#ffffff"
           inkscape:connector-curvature="0"
           id="path39"
           d="m 264.495,35.837 c -0.007,0.044 -0.01,0.085 -0.01,0.123 l 0,0.208 -3.286,0 c 0,0.189 0.03,0.368 0.09,0.538 0.06,0.17 0.149,0.312 0.27,0.425 0.088,0.082 0.189,0.152 0.307,0.212 0.116,0.06 0.256,0.09 0.42,0.09 0.17,0 0.311,-0.018 0.42,-0.052 0.11,-0.035 0.21,-0.096 0.298,-0.184 0.113,-0.113 0.192,-0.251 0.236,-0.416 l 1.133,0 c -0.013,0.145 -0.062,0.304 -0.146,0.477 -0.084,0.173 -0.175,0.316 -0.269,0.43 -0.208,0.245 -0.457,0.422 -0.746,0.529 -0.29,0.107 -0.592,0.16 -0.907,0.16 -0.34,0 -0.634,-0.055 -0.883,-0.165 -0.248,-0.11 -0.471,-0.256 -0.665,-0.439 -0.246,-0.239 -0.434,-0.526 -0.563,-0.859 C 260.065,36.581 260,36.212 260,35.809 c 0,-0.396 0.059,-0.763 0.175,-1.1 0.116,-0.336 0.294,-0.625 0.533,-0.864 0.183,-0.189 0.404,-0.34 0.666,-0.453 0.261,-0.113 0.562,-0.17 0.901,-0.17 0.365,0 0.705,0.074 1.021,0.222 0.314,0.148 0.572,0.376 0.774,0.685 0.182,0.271 0.299,0.546 0.349,0.826 0.051,0.28 0.076,0.574 0.076,0.882 z m -1.181,-0.528 c -0.006,-0.359 -0.107,-0.645 -0.302,-0.859 -0.082,-0.088 -0.185,-0.158 -0.308,-0.208 -0.122,-0.05 -0.269,-0.076 -0.438,-0.076 -0.183,0 -0.344,0.035 -0.481,0.104 -0.139,0.069 -0.252,0.161 -0.34,0.274 -0.089,0.107 -0.151,0.22 -0.189,0.34 -0.038,0.12 -0.06,0.261 -0.066,0.425 l 2.124,0 z" /><path
           style="fill:#ffffff"
           inkscape:connector-curvature="0"
           id="path41"
           d="m 268.272,34.44 c -0.145,-0.031 -0.28,-0.047 -0.406,-0.047 -0.415,0 -0.73,0.132 -0.944,0.396 -0.214,0.264 -0.32,0.595 -0.32,0.991 l 0,2.474 -1.19,0 0,-4.91 1.001,0 0.104,0.736 c 0.113,-0.283 0.3,-0.488 0.562,-0.614 0.261,-0.125 0.536,-0.188 0.826,-0.188 0.119,0 0.242,0.009 0.368,0.028 l 0,1.134 z" /><path
           style="fill:#ffffff"
           inkscape:connector-curvature="0"
           id="path43"
           d="m 270.784,38.246 c -0.119,0.025 -0.206,0.042 -0.26,0.052 -0.054,0.01 -0.14,0.014 -0.26,0.014 -0.402,0 -0.727,-0.104 -0.973,-0.312 -0.245,-0.208 -0.368,-0.544 -0.368,-1.01 l 0,-5.562 1.19,0 0,5.364 c 0,0.145 0.028,0.259 0.085,0.344 0.057,0.085 0.186,0.127 0.387,0.127 0.051,0 0.088,-10e-4 0.113,-0.004 0.025,-0.003 0.054,-0.005 0.085,-0.005 l 0,0.992 z" /><path
           style="fill:#ffffff"
           inkscape:connector-curvature="0"
           id="path45"
           d="m 275.892,38.198 c -0.101,0.044 -0.187,0.077 -0.26,0.099 -0.072,0.022 -0.181,0.033 -0.325,0.033 -0.258,0 -0.457,-0.069 -0.595,-0.208 -0.139,-0.138 -0.218,-0.299 -0.236,-0.481 -0.113,0.202 -0.302,0.375 -0.566,0.52 -0.265,0.145 -0.573,0.217 -0.926,0.217 -0.296,0 -0.554,-0.042 -0.774,-0.127 -0.22,-0.085 -0.404,-0.198 -0.552,-0.34 -0.148,-0.142 -0.26,-0.305 -0.336,-0.491 -0.075,-0.186 -0.113,-0.379 -0.113,-0.581 0,-0.233 0.043,-0.44 0.128,-0.623 0.085,-0.183 0.203,-0.34 0.354,-0.472 0.15,-0.132 0.327,-0.234 0.528,-0.307 0.201,-0.072 0.419,-0.118 0.651,-0.137 l 1.445,-0.104 0,-0.302 c 0,-0.232 -0.056,-0.42 -0.166,-0.562 -0.109,-0.142 -0.332,-0.212 -0.665,-0.212 -0.277,0 -0.493,0.06 -0.647,0.179 -0.154,0.119 -0.237,0.293 -0.25,0.52 l -1.143,0 c 0.019,-0.277 0.084,-0.516 0.193,-0.718 0.11,-0.201 0.257,-0.367 0.439,-0.496 0.182,-0.129 0.394,-0.225 0.633,-0.288 0.239,-0.063 0.497,-0.094 0.774,-0.094 0.422,0 0.798,0.074 1.128,0.222 0.331,0.148 0.568,0.408 0.713,0.779 0.063,0.158 0.103,0.321 0.118,0.491 0.015,0.17 0.023,0.337 0.023,0.5 l 0,1.822 c 0,0.113 0.021,0.194 0.062,0.241 0.041,0.047 0.112,0.071 0.213,0.071 0.05,0 0.085,-0.003 0.104,-0.009 0.019,0 0.034,-0.003 0.047,-0.009 l 0,0.867 z m -1.577,-2.124 -1.247,0.094 c -0.183,0.013 -0.346,0.073 -0.491,0.18 -0.145,0.107 -0.217,0.261 -0.217,0.462 0,0.189 0.071,0.338 0.213,0.449 0.142,0.11 0.304,0.165 0.486,0.165 0.371,0 0.673,-0.096 0.906,-0.288 0.232,-0.192 0.35,-0.47 0.35,-0.835 l 0,-0.227 z" /><path
           style="fill:#ffffff"
           inkscape:connector-curvature="0"
           id="path47"
           d="m 279.735,38.255 0,-3.012 c 0,-0.29 -0.057,-0.516 -0.17,-0.68 -0.113,-0.164 -0.327,-0.246 -0.643,-0.246 -0.207,0 -0.381,0.058 -0.519,0.175 -0.139,0.116 -0.249,0.266 -0.331,0.448 -0.082,0.182 -0.129,0.395 -0.142,0.638 -0.013,0.242 -0.019,0.467 -0.019,0.675 l 0,2.002 -1.181,0 0,-4.91 0.991,0 0.086,0.633 c 0.145,-0.258 0.351,-0.449 0.618,-0.571 0.268,-0.123 0.543,-0.184 0.826,-0.184 0.265,0 0.499,0.044 0.703,0.132 0.205,0.088 0.378,0.209 0.52,0.364 0.142,0.155 0.25,0.34 0.326,0.557 0.075,0.217 0.113,0.452 0.113,0.704 l 0,3.276 -1.178,0 z" /><path
           style="fill:#ffffff"
           inkscape:connector-curvature="0"
           id="path49"
           d="m 285.307,38.255 -0.076,-0.538 c -0.145,0.227 -0.343,0.392 -0.595,0.496 -0.252,0.104 -0.513,0.156 -0.783,0.156 -0.246,0 -0.47,-0.038 -0.671,-0.113 -0.201,-0.075 -0.378,-0.176 -0.528,-0.302 -0.296,-0.239 -0.515,-0.54 -0.656,-0.902 -0.142,-0.362 -0.213,-0.775 -0.213,-1.242 0,-0.976 0.293,-1.706 0.878,-2.19 0.151,-0.126 0.326,-0.224 0.524,-0.293 0.198,-0.069 0.423,-0.104 0.675,-0.104 0.315,0 0.581,0.045 0.798,0.137 0.218,0.091 0.38,0.2 0.486,0.326 l 0,-2.247 1.181,0 0,6.817 -1.02,0 z m -0.105,-2.464 c 0,-0.176 -0.014,-0.357 -0.042,-0.543 -0.028,-0.186 -0.084,-0.356 -0.165,-0.51 -0.082,-0.154 -0.195,-0.28 -0.34,-0.377 -0.146,-0.098 -0.334,-0.146 -0.567,-0.146 -0.183,0 -0.338,0.038 -0.467,0.113 -0.129,0.075 -0.238,0.167 -0.326,0.274 -0.126,0.164 -0.209,0.349 -0.25,0.557 -0.041,0.208 -0.062,0.418 -0.062,0.633 0,0.214 0.021,0.426 0.062,0.637 0.041,0.211 0.124,0.398 0.25,0.562 0.088,0.107 0.197,0.198 0.326,0.273 0.129,0.076 0.284,0.114 0.467,0.114 0.233,0 0.422,-0.049 0.567,-0.146 0.145,-0.098 0.258,-0.224 0.34,-0.378 0.081,-0.154 0.137,-0.326 0.165,-0.515 0.028,-0.189 0.042,-0.372 0.042,-0.548 z" /><path
           style="fill:#ffffff"
           inkscape:connector-curvature="0"
           id="path51"
           d="m 291.426,36.734 c 0,0.24 -0.04,0.447 -0.118,0.624 -0.079,0.176 -0.182,0.327 -0.308,0.453 -0.201,0.202 -0.446,0.346 -0.736,0.435 -0.289,0.088 -0.604,0.132 -0.944,0.132 -0.314,0 -0.607,-0.045 -0.878,-0.137 -0.271,-0.092 -0.507,-0.234 -0.708,-0.43 -0.145,-0.138 -0.268,-0.305 -0.368,-0.5 -0.101,-0.195 -0.151,-0.409 -0.151,-0.642 l 1.104,0 c 0,0.107 0.025,0.214 0.076,0.321 0.05,0.107 0.113,0.192 0.188,0.255 0.095,0.075 0.2,0.13 0.316,0.165 0.116,0.035 0.26,0.052 0.43,0.052 0.101,0 0.209,-0.008 0.326,-0.024 0.116,-0.016 0.225,-0.045 0.325,-0.09 0.101,-0.044 0.185,-0.107 0.25,-0.188 0.066,-0.082 0.1,-0.189 0.1,-0.321 0,-0.145 -0.044,-0.261 -0.132,-0.349 -0.089,-0.088 -0.208,-0.145 -0.359,-0.17 -0.221,-0.032 -0.447,-0.058 -0.68,-0.081 -0.233,-0.022 -0.46,-0.058 -0.68,-0.108 -0.17,-0.038 -0.323,-0.098 -0.458,-0.18 -0.136,-0.082 -0.254,-0.181 -0.354,-0.297 -0.101,-0.116 -0.178,-0.246 -0.231,-0.387 -0.053,-0.141 -0.08,-0.291 -0.08,-0.448 0,-0.252 0.047,-0.468 0.142,-0.647 0.095,-0.179 0.214,-0.332 0.359,-0.458 0.182,-0.157 0.399,-0.278 0.651,-0.363 0.252,-0.085 0.531,-0.127 0.84,-0.127 0.296,0 0.581,0.047 0.854,0.142 0.274,0.094 0.502,0.239 0.685,0.434 0.133,0.145 0.238,0.304 0.316,0.477 0.079,0.173 0.118,0.351 0.118,0.533 l -1.123,0 c 0,-0.094 -0.02,-0.179 -0.057,-0.255 -0.038,-0.075 -0.085,-0.145 -0.142,-0.208 -0.069,-0.069 -0.163,-0.125 -0.279,-0.166 -0.116,-0.041 -0.237,-0.061 -0.363,-0.061 -0.088,0 -0.173,0.003 -0.255,0.009 -0.082,0.006 -0.167,0.028 -0.255,0.066 -0.107,0.044 -0.197,0.11 -0.27,0.199 -0.072,0.088 -0.108,0.195 -0.108,0.321 0,0.176 0.062,0.297 0.185,0.364 0.122,0.066 0.25,0.108 0.382,0.127 0.113,0.013 0.208,0.023 0.283,0.033 0.076,0.01 0.151,0.019 0.227,0.028 0.076,0.01 0.154,0.021 0.236,0.033 0.082,0.012 0.183,0.028 0.303,0.047 0.39,0.063 0.711,0.212 0.963,0.448 0.252,0.236 0.378,0.549 0.378,0.939 z" /></g></g><path
       style="color:#000000;font-style:normal;font-variant:normal;font-weight:normal;font-stretch:normal;font-size:medium;line-height:normal;font-family:sans-serif;text-indent:0;text-align:start;text-decoration:none;text-decoration-line:none;text-decoration-style:solid;text-decoration-color:#000000;letter-spacing:normal;word-spacing:normal;text-transform:none;direction:ltr;block-progression:tb;writing-mode:lr-tb;baseline-shift:baseline;text-anchor:start;white-space:normal;clip-rule:nonzero;display:inline;overflow:visible;visibility:visible;opacity:1;isolation:auto;mix-blend-mode:normal;color-interpolation:sRGB;color-interpolation-filters:linearRGB;solid-color:#000000;solid-opacity:1;fill:#ffffff;fill-opacity:1;fill-rule:nonzero;stroke:none;stroke-width:1;stroke-linecap:butt;stroke-linejoin:miter;stroke-miterlimit:4;stroke-dasharray:none;stroke-dashoffset:0;stroke-opacity:1;color-rendering:auto;image-rendering:auto;shape-rendering:auto;text-rendering:auto;enable-background:accumulate"
       d="m 692.38571,-131.52442 c -1.7223,0 -3.11963,1.39733 -3.11963,3.11963 l 0,3.05869 c 0,1.72231 1.39733,3.11963 3.11963,3.11963 l 5.5703,0 c 0.86419,0 1.64481,-0.35251 2.20957,-0.92065 0.36133,0.61097 0.7077,1.24788 1.0253,1.91682 0.63848,1.34476 1.17322,2.74454 1.64791,4.08532 -1.72289,0.97401 -2.89046,2.82109 -2.89046,4.93709 0,1.70411 0.75833,3.23078 1.95258,4.27078 l -5.21395,7.49109 -4.52247,0 c -1.5999,0 -2.89841,1.298506 -2.89841,2.898396 l 0,2.81496 c 0,1.59989 1.29851,2.8984 2.89841,2.8984 l 7.55334,0 c 1.5999,0 2.89841,-1.29851 2.89841,-2.8984 l 0,-2.81496 c 0,-1.59989 -1.29851,-2.898396 -2.89841,-2.898396 l -1.54458,0 4.72647,-6.79033 c 0.80729,0.44288 1.73304,0.69678 2.71693,0.69678 0.32613,0 0.64385,-0.0343 0.9551,-0.0874 0.57511,1.39254 1.2775,2.91389 2.12479,4.50923 -0.98536,0.41304 -1.67838,1.38642 -1.67838,2.520866 l 0,5.02982 c 0,1.50809 1.22474,2.73282 2.73283,2.73282 l 8.74026,0 c 1.50809,0 2.73282,-1.22473 2.73282,-2.73282 l 0,-5.02982 c 0,-1.508086 -1.22473,-2.732816 -2.73282,-2.732816 l -6.58103,0 c -1.12602,-1.92763 -2.02762,-3.77484 -2.75004,-5.46167 1.29386,-1.03981 2.12611,-2.63172 2.12611,-4.4165 0,-3.12533 -2.54431,-5.66964 -5.66964,-5.66964 -0.0246,0 -0.0483,0.004 -0.0729,0.004 -0.55404,-1.63636 -1.21734,-3.4406 -2.03604,-5.16494 -0.69359,-1.46085 -1.49985,-2.83882 -2.43344,-3.99922 l 0,-1.36707 c 0,-1.7223 -1.396,-3.11963 -3.1183,-3.11963 l -5.5703,0 z m 0,0.67824 5.5703,0 c 1.35829,0 2.44006,1.0831 2.44006,2.44139 l 0,3.05869 c 0,1.3583 -1.08177,2.4414 -2.44006,2.4414 l -5.5703,0 c -1.35829,0 -2.44139,-1.0831 -2.44139,-2.4414 l 0,-3.05869 c 0,-1.35829 1.0831,-2.44139 2.44139,-2.44139 z m 8.68463,5.53585 c 0.54939,0.82967 1.06031,1.74202 1.51941,2.70898 0.75667,1.59369 1.38528,3.27829 1.91681,4.83377 -0.25205,0.0503 -0.49498,0.12141 -0.73387,0.204 -0.47681,-1.33831 -1.01677,-2.74256 -1.66248,-4.10255 -0.39831,-0.83893 -0.84175,-1.64103 -1.31541,-2.40297 0.17142,-0.3803 0.27042,-0.79831 0.27554,-1.24123 z m 4.54631,8.3826 c 2.61217,0 4.71985,2.10768 4.71985,4.71984 0,2.61217 -2.10768,4.71985 -4.71985,4.71985 -2.61217,0 -4.71852,-2.10768 -4.71852,-4.71985 0,-2.61216 2.10635,-4.71984 4.71852,-4.71984 z m 2.68513,9.7086 c 0.65707,1.51939 1.45846,3.16968 2.43345,4.88941 l -0.98424,0 c -0.003,0 -0.006,10e-4 -0.009,10e-4 -0.86732,-1.60987 -1.58524,-3.1498 -2.1738,-4.56486 0.25273,-0.0931 0.49941,-0.19922 0.73387,-0.32587 z m 1.44921,5.56764 8.74026,0 c 1.14408,0 2.05458,0.91051 2.05458,2.054586 l 0,5.02982 c 0,1.14408 -0.9105,2.05459 -2.05458,2.05459 l -8.74026,0 c -1.14408,0 -2.05459,-0.91051 -2.05459,-2.05459 l 0,-5.02982 c 0,-1.144076 0.91051,-2.054586 2.05459,-2.054586 z m -17.5865,1.883697 7.55334,0 c 1.23588,0 2.22017,0.984289 2.22017,2.220169 l 0,2.81496 c 0,1.23588 -0.98429,2.22017 -2.22017,2.22017 l -7.55334,0 c -1.23588,0 -2.22017,-0.98429 -2.22017,-2.22017 l 0,-2.81496 c 0,-1.23588 0.98429,-2.220169 2.22017,-2.220169 z"
       id="rect4142-8-1"
       inkscape:connector-curvature="0" /><path
       style="fill:#ffffff;fill-rule:evenodd;stroke:#ffffff;stroke-width:0.92901814px;stroke-linecap:butt;stroke-linejoin:miter;stroke-opacity:1"
       d="m 727.41864,-134.87876 0,47.079618"
       id="path5244"
       inkscape:connector-curvature="0" /></g></svg>