<?xml version="1.0" encoding="UTF-8" standalone="no"?>
<!DOCTYPE svg PUBLIC "-//W3C//DTD SVG 1.1//EN"
 "http://www.w3.org/Graphics/SVG/1.1/DTD/svg11.dtd">
<!-- Generated by graphviz version 2.38.0 (20140413.2041)
 -->
<!-- Title: %3 Pages: 1 -->
<svg width="1338pt" height="511pt"
 viewBox="0.00 0.00 1337.63 510.70" xmlns="http://www.w3.org/2000/svg" xmlns:xlink="http://www.w3.org/1999/xlink">
<g id="graph0" class="graph" transform="scale(1 1) rotate(0) translate(8.3324 506.57)">
<title>%3</title>
<polygon fill="white" stroke="none" points="-8.3324,4.13 -8.3324,-506.57 1329.3,-506.57 1329.3,4.13 -8.3324,4.13"/>
<!-- 139938592870912 -->
<g id="node1" class="node"><title>139938592870912</title>
<ellipse fill="none" stroke="black" cx="659.79" cy="-26.87" rx="31" ry="27"/>
<text text-anchor="middle" x="659.79" y="-30.67" font-family="Times,serif" font-size="14.00">sum </text>
<text text-anchor="middle" x="659.79" y="-15.67" font-family="Times,serif" font-size="14.00"> (―)</text>
</g>
<!-- 139938592702400 -->
<g id="node2" class="node"><title>139938592702400</title>
<ellipse fill="none" stroke="black" cx="471.79" cy="-206.35" rx="46" ry="27"/>
<text text-anchor="middle" x="471.79" y="-210.15" font-family="Times,serif" font-size="14.00">mul </text>
<text text-anchor="middle" x="471.79" y="-195.15" font-family="Times,serif" font-size="14.00"> (―, ―)</text>
</g>
<!-- 139938592870824 -->
<g id="node3" class="node"><title>139938592870824</title>
<ellipse fill="none" stroke="black" cx="659.79" cy="-116.61" rx="39" ry="27"/>
<text text-anchor="middle" x="659.79" y="-120.41" font-family="Times,serif" font-size="14.00">binder </text>
<text text-anchor="middle" x="659.79" y="-105.41" font-family="Times,serif" font-size="14.00"> (…)</text>
</g>
<!-- 139938592702400&#45;&gt;139938592870824 -->
<g id="edge1" class="edge"><title>139938592702400&#45;&gt;139938592870824</title>
<path fill="none" stroke="black" d="M507.15,-188.85C538.81,-174.07 585.24,-152.4 618.57,-136.85"/>
<polygon fill="black" stroke="black" points="620.452,-139.834 628.03,-132.43 617.489,-133.492 620.452,-139.834"/>
</g>
<!-- 139938592870824&#45;&gt;139938592870912 -->
<g id="edge2" class="edge"><title>139938592870824&#45;&gt;139938592870912</title>
<path fill="none" stroke="black" d="M659.79,-89.285C659.79,-81.319 659.79,-72.428 659.79,-63.939"/>
<polygon fill="black" stroke="black" points="663.29,-63.874 659.79,-53.874 656.29,-63.874 663.29,-63.874"/>
</g>
<!-- 139938592701960 -->
<g id="node4" class="node"><title>139938592701960</title>
<ellipse fill="none" stroke="black" cx="333.79" cy="-296.09" rx="41" ry="27"/>
<text text-anchor="middle" x="333.79" y="-299.89" font-family="Times,serif" font-size="14.00">min </text>
<text text-anchor="middle" x="333.79" y="-284.89" font-family="Times,serif" font-size="14.00"> (5, ―)</text>
</g>
<!-- 139938592702048 -->
<g id="node5" class="node"><title>139938592702048</title>
<ellipse fill="none" stroke="black" cx="333.79" cy="-206.35" rx="46" ry="27"/>
<text text-anchor="middle" x="333.79" y="-210.15" font-family="Times,serif" font-size="14.00">mul </text>
<text text-anchor="middle" x="333.79" y="-195.15" font-family="Times,serif" font-size="14.00"> (―, ―)</text>
</g>
<!-- 139938592701960&#45;&gt;139938592702048 -->
<g id="edge3" class="edge"><title>139938592701960&#45;&gt;139938592702048</title>
<path fill="none" stroke="black" d="M333.79,-268.77C333.79,-260.8 333.79,-251.91 333.79,-243.42"/>
<polygon fill="black" stroke="black" points="337.29,-243.35 333.79,-233.35 330.29,-243.35 337.29,-243.35"/>
</g>
<!-- 139938592702048&#45;&gt;139938592870824 -->
<g id="edge4" class="edge"><title>139938592702048&#45;&gt;139938592870824</title>
<path fill="none" stroke="black" d="M373.35,-192.55C387.06,-188.24 402.56,-183.51 416.79,-179.48 484.84,-160.23 564.37,-140.5 613.42,-128.65"/>
<polygon fill="black" stroke="black" points="614.501,-131.99 623.4,-126.24 612.858,-125.185 614.501,-131.99"/>
</g>
<!-- 139938592870560 -->
<g id="node6" class="node"><title>139938592870560</title>
<ellipse fill="none" stroke="black" cx="604.79" cy="-206.35" rx="46" ry="27"/>
<text text-anchor="middle" x="604.79" y="-210.15" font-family="Times,serif" font-size="14.00">mul </text>
<text text-anchor="middle" x="604.79" y="-195.15" font-family="Times,serif" font-size="14.00"> (―, ―)</text>
</g>
<!-- 139938592870560&#45;&gt;139938592870824 -->
<g id="edge5" class="edge"><title>139938592870560&#45;&gt;139938592870824</title>
<path fill="none" stroke="black" d="M620.11,-180.91C626.06,-171.42 632.96,-160.41 639.33,-150.26"/>
<polygon fill="black" stroke="black" points="642.399,-151.953 644.74,-141.62 636.466,-148.238 642.399,-151.953"/>
</g>
<!-- 139938592870736 -->
<g id="node7" class="node"><title>139938592870736</title>
<ellipse fill="none" stroke="black" cx="57.793" cy="-206.35" rx="46" ry="27"/>
<text text-anchor="middle" x="57.793" y="-210.15" font-family="Times,serif" font-size="14.00">mul </text>
<text text-anchor="middle" x="57.793" y="-195.15" font-family="Times,serif" font-size="14.00"> (―, ―)</text>
</g>
<!-- 139938592870736&#45;&gt;139938592870824 -->
<g id="edge6" class="edge"><title>139938592870736&#45;&gt;139938592870824</title>
<path fill="none" stroke="black" d="M96.666,-191.62C110.46,-187.18 126.18,-182.6 140.79,-179.48 311.26,-143.08 518.13,-126.47 610.79,-120.45"/>
<polygon fill="black" stroke="black" points="611.223,-123.93 620.98,-119.8 610.777,-116.944 611.223,-123.93"/>
</g>
<!-- 139938592701080 -->
<g id="node8" class="node"><title>139938592701080</title>
<ellipse fill="none" stroke="black" cx="195.79" cy="-296.09" rx="41" ry="27"/>
<text text-anchor="middle" x="195.79" y="-299.89" font-family="Times,serif" font-size="14.00">min </text>
<text text-anchor="middle" x="195.79" y="-284.89" font-family="Times,serif" font-size="14.00"> (0, ―)</text>
</g>
<!-- 139938592701168 -->
<g id="node9" class="node"><title>139938592701168</title>
<ellipse fill="none" stroke="black" cx="195.79" cy="-206.35" rx="46" ry="27"/>
<text text-anchor="middle" x="195.79" y="-210.15" font-family="Times,serif" font-size="14.00">mul </text>
<text text-anchor="middle" x="195.79" y="-195.15" font-family="Times,serif" font-size="14.00"> (―, ―)</text>
</g>
<!-- 139938592701080&#45;&gt;139938592701168 -->
<g id="edge7" class="edge"><title>139938592701080&#45;&gt;139938592701168</title>
<path fill="none" stroke="black" d="M195.79,-268.77C195.79,-260.8 195.79,-251.91 195.79,-243.42"/>
<polygon fill="black" stroke="black" points="199.29,-243.35 195.79,-233.35 192.29,-243.35 199.29,-243.35"/>
</g>
<!-- 139938592701168&#45;&gt;139938592870824 -->
<g id="edge8" class="edge"><title>139938592701168&#45;&gt;139938592870824</title>
<path fill="none" stroke="black" d="M234.74,-191.96C248.54,-187.56 264.25,-182.91 278.79,-179.48 396.91,-151.63 538.57,-132.22 611.36,-123.25"/>
<polygon fill="black" stroke="black" points="612.088,-126.687 621.59,-122 611.239,-119.739 612.088,-126.687"/>
</g>
<!-- 139938592700992 -->
<g id="node10" class="node"><title>139938592700992</title>
<ellipse fill="none" stroke="black" cx="659.79" cy="-385.83" rx="46" ry="27"/>
<text text-anchor="middle" x="659.79" y="-389.63" font-family="Times,serif" font-size="14.00">add </text>
<text text-anchor="middle" x="659.79" y="-374.63" font-family="Times,serif" font-size="14.00"> (41, ―)</text>
</g>
<!-- 139938592700992&#45;&gt;139938592701960 -->
<g id="edge9" class="edge"><title>139938592700992&#45;&gt;139938592701960</title>
<path fill="none" stroke="black" d="M617.98,-374.39C570.37,-362.4 490.3,-341.93 421.79,-322.96 408.34,-319.24 393.78,-315.03 380.45,-311.11"/>
<polygon fill="black" stroke="black" points="381.122,-307.659 370.54,-308.17 379.132,-314.37 381.122,-307.659"/>
</g>
<!-- 139938592700992&#45;&gt;139938592701080 -->
<g id="edge10" class="edge"><title>139938592700992&#45;&gt;139938592701080</title>
<path fill="none" stroke="black" d="M615.17,-379.29C544.4,-370.11 402.3,-350.02 283.79,-322.96 270.18,-319.85 255.58,-315.84 242.25,-311.91"/>
<polygon fill="black" stroke="black" points="242.934,-308.461 232.35,-308.93 240.917,-315.164 242.934,-308.461"/>
</g>
<!-- 139938592701608 -->
<g id="node11" class="node"><title>139938592701608</title>
<ellipse fill="none" stroke="black" cx="985.79" cy="-296.09" rx="41" ry="27"/>
<text text-anchor="middle" x="985.79" y="-299.89" font-family="Times,serif" font-size="14.00">min </text>
<text text-anchor="middle" x="985.79" y="-284.89" font-family="Times,serif" font-size="14.00"> (3, ―)</text>
</g>
<!-- 139938592700992&#45;&gt;139938592701608 -->
<g id="edge11" class="edge"><title>139938592700992&#45;&gt;139938592701608</title>
<path fill="none" stroke="black" d="M701.6,-374.39C749.22,-362.4 829.29,-341.93 897.79,-322.96 911.25,-319.24 925.8,-315.03 939.13,-311.11"/>
<polygon fill="black" stroke="black" points="940.457,-314.367 949.05,-308.17 938.468,-307.656 940.457,-314.367"/>
</g>
<!-- 139938592870648 -->
<g id="node12" class="node"><title>139938592870648</title>
<ellipse fill="none" stroke="black" cx="57.793" cy="-296.09" rx="41" ry="27"/>
<text text-anchor="middle" x="57.793" y="-299.89" font-family="Times,serif" font-size="14.00">min </text>
<text text-anchor="middle" x="57.793" y="-284.89" font-family="Times,serif" font-size="14.00"> (9, ―)</text>
</g>
<!-- 139938592700992&#45;&gt;139938592870648 -->
<g id="edge12" class="edge"><title>139938592700992&#45;&gt;139938592870648</title>
<path fill="none" stroke="black" d="M614,-381.88C523.7,-375.51 316.58,-358.09 145.79,-322.96 132,-320.12 117.23,-316.16 103.81,-312.18"/>
<polygon fill="black" stroke="black" points="104.428,-308.71 93.843,-309.16 102.398,-315.409 104.428,-308.71"/>
</g>
<!-- 139938592702312 -->
<g id="node13" class="node"><title>139938592702312</title>
<ellipse fill="none" stroke="black" cx="471.79" cy="-296.09" rx="41" ry="27"/>
<text text-anchor="middle" x="471.79" y="-299.89" font-family="Times,serif" font-size="14.00">min </text>
<text text-anchor="middle" x="471.79" y="-284.89" font-family="Times,serif" font-size="14.00"> (7, ―)</text>
</g>
<!-- 139938592700992&#45;&gt;139938592702312 -->
<g id="edge13" class="edge"><title>139938592700992&#45;&gt;139938592702312</title>
<path fill="none" stroke="black" d="M624.43,-368.33C593.07,-353.69 547.2,-332.28 513.93,-316.76"/>
<polygon fill="black" stroke="black" points="515.022,-313.407 504.48,-312.35 512.062,-319.751 515.022,-313.407"/>
</g>
<!-- 139938592702136 -->
<g id="node14" class="node"><title>139938592702136</title>
<ellipse fill="none" stroke="black" cx="1261.8" cy="-296.09" rx="41" ry="27"/>
<text text-anchor="middle" x="1261.8" y="-299.89" font-family="Times,serif" font-size="14.00">min </text>
<text text-anchor="middle" x="1261.8" y="-284.89" font-family="Times,serif" font-size="14.00"> (6, ―)</text>
</g>
<!-- 139938592700992&#45;&gt;139938592702136 -->
<g id="edge14" class="edge"><title>139938592700992&#45;&gt;139938592702136</title>
<path fill="none" stroke="black" d="M705.58,-381.88C795.89,-375.51 1003,-358.09 1173.8,-322.96 1187.6,-320.12 1202.4,-316.16 1215.8,-312.18"/>
<polygon fill="black" stroke="black" points="1217.16,-315.426 1225.7,-309.16 1215.11,-308.73 1217.16,-315.426"/>
</g>
<!-- 139938592701784 -->
<g id="node15" class="node"><title>139938592701784</title>
<ellipse fill="none" stroke="black" cx="847.79" cy="-296.09" rx="41" ry="27"/>
<text text-anchor="middle" x="847.79" y="-299.89" font-family="Times,serif" font-size="14.00">min </text>
<text text-anchor="middle" x="847.79" y="-284.89" font-family="Times,serif" font-size="14.00"> (4, ―)</text>
</g>
<!-- 139938592700992&#45;&gt;139938592701784 -->
<g id="edge15" class="edge"><title>139938592700992&#45;&gt;139938592701784</title>
<path fill="none" stroke="black" d="M695.15,-368.33C726.52,-353.69 772.39,-332.28 805.65,-316.76"/>
<polygon fill="black" stroke="black" points="807.525,-319.747 815.11,-312.35 804.568,-313.403 807.525,-319.747"/>
</g>
<!-- 139938592870472 -->
<g id="node16" class="node"><title>139938592870472</title>
<ellipse fill="none" stroke="black" cx="609.79" cy="-296.09" rx="41" ry="27"/>
<text text-anchor="middle" x="609.79" y="-299.89" font-family="Times,serif" font-size="14.00">min </text>
<text text-anchor="middle" x="609.79" y="-284.89" font-family="Times,serif" font-size="14.00"> (8, ―)</text>
</g>
<!-- 139938592700992&#45;&gt;139938592870472 -->
<g id="edge16" class="edge"><title>139938592700992&#45;&gt;139938592870472</title>
<path fill="none" stroke="black" d="M645.6,-359.92C640.34,-350.69 634.29,-340.07 628.67,-330.22"/>
<polygon fill="black" stroke="black" points="631.667,-328.411 623.68,-321.45 625.583,-331.872 631.667,-328.411"/>
</g>
<!-- 139938592701432 -->
<g id="node17" class="node"><title>139938592701432</title>
<ellipse fill="none" stroke="black" cx="709.79" cy="-296.09" rx="41" ry="27"/>
<text text-anchor="middle" x="709.79" y="-299.89" font-family="Times,serif" font-size="14.00">min </text>
<text text-anchor="middle" x="709.79" y="-284.89" font-family="Times,serif" font-size="14.00"> (2, ―)</text>
</g>
<!-- 139938592700992&#45;&gt;139938592701432 -->
<g id="edge17" class="edge"><title>139938592700992&#45;&gt;139938592701432</title>
<path fill="none" stroke="black" d="M673.99,-359.92C679.25,-350.69 685.3,-340.07 690.91,-330.22"/>
<polygon fill="black" stroke="black" points="693.998,-331.871 695.91,-321.45 687.917,-328.404 693.998,-331.871"/>
</g>
<!-- 139938592701256 -->
<g id="node18" class="node"><title>139938592701256</title>
<ellipse fill="none" stroke="black" cx="1123.8" cy="-296.09" rx="41" ry="27"/>
<text text-anchor="middle" x="1123.8" y="-299.89" font-family="Times,serif" font-size="14.00">min </text>
<text text-anchor="middle" x="1123.8" y="-284.89" font-family="Times,serif" font-size="14.00"> (1, ―)</text>
</g>
<!-- 139938592700992&#45;&gt;139938592701256 -->
<g id="edge18" class="edge"><title>139938592700992&#45;&gt;139938592701256</title>
<path fill="none" stroke="black" d="M704.42,-379.29C775.18,-370.11 917.28,-350.02 1035.8,-322.96 1049.4,-319.85 1064,-315.84 1077.3,-311.91"/>
<polygon fill="black" stroke="black" points="1078.63,-315.164 1087.2,-308.93 1076.62,-308.461 1078.63,-315.164"/>
</g>
<!-- 139938592701696 -->
<g id="node19" class="node"><title>139938592701696</title>
<ellipse fill="none" stroke="black" cx="985.79" cy="-206.35" rx="46" ry="27"/>
<text text-anchor="middle" x="985.79" y="-210.15" font-family="Times,serif" font-size="14.00">mul </text>
<text text-anchor="middle" x="985.79" y="-195.15" font-family="Times,serif" font-size="14.00"> (―, ―)</text>
</g>
<!-- 139938592701608&#45;&gt;139938592701696 -->
<g id="edge19" class="edge"><title>139938592701608&#45;&gt;139938592701696</title>
<path fill="none" stroke="black" d="M985.79,-268.77C985.79,-260.8 985.79,-251.91 985.79,-243.42"/>
<polygon fill="black" stroke="black" points="989.29,-243.35 985.79,-233.35 982.29,-243.35 989.29,-243.35"/>
</g>
<!-- 139938592870648&#45;&gt;139938592870736 -->
<g id="edge20" class="edge"><title>139938592870648&#45;&gt;139938592870736</title>
<path fill="none" stroke="black" d="M57.793,-268.77C57.793,-260.8 57.793,-251.91 57.793,-243.42"/>
<polygon fill="black" stroke="black" points="61.2931,-243.35 57.793,-233.35 54.2931,-243.35 61.2931,-243.35"/>
</g>
<!-- 139938592702312&#45;&gt;139938592702400 -->
<g id="edge21" class="edge"><title>139938592702312&#45;&gt;139938592702400</title>
<path fill="none" stroke="black" d="M471.79,-268.77C471.79,-260.8 471.79,-251.91 471.79,-243.42"/>
<polygon fill="black" stroke="black" points="475.29,-243.35 471.79,-233.35 468.29,-243.35 475.29,-243.35"/>
</g>
<!-- 139938592702224 -->
<g id="node20" class="node"><title>139938592702224</title>
<ellipse fill="none" stroke="black" cx="1261.8" cy="-206.35" rx="46" ry="27"/>
<text text-anchor="middle" x="1261.8" y="-210.15" font-family="Times,serif" font-size="14.00">mul </text>
<text text-anchor="middle" x="1261.8" y="-195.15" font-family="Times,serif" font-size="14.00"> (―, ―)</text>
</g>
<!-- 139938592702136&#45;&gt;139938592702224 -->
<g id="edge22" class="edge"><title>139938592702136&#45;&gt;139938592702224</title>
<path fill="none" stroke="black" d="M1261.8,-268.77C1261.8,-260.8 1261.8,-251.91 1261.8,-243.42"/>
<polygon fill="black" stroke="black" points="1265.3,-243.35 1261.8,-233.35 1258.3,-243.35 1265.3,-243.35"/>
</g>
<!-- 139938592701872 -->
<g id="node21" class="node"><title>139938592701872</title>
<ellipse fill="none" stroke="black" cx="847.79" cy="-206.35" rx="46" ry="27"/>
<text text-anchor="middle" x="847.79" y="-210.15" font-family="Times,serif" font-size="14.00">mul </text>
<text text-anchor="middle" x="847.79" y="-195.15" font-family="Times,serif" font-size="14.00"> (―, ―)</text>
</g>
<!-- 139938592701784&#45;&gt;139938592701872 -->
<g id="edge23" class="edge"><title>139938592701784&#45;&gt;139938592701872</title>
<path fill="none" stroke="black" d="M847.79,-268.77C847.79,-260.8 847.79,-251.91 847.79,-243.42"/>
<polygon fill="black" stroke="black" points="851.29,-243.35 847.79,-233.35 844.29,-243.35 851.29,-243.35"/>
</g>
<!-- 139938592870472&#45;&gt;139938592870560 -->
<g id="edge24" class="edge"><title>139938592870472&#45;&gt;139938592870560</title>
<path fill="none" stroke="black" d="M608.29,-268.77C607.84,-260.8 607.33,-251.91 606.85,-243.42"/>
<polygon fill="black" stroke="black" points="610.339,-243.132 606.27,-233.35 603.351,-243.535 610.339,-243.132"/>
</g>
<!-- 139938592701520 -->
<g id="node22" class="node"><title>139938592701520</title>
<ellipse fill="none" stroke="black" cx="714.79" cy="-206.35" rx="46" ry="27"/>
<text text-anchor="middle" x="714.79" y="-210.15" font-family="Times,serif" font-size="14.00">mul </text>
<text text-anchor="middle" x="714.79" y="-195.15" font-family="Times,serif" font-size="14.00"> (―, ―)</text>
</g>
<!-- 139938592701432&#45;&gt;139938592701520 -->
<g id="edge25" class="edge"><title>139938592701432&#45;&gt;139938592701520</title>
<path fill="none" stroke="black" d="M711.29,-268.77C711.75,-260.8 712.25,-251.91 712.74,-243.42"/>
<polygon fill="black" stroke="black" points="716.239,-243.532 713.31,-233.35 709.25,-243.136 716.239,-243.532"/>
</g>
<!-- 139938592701344 -->
<g id="node23" class="node"><title>139938592701344</title>
<ellipse fill="none" stroke="black" cx="1123.8" cy="-206.35" rx="46" ry="27"/>
<text text-anchor="middle" x="1123.8" y="-210.15" font-family="Times,serif" font-size="14.00">mul </text>
<text text-anchor="middle" x="1123.8" y="-195.15" font-family="Times,serif" font-size="14.00"> (―, ―)</text>
</g>
<!-- 139938592701256&#45;&gt;139938592701344 -->
<g id="edge26" class="edge"><title>139938592701256&#45;&gt;139938592701344</title>
<path fill="none" stroke="black" d="M1123.8,-268.77C1123.8,-260.8 1123.8,-251.91 1123.8,-243.42"/>
<polygon fill="black" stroke="black" points="1127.3,-243.35 1123.8,-233.35 1120.3,-243.35 1127.3,-243.35"/>
</g>
<!-- 139938592701696&#45;&gt;139938592870824 -->
<g id="edge27" class="edge"><title>139938592701696&#45;&gt;139938592870824</title>
<path fill="none" stroke="black" d="M946.23,-192.55C932.52,-188.24 917.03,-183.51 902.79,-179.48 834.75,-160.23 755.21,-140.5 706.17,-128.65"/>
<polygon fill="black" stroke="black" points="706.722,-125.183 696.18,-126.24 705.08,-131.988 706.722,-125.183"/>
</g>
<!-- 139938592702224&#45;&gt;139938592870824 -->
<g id="edge28" class="edge"><title>139938592702224&#45;&gt;139938592870824</title>
<path fill="none" stroke="black" d="M1222.9,-191.62C1209.1,-187.18 1193.4,-182.6 1178.8,-179.48 1008.3,-143.08 801.46,-126.47 708.8,-120.45"/>
<polygon fill="black" stroke="black" points="708.802,-116.943 698.6,-119.8 708.357,-123.929 708.802,-116.943"/>
</g>
<!-- 139938592701872&#45;&gt;139938592870824 -->
<g id="edge29" class="edge"><title>139938592701872&#45;&gt;139938592870824</title>
<path fill="none" stroke="black" d="M812.43,-188.85C780.77,-174.07 734.35,-152.4 701.01,-136.85"/>
<polygon fill="black" stroke="black" points="702.091,-133.492 691.55,-132.43 699.128,-139.834 702.091,-133.492"/>
</g>
<!-- 139938592701520&#45;&gt;139938592870824 -->
<g id="edge30" class="edge"><title>139938592701520&#45;&gt;139938592870824</title>
<path fill="none" stroke="black" d="M699.47,-180.91C693.52,-171.42 686.62,-160.41 680.26,-150.26"/>
<polygon fill="black" stroke="black" points="683.119,-148.231 674.84,-141.62 677.189,-151.951 683.119,-148.231"/>
</g>
<!-- 139938592701344&#45;&gt;139938592870824 -->
<g id="edge31" class="edge"><title>139938592701344&#45;&gt;139938592870824</title>
<path fill="none" stroke="black" d="M1084.8,-191.96C1071,-187.56 1055.3,-182.91 1040.8,-179.48 922.68,-151.63 781.01,-132.22 708.22,-123.25"/>
<polygon fill="black" stroke="black" points="708.351,-119.74 698,-122 707.501,-126.688 708.351,-119.74"/>
</g>
<!-- 139938592700904 -->
<g id="node24" class="node"><title>139938592700904</title>
<ellipse fill="none" stroke="black" cx="659.79" cy="-475.57" rx="45.5" ry="27"/>
<text text-anchor="middle" x="659.79" y="-479.37" font-family="Times,serif" font-size="14.00">add </text>
<text text-anchor="middle" x="659.79" y="-464.37" font-family="Times,serif" font-size="14.00"> (42, 43)</text>
</g>
<!-- 139938592700904&#45;&gt;139938592702400 -->
<g id="edge32" class="edge"><title>139938592700904&#45;&gt;139938592702400</title>
<path fill="none" stroke="black" d="M619.6,-462.54C563.53,-443.33 463.97,-399.84 421.79,-322.96 410.3,-302.02 413.83,-291.74 421.79,-269.22 425.93,-257.52 433.32,-246.41 441.17,-236.92"/>
<polygon fill="black" stroke="black" points="443.85,-239.173 447.82,-229.35 438.591,-234.553 443.85,-239.173"/>
</g>
<!-- 139938592700904&#45;&gt;139938592702048 -->
<g id="edge33" class="edge"><title>139938592700904&#45;&gt;139938592702048</title>
<path fill="none" stroke="black" d="M614.48,-472.81C530.29,-466.73 352.11,-439.97 283.79,-322.96 271.75,-302.33 275.83,-291.74 283.79,-269.22 287.93,-257.52 295.32,-246.41 303.17,-236.92"/>
<polygon fill="black" stroke="black" points="305.85,-239.173 309.82,-229.35 300.591,-234.553 305.85,-239.173"/>
</g>
<!-- 139938592700904&#45;&gt;139938592870560 -->
<g id="edge34" class="edge"><title>139938592700904&#45;&gt;139938592870560</title>
<path fill="none" stroke="black" d="M637.25,-451.91C611.72,-424.28 572.07,-374.82 559.79,-322.96 554.29,-299.72 552.41,-291.93 559.79,-269.22 563.38,-258.2 569.75,-247.5 576.59,-238.18"/>
<polygon fill="black" stroke="black" points="579.543,-240.085 582.94,-230.05 574.026,-235.777 579.543,-240.085"/>
</g>
<!-- 139938592700904&#45;&gt;139938592870736 -->
<g id="edge35" class="edge"><title>139938592700904&#45;&gt;139938592870736</title>
<path fill="none" stroke="black" d="M614.3,-474.52C526.24,-473.18 327.3,-464.15 169.79,-412.7 91.552,-387.14 49.577,-393.87 7.7928,-322.96 -4.3324,-302.38 -0.1689,-291.74 7.7928,-269.22 11.929,-257.52 19.32,-246.41 27.172,-236.92"/>
<polygon fill="black" stroke="black" points="29.8498,-239.175 33.815,-229.35 24.5884,-234.558 29.8498,-239.175"/>
</g>
<!-- 139938592700904&#45;&gt;139938592701168 -->
<g id="edge36" class="edge"><title>139938592700904&#45;&gt;139938592701168</title>
<path fill="none" stroke="black" d="M614.97,-471.46C546.89,-465.7 414.11,-450.3 307.79,-412.7 230.19,-385.26 187.58,-393.87 145.79,-322.96 133.67,-302.38 137.83,-291.74 145.79,-269.22 149.93,-257.52 157.32,-246.41 165.17,-236.92"/>
<polygon fill="black" stroke="black" points="167.85,-239.173 171.82,-229.35 162.591,-234.553 167.85,-239.173"/>
</g>
<!-- 139938592700904&#45;&gt;139938592700992 -->
<g id="edge37" class="edge"><title>139938592700904&#45;&gt;139938592700992</title>
<path fill="none" stroke="black" d="M659.79,-448.25C659.79,-440.28 659.79,-431.39 659.79,-422.9"/>
<polygon fill="black" stroke="black" points="663.29,-422.83 659.79,-412.83 656.29,-422.83 663.29,-422.83"/>
</g>
<!-- 139938592700904&#45;&gt;139938592701696 -->
<g id="edge38" class="edge"><title>139938592700904&#45;&gt;139938592701696</title>
<path fill="none" stroke="black" d="M704.91,-472.47C788.34,-465.81 964.72,-438.1 1035.8,-322.96 1048.3,-302.64 1043.8,-291.74 1035.8,-269.22 1031.7,-257.52 1024.3,-246.41 1016.4,-236.92"/>
<polygon fill="black" stroke="black" points="1019.01,-234.587 1009.8,-229.35 1013.73,-239.188 1019.01,-234.587"/>
</g>
<!-- 139938592700904&#45;&gt;139938592702224 -->
<g id="edge39" class="edge"><title>139938592700904&#45;&gt;139938592702224</title>
<path fill="none" stroke="black" d="M704.78,-471.67C840.69,-461.84 1242.1,-424.52 1311.8,-322.96 1325.3,-303.27 1319.8,-291.74 1311.8,-269.22 1307.7,-257.52 1300.3,-246.41 1292.4,-236.92"/>
<polygon fill="black" stroke="black" points="1295.01,-234.587 1285.8,-229.35 1289.73,-239.188 1295.01,-234.587"/>
</g>
<!-- 139938592700904&#45;&gt;139938592701872 -->
<g id="edge40" class="edge"><title>139938592700904&#45;&gt;139938592701872</title>
<path fill="none" stroke="black" d="M699.99,-462.54C756.06,-443.33 855.61,-399.84 897.79,-322.96 909.28,-302.02 905.75,-291.74 897.79,-269.22 893.66,-257.52 886.27,-246.41 878.41,-236.92"/>
<polygon fill="black" stroke="black" points="880.995,-234.56 871.77,-229.35 875.733,-239.176 880.995,-234.56"/>
</g>
<!-- 139938592700904&#45;&gt;139938592701520 -->
<g id="edge41" class="edge"><title>139938592700904&#45;&gt;139938592701520</title>
<path fill="none" stroke="black" d="M682.34,-451.91C707.87,-424.28 747.52,-374.82 759.79,-322.96 765.29,-299.72 767.18,-291.93 759.79,-269.22 756.21,-258.2 749.84,-247.5 743,-238.18"/>
<polygon fill="black" stroke="black" points="745.564,-235.777 736.65,-230.05 740.047,-240.085 745.564,-235.777"/>
</g>
<!-- 139938592700904&#45;&gt;139938592701344 -->
<g id="edge42" class="edge"><title>139938592700904&#45;&gt;139938592701344</title>
<path fill="none" stroke="black" d="M703.88,-468.95C818.89,-453.21 1122.7,-404.47 1173.8,-322.96 1186.5,-302.72 1181.8,-291.74 1173.8,-269.22 1169.7,-257.52 1162.3,-246.41 1154.4,-236.92"/>
<polygon fill="black" stroke="black" points="1157.01,-234.587 1147.8,-229.35 1151.73,-239.188 1157.01,-234.587"/>
</g>
</g>
</svg>
