<?xml version="1.0" encoding="UTF-8" standalone="no"?>
<!DOCTYPE svg PUBLIC "-//W3C//DTD SVG 1.1//EN"
 "http://www.w3.org/Graphics/SVG/1.1/DTD/svg11.dtd">
<!-- Generated by graphviz version 2.38.0 (20140413.2041)
 -->
<!-- Title: %3 Pages: 1 -->
<svg width="2684pt" height="511pt"
 viewBox="0.00 0.00 2684.03 510.70" xmlns="http://www.w3.org/2000/svg" xmlns:xlink="http://www.w3.org/1999/xlink">
<g id="graph0" class="graph" transform="scale(1 1) rotate(0) translate(3.83 506.57)">
<title>%3</title>
<polygon fill="white" stroke="none" points="-3.83,4.13 -3.83,-506.57 2680.2,-506.57 2680.2,4.13 -3.83,4.13"/>
<!-- 139979462221184 -->
<g id="node1" class="node"><title>139979462221184</title>
<ellipse fill="none" stroke="black" cx="1337.7" cy="-26.87" rx="214.5" ry="27"/>
<text text-anchor="middle" x="1337.7" y="-30.67" font-family="Times,serif" font-size="14.00">sum </text>
<text text-anchor="middle" x="1337.7" y="-15.67" font-family="Times,serif" font-size="14.00"> (&lt;class &#39;inspect._empty&#39;&gt;, &lt;built&#45;in function sum&gt;)</text>
</g>
<!-- 139979462220032 -->
<g id="node2" class="node"><title>139979462220032</title>
<ellipse fill="none" stroke="black" cx="215.67" cy="-206.35" rx="215.5" ry="27"/>
<text text-anchor="middle" x="215.67" y="-210.15" font-family="Times,serif" font-size="14.00">mul </text>
<text text-anchor="middle" x="215.67" y="-195.15" font-family="Times,serif" font-size="14.00"> (&lt;class &#39;inspect._empty&#39;&gt;, &lt;class &#39;inspect._empty&#39;&gt;)</text>
</g>
<!-- 139979462221040 -->
<g id="node3" class="node"><title>139979462221040</title>
<ellipse fill="none" stroke="black" cx="1337.7" cy="-116.61" rx="616.5" ry="27"/>
<text text-anchor="middle" x="1337.7" y="-120.41" font-family="Times,serif" font-size="14.00">binder </text>
<text text-anchor="middle" x="1337.7" y="-105.41" font-family="Times,serif" font-size="14.00"> (&lt;class &#39;inspect._empty&#39;&gt;, &lt;class &#39;inspect._empty&#39;&gt;, &lt;class &#39;inspect._empty&#39;&gt;, &lt;class &#39;inspect._empty&#39;&gt;, &lt;class &#39;inspect._empty&#39;&gt;, &lt;class &#39;inspect._empty&#39;&gt;)</text>
</g>
<!-- 139979462220032&#45;&gt;139979462221040 -->
<g id="edge1" class="edge"><title>139979462220032&#45;&gt;139979462221040</title>
<path fill="none" stroke="black" d="M365.88,-187.03C390.52,-184.31 415.79,-181.68 439.67,-179.48 613.52,-163.46 806.67,-149.64 969.15,-139.15"/>
<polygon fill="black" stroke="black" points="969.558,-142.631 979.31,-138.49 969.104,-135.646 969.558,-142.631"/>
</g>
<!-- 139979462221040&#45;&gt;139979462221184 -->
<g id="edge2" class="edge"><title>139979462221040&#45;&gt;139979462221184</title>
<path fill="none" stroke="black" d="M1337.7,-89.285C1337.7,-81.319 1337.7,-72.428 1337.7,-63.939"/>
<polygon fill="black" stroke="black" points="1341.2,-63.874 1337.7,-53.874 1334.2,-63.874 1341.2,-63.874"/>
</g>
<!-- 139979462219600 -->
<g id="node4" class="node"><title>139979462219600</title>
<ellipse fill="none" stroke="black" cx="1113.7" cy="-206.35" rx="215.5" ry="27"/>
<text text-anchor="middle" x="1113.7" y="-210.15" font-family="Times,serif" font-size="14.00">mul </text>
<text text-anchor="middle" x="1113.7" y="-195.15" font-family="Times,serif" font-size="14.00"> (&lt;class &#39;inspect._empty&#39;&gt;, &lt;class &#39;inspect._empty&#39;&gt;)</text>
</g>
<!-- 139979462219600&#45;&gt;139979462221040 -->
<g id="edge3" class="edge"><title>139979462219600&#45;&gt;139979462221040</title>
<path fill="none" stroke="black" d="M1177,-180.56C1203.5,-170.18 1234.5,-158.03 1262.2,-147.19"/>
<polygon fill="black" stroke="black" points="1263.78,-150.33 1271.8,-143.41 1261.21,-143.817 1263.78,-150.33"/>
</g>
<!-- 139979462220680 -->
<g id="node5" class="node"><title>139979462220680</title>
<ellipse fill="none" stroke="black" cx="920.67" cy="-296.09" rx="126" ry="27"/>
<text text-anchor="middle" x="920.67" y="-299.89" font-family="Times,serif" font-size="14.00">add </text>
<text text-anchor="middle" x="920.67" y="-284.89" font-family="Times,serif" font-size="14.00"> (5, &lt;class &#39;inspect._empty&#39;&gt;)</text>
</g>
<!-- 139979462220896 -->
<g id="node6" class="node"><title>139979462220896</title>
<ellipse fill="none" stroke="black" cx="664.67" cy="-206.35" rx="215.5" ry="27"/>
<text text-anchor="middle" x="664.67" y="-210.15" font-family="Times,serif" font-size="14.00">mul </text>
<text text-anchor="middle" x="664.67" y="-195.15" font-family="Times,serif" font-size="14.00"> (&lt;class &#39;inspect._empty&#39;&gt;, &lt;class &#39;inspect._empty&#39;&gt;)</text>
</g>
<!-- 139979462220680&#45;&gt;139979462220896 -->
<g id="edge4" class="edge"><title>139979462220680&#45;&gt;139979462220896</title>
<path fill="none" stroke="black" d="M856.07,-272.95C822.63,-261.49 781.46,-247.38 745.88,-235.19"/>
<polygon fill="black" stroke="black" points="746.605,-231.738 736.01,-231.8 744.331,-238.359 746.605,-231.738"/>
</g>
<!-- 139979462220896&#45;&gt;139979462221040 -->
<g id="edge5" class="edge"><title>139979462220896&#45;&gt;139979462221040</title>
<path fill="none" stroke="black" d="M809.87,-186.42C905.98,-173.89 1033.3,-157.29 1138.8,-143.54"/>
<polygon fill="black" stroke="black" points="1139.44,-146.986 1148.9,-142.22 1138.53,-140.046 1139.44,-146.986"/>
</g>
<!-- 139979462218088 -->
<g id="node7" class="node"><title>139979462218088</title>
<ellipse fill="none" stroke="black" cx="1325.7" cy="-475.57" rx="35.5" ry="27"/>
<text text-anchor="middle" x="1325.7" y="-479.37" font-family="Times,serif" font-size="14.00">add </text>
<text text-anchor="middle" x="1325.7" y="-464.37" font-family="Times,serif" font-size="14.00"> (1, 1)</text>
</g>
<!-- 139979462218088&#45;&gt;139979462220032 -->
<g id="edge6" class="edge"><title>139979462218088&#45;&gt;139979462220032</title>
<path fill="none" stroke="black" d="M1289.9,-474.28C1153,-472.78 662.54,-463.89 516.67,-412.7 408.79,-374.84 303.22,-288.1 250.46,-240.36"/>
<polygon fill="black" stroke="black" points="252.502,-237.485 242.76,-233.32 247.779,-242.651 252.502,-237.485"/>
</g>
<!-- 139979462218088&#45;&gt;139979462219600 -->
<g id="edge7" class="edge"><title>139979462218088&#45;&gt;139979462219600</title>
<path fill="none" stroke="black" d="M1290.8,-470.22C1181.3,-455.8 848.38,-405.71 785.67,-322.96 771.24,-303.93 770.42,-287.61 785.67,-269.22 797.46,-255 878.92,-239.59 957.7,-227.71"/>
<polygon fill="black" stroke="black" points="958.418,-231.142 967.79,-226.2 957.382,-224.219 958.418,-231.142"/>
</g>
<!-- 139979462218088&#45;&gt;139979462220896 -->
<g id="edge8" class="edge"><title>139979462218088&#45;&gt;139979462220896</title>
<path fill="none" stroke="black" d="M1290.2,-474.2C1142.4,-471.8 579.48,-454.08 477.67,-322.96 463.02,-304.1 463.68,-288.58 477.67,-269.22 489.35,-253.05 505.42,-241.04 523.26,-232.13"/>
<polygon fill="black" stroke="black" points="525.144,-235.115 532.75,-227.74 522.205,-228.762 525.144,-235.115"/>
</g>
<!-- 139979462218736 -->
<g id="node8" class="node"><title>139979462218736</title>
<ellipse fill="none" stroke="black" cx="1562.7" cy="-206.35" rx="215.5" ry="27"/>
<text text-anchor="middle" x="1562.7" y="-210.15" font-family="Times,serif" font-size="14.00">mul </text>
<text text-anchor="middle" x="1562.7" y="-195.15" font-family="Times,serif" font-size="14.00"> (&lt;class &#39;inspect._empty&#39;&gt;, &lt;class &#39;inspect._empty&#39;&gt;)</text>
</g>
<!-- 139979462218088&#45;&gt;139979462218736 -->
<g id="edge9" class="edge"><title>139979462218088&#45;&gt;139979462218736</title>
<path fill="none" stroke="black" d="M1360.6,-470.22C1470,-455.8 1803,-405.71 1865.7,-322.96 1880.1,-303.93 1880.8,-287.72 1865.7,-269.22 1848.5,-248.13 1797.3,-234.04 1741.9,-224.72"/>
<polygon fill="black" stroke="black" points="1742.23,-221.228 1731.8,-223.09 1741.11,-228.139 1742.23,-221.228"/>
</g>
<!-- 139979462219168 -->
<g id="node9" class="node"><title>139979462219168</title>
<ellipse fill="none" stroke="black" cx="2460.7" cy="-206.35" rx="215.5" ry="27"/>
<text text-anchor="middle" x="2460.7" y="-210.15" font-family="Times,serif" font-size="14.00">mul </text>
<text text-anchor="middle" x="2460.7" y="-195.15" font-family="Times,serif" font-size="14.00"> (&lt;class &#39;inspect._empty&#39;&gt;, &lt;class &#39;inspect._empty&#39;&gt;)</text>
</g>
<!-- 139979462218088&#45;&gt;139979462219168 -->
<g id="edge10" class="edge"><title>139979462218088&#45;&gt;139979462219168</title>
<path fill="none" stroke="black" d="M1361.1,-473.51C1490.3,-469.36 1935.7,-452.42 2071.7,-412.7 2205.4,-373.63 2346.1,-285.95 2415.9,-238.79"/>
<polygon fill="black" stroke="black" points="2418.18,-241.473 2424.5,-232.97 2414.26,-235.676 2418.18,-241.473"/>
</g>
<!-- 139979462220464 -->
<g id="node10" class="node"><title>139979462220464</title>
<ellipse fill="none" stroke="black" cx="2011.7" cy="-206.35" rx="215.5" ry="27"/>
<text text-anchor="middle" x="2011.7" y="-210.15" font-family="Times,serif" font-size="14.00">mul </text>
<text text-anchor="middle" x="2011.7" y="-195.15" font-family="Times,serif" font-size="14.00"> (&lt;class &#39;inspect._empty&#39;&gt;, &lt;class &#39;inspect._empty&#39;&gt;)</text>
</g>
<!-- 139979462218088&#45;&gt;139979462220464 -->
<g id="edge11" class="edge"><title>139979462218088&#45;&gt;139979462220464</title>
<path fill="none" stroke="black" d="M1361.1,-474.1C1508.3,-471.31 2069.5,-452.23 2173.7,-322.96 2188.7,-304.36 2187.2,-288.89 2173.7,-269.22 2163.2,-254.05 2148.5,-242.6 2132.2,-233.95"/>
<polygon fill="black" stroke="black" points="2133.52,-230.698 2123,-229.43 2130.43,-236.981 2133.52,-230.698"/>
</g>
<!-- 139979462218304 -->
<g id="node11" class="node"><title>139979462218304</title>
<ellipse fill="none" stroke="black" cx="1325.7" cy="-385.83" rx="126" ry="27"/>
<text text-anchor="middle" x="1325.7" y="-389.63" font-family="Times,serif" font-size="14.00">sub </text>
<text text-anchor="middle" x="1325.7" y="-374.63" font-family="Times,serif" font-size="14.00"> (3, &lt;class &#39;inspect._empty&#39;&gt;)</text>
</g>
<!-- 139979462218088&#45;&gt;139979462218304 -->
<g id="edge12" class="edge"><title>139979462218088&#45;&gt;139979462218304</title>
<path fill="none" stroke="black" d="M1325.7,-448.25C1325.7,-440.28 1325.7,-431.39 1325.7,-422.9"/>
<polygon fill="black" stroke="black" points="1329.2,-422.83 1325.7,-412.83 1322.2,-422.83 1329.2,-422.83"/>
</g>
<!-- 139979462218736&#45;&gt;139979462221040 -->
<g id="edge13" class="edge"><title>139979462218736&#45;&gt;139979462221040</title>
<path fill="none" stroke="black" d="M1499.1,-180.56C1472.4,-170.13 1441,-157.92 1413.1,-147.04"/>
<polygon fill="black" stroke="black" points="1414.39,-143.786 1403.8,-143.41 1411.84,-150.307 1414.39,-143.786"/>
</g>
<!-- 139979462219168&#45;&gt;139979462221040 -->
<g id="edge14" class="edge"><title>139979462219168&#45;&gt;139979462221040</title>
<path fill="none" stroke="black" d="M2310.5,-187.03C2285.8,-184.31 2260.5,-181.68 2236.7,-179.48 2062.6,-163.45 1869.3,-149.63 1706.6,-139.14"/>
<polygon fill="black" stroke="black" points="1706.61,-135.633 1696.4,-138.48 1706.15,-142.618 1706.61,-135.633"/>
</g>
<!-- 139979462220464&#45;&gt;139979462221040 -->
<g id="edge15" class="edge"><title>139979462220464&#45;&gt;139979462221040</title>
<path fill="none" stroke="black" d="M1866.2,-186.42C1770,-173.89 1642.5,-157.29 1536.9,-143.54"/>
<polygon fill="black" stroke="black" points="1537.07,-140.032 1526.7,-142.22 1536.17,-146.975 1537.07,-140.032"/>
</g>
<!-- 139979462218304&#45;&gt;139979462220680 -->
<g id="edge16" class="edge"><title>139979462218304&#45;&gt;139979462220680</title>
<path fill="none" stroke="black" d="M1239.3,-366.12C1174,-351.96 1084.3,-332.54 1016.7,-317.9"/>
<polygon fill="black" stroke="black" points="1017.41,-314.474 1006.9,-315.78 1015.93,-321.315 1017.41,-314.474"/>
</g>
<!-- 139979462218520 -->
<g id="node12" class="node"><title>139979462218520</title>
<ellipse fill="none" stroke="black" cx="1460.7" cy="-296.09" rx="126" ry="27"/>
<text text-anchor="middle" x="1460.7" y="-299.89" font-family="Times,serif" font-size="14.00">add </text>
<text text-anchor="middle" x="1460.7" y="-284.89" font-family="Times,serif" font-size="14.00"> (0, &lt;class &#39;inspect._empty&#39;&gt;)</text>
</g>
<!-- 139979462218304&#45;&gt;139979462218520 -->
<g id="edge17" class="edge"><title>139979462218304&#45;&gt;139979462218520</title>
<path fill="none" stroke="black" d="M1363.6,-360.16C1379.3,-349.97 1397.6,-338.06 1414.1,-327.36"/>
<polygon fill="black" stroke="black" points="1416.04,-330.275 1422.5,-321.88 1412.21,-324.413 1416.04,-330.275"/>
</g>
<!-- 139979462219816 -->
<g id="node13" class="node"><title>139979462219816</title>
<ellipse fill="none" stroke="black" cx="612.67" cy="-296.09" rx="126" ry="27"/>
<text text-anchor="middle" x="612.67" y="-299.89" font-family="Times,serif" font-size="14.00">add </text>
<text text-anchor="middle" x="612.67" y="-284.89" font-family="Times,serif" font-size="14.00"> (3, &lt;class &#39;inspect._empty&#39;&gt;)</text>
</g>
<!-- 139979462218304&#45;&gt;139979462219816 -->
<g id="edge18" class="edge"><title>139979462218304&#45;&gt;139979462219816</title>
<path fill="none" stroke="black" d="M1214.4,-373.21C1105.1,-361.53 933.71,-342.5 785.67,-322.96 765.13,-320.25 743.26,-317.15 722.23,-314.05"/>
<polygon fill="black" stroke="black" points="722.703,-310.582 712.3,-312.59 721.684,-317.508 722.703,-310.582"/>
</g>
<!-- 139979462220248 -->
<g id="node14" class="node"><title>139979462220248</title>
<ellipse fill="none" stroke="black" cx="1730.7" cy="-296.09" rx="126" ry="27"/>
<text text-anchor="middle" x="1730.7" y="-299.89" font-family="Times,serif" font-size="14.00">add </text>
<text text-anchor="middle" x="1730.7" y="-284.89" font-family="Times,serif" font-size="14.00"> (4, &lt;class &#39;inspect._empty&#39;&gt;)</text>
</g>
<!-- 139979462218304&#45;&gt;139979462220248 -->
<g id="edge19" class="edge"><title>139979462218304&#45;&gt;139979462220248</title>
<path fill="none" stroke="black" d="M1412.1,-366.12C1477.4,-351.96 1567,-332.54 1634.6,-317.9"/>
<polygon fill="black" stroke="black" points="1635.37,-321.315 1644.4,-315.78 1633.89,-314.474 1635.37,-321.315"/>
</g>
<!-- 139979462218952 -->
<g id="node15" class="node"><title>139979462218952</title>
<ellipse fill="none" stroke="black" cx="2038.7" cy="-296.09" rx="126" ry="27"/>
<text text-anchor="middle" x="2038.7" y="-299.89" font-family="Times,serif" font-size="14.00">add </text>
<text text-anchor="middle" x="2038.7" y="-284.89" font-family="Times,serif" font-size="14.00"> (1, &lt;class &#39;inspect._empty&#39;&gt;)</text>
</g>
<!-- 139979462218304&#45;&gt;139979462218952 -->
<g id="edge20" class="edge"><title>139979462218304&#45;&gt;139979462218952</title>
<path fill="none" stroke="black" d="M1437,-373.21C1546.3,-361.53 1717.6,-342.5 1865.7,-322.96 1886.2,-320.25 1908.1,-317.15 1929.1,-314.05"/>
<polygon fill="black" stroke="black" points="1929.62,-317.512 1939,-312.59 1928.6,-310.587 1929.62,-317.512"/>
</g>
<!-- 139979462219384 -->
<g id="node16" class="node"><title>139979462219384</title>
<ellipse fill="none" stroke="black" cx="1190.7" cy="-296.09" rx="126" ry="27"/>
<text text-anchor="middle" x="1190.7" y="-299.89" font-family="Times,serif" font-size="14.00">add </text>
<text text-anchor="middle" x="1190.7" y="-284.89" font-family="Times,serif" font-size="14.00"> (2, &lt;class &#39;inspect._empty&#39;&gt;)</text>
</g>
<!-- 139979462218304&#45;&gt;139979462219384 -->
<g id="edge21" class="edge"><title>139979462218304&#45;&gt;139979462219384</title>
<path fill="none" stroke="black" d="M1287.7,-360.16C1272,-349.97 1253.7,-338.06 1237.2,-327.36"/>
<polygon fill="black" stroke="black" points="1239.09,-324.413 1228.8,-321.88 1235.26,-330.275 1239.09,-324.413"/>
</g>
<!-- 139979462218520&#45;&gt;139979462218736 -->
<g id="edge22" class="edge"><title>139979462218520&#45;&gt;139979462218736</title>
<path fill="none" stroke="black" d="M1489.9,-269.95C1500.8,-260.57 1513.3,-249.78 1524.9,-239.83"/>
<polygon fill="black" stroke="black" points="1527.41,-242.289 1532.7,-233.11 1522.84,-236.985 1527.41,-242.289"/>
</g>
<!-- 139979462219816&#45;&gt;139979462220032 -->
<g id="edge23" class="edge"><title>139979462219816&#45;&gt;139979462220032</title>
<path fill="none" stroke="black" d="M527.5,-276.27C469.33,-263.41 391.62,-246.24 328.33,-232.25"/>
<polygon fill="black" stroke="black" points="328.82,-228.774 318.3,-230.03 327.307,-235.608 328.82,-228.774"/>
</g>
<!-- 139979462220248&#45;&gt;139979462220464 -->
<g id="edge24" class="edge"><title>139979462220248&#45;&gt;139979462220464</title>
<path fill="none" stroke="black" d="M1799.8,-273.51C1837.4,-261.75 1884.5,-247.07 1924.6,-234.53"/>
<polygon fill="black" stroke="black" points="1925.9,-237.792 1934.4,-231.47 1923.81,-231.11 1925.9,-237.792"/>
</g>
<!-- 139979462218952&#45;&gt;139979462219168 -->
<g id="edge25" class="edge"><title>139979462218952&#45;&gt;139979462219168</title>
<path fill="none" stroke="black" d="M2126.6,-276.8C2189.5,-263.74 2274.7,-246.01 2343.4,-231.74"/>
<polygon fill="black" stroke="black" points="2344.32,-235.123 2353.4,-229.66 2342.9,-228.27 2344.32,-235.123"/>
</g>
<!-- 139979462219384&#45;&gt;139979462219600 -->
<g id="edge26" class="edge"><title>139979462219384&#45;&gt;139979462219600</title>
<path fill="none" stroke="black" d="M1168,-269.24C1160.2,-260.39 1151.4,-250.36 1143.2,-240.99"/>
<polygon fill="black" stroke="black" points="1145.71,-238.549 1136.5,-233.32 1140.44,-243.154 1145.71,-238.549"/>
</g>
</g>
</svg>
