<?xml version="1.0" encoding="UTF-8" standalone="no"?>
<!DOCTYPE svg PUBLIC "-//W3C//DTD SVG 1.1//EN"
 "http://www.w3.org/Graphics/SVG/1.1/DTD/svg11.dtd">
<!-- Generated by graphviz version 2.38.0 (20140413.2041)
 -->
<!-- Title: %3 Pages: 1 -->
<svg width="769pt" height="511pt"
 viewBox="0.00 0.00 769.10 510.70" xmlns="http://www.w3.org/2000/svg" xmlns:xlink="http://www.w3.org/1999/xlink">
<g id="graph0" class="graph" transform="scale(1 1) rotate(0) translate(16.679 506.57)">
<title>%3</title>
<polygon fill="white" stroke="none" points="-16.679,4.13 -16.679,-506.57 752.42,-506.57 752.42,4.13 -16.679,4.13"/>
<!-- 140041583242912 -->
<g id="node1" class="node"><title>140041583242912</title>
<ellipse fill="none" stroke="black" cx="313.89" cy="-296.09" rx="41" ry="27"/>
<text text-anchor="middle" x="313.89" y="-299.89" font-family="Times,serif" font-size="14.00">add </text>
<text text-anchor="middle" x="313.89" y="-284.89" font-family="Times,serif" font-size="14.00"> (3, —)</text>
</g>
<!-- 140041583243128 -->
<g id="node2" class="node"><title>140041583243128</title>
<ellipse fill="none" stroke="black" cx="308.89" cy="-206.35" rx="46" ry="27"/>
<text text-anchor="middle" x="308.89" y="-210.15" font-family="Times,serif" font-size="14.00">mul </text>
<text text-anchor="middle" x="308.89" y="-195.15" font-family="Times,serif" font-size="14.00"> (—, —)</text>
</g>
<!-- 140041583242912&#45;&gt;140041583243128 -->
<g id="edge1" class="edge"><title>140041583242912&#45;&gt;140041583243128</title>
<path fill="none" stroke="black" d="M312.39,-268.77C311.93,-260.8 311.43,-251.91 310.94,-243.42"/>
<polygon fill="black" stroke="black" points="314.43,-243.136 310.37,-233.35 307.441,-243.532 314.43,-243.136"/>
</g>
<!-- 140041583281064 -->
<g id="node3" class="node"><title>140041583281064</title>
<ellipse fill="none" stroke="black" cx="363.89" cy="-116.61" rx="107.5" ry="27"/>
<text text-anchor="middle" x="363.89" y="-120.41" font-family="Times,serif" font-size="14.00">binder </text>
<text text-anchor="middle" x="363.89" y="-105.41" font-family="Times,serif" font-size="14.00"> (—, —, —, —, —, —)</text>
</g>
<!-- 140041583243128&#45;&gt;140041583281064 -->
<g id="edge2" class="edge"><title>140041583243128&#45;&gt;140041583281064</title>
<path fill="none" stroke="black" d="M324.21,-180.91C329.8,-171.98 336.24,-161.71 342.29,-152.07"/>
<polygon fill="black" stroke="black" points="345.347,-153.783 347.69,-143.45 339.415,-150.066 345.347,-153.783"/>
</g>
<!-- 140041583281208 -->
<g id="node4" class="node"><title>140041583281208</title>
<ellipse fill="none" stroke="black" cx="363.89" cy="-26.87" rx="129.5" ry="27"/>
<text text-anchor="middle" x="363.89" y="-30.67" font-family="Times,serif" font-size="14.00">sum </text>
<text text-anchor="middle" x="363.89" y="-15.67" font-family="Times,serif" font-size="14.00"> (—, &lt;built&#45;in function sum&gt;)</text>
</g>
<!-- 140041583281064&#45;&gt;140041583281208 -->
<g id="edge3" class="edge"><title>140041583281064&#45;&gt;140041583281208</title>
<path fill="none" stroke="black" d="M363.89,-89.285C363.89,-81.319 363.89,-72.428 363.89,-63.939"/>
<polygon fill="black" stroke="black" points="367.39,-63.874 363.89,-53.874 360.39,-63.874 367.39,-63.874"/>
</g>
<!-- 140041583280704 -->
<g id="node5" class="node"><title>140041583280704</title>
<ellipse fill="none" stroke="black" cx="213.89" cy="-296.09" rx="41" ry="27"/>
<text text-anchor="middle" x="213.89" y="-299.89" font-family="Times,serif" font-size="14.00">add </text>
<text text-anchor="middle" x="213.89" y="-284.89" font-family="Times,serif" font-size="14.00"> (5, —)</text>
</g>
<!-- 140041583280920 -->
<g id="node6" class="node"><title>140041583280920</title>
<ellipse fill="none" stroke="black" cx="198.89" cy="-206.35" rx="46" ry="27"/>
<text text-anchor="middle" x="198.89" y="-210.15" font-family="Times,serif" font-size="14.00">mul </text>
<text text-anchor="middle" x="198.89" y="-195.15" font-family="Times,serif" font-size="14.00"> (—, —)</text>
</g>
<!-- 140041583280704&#45;&gt;140041583280920 -->
<g id="edge4" class="edge"><title>140041583280704&#45;&gt;140041583280920</title>
<path fill="none" stroke="black" d="M209.47,-269.24C208.08,-261.1 206.51,-251.96 205.02,-243.26"/>
<polygon fill="black" stroke="black" points="208.457,-242.592 203.33,-233.32 201.556,-243.765 208.457,-242.592"/>
</g>
<!-- 140041583280920&#45;&gt;140041583281064 -->
<g id="edge5" class="edge"><title>140041583280920&#45;&gt;140041583281064</title>
<path fill="none" stroke="black" d="M232.28,-187.59C254.77,-175.64 284.91,-159.6 310.68,-145.9"/>
<polygon fill="black" stroke="black" points="312.405,-148.947 319.59,-141.16 309.118,-142.767 312.405,-148.947"/>
</g>
<!-- 140041583241184 -->
<g id="node7" class="node"><title>140041583241184</title>
<ellipse fill="none" stroke="black" cx="363.89" cy="-475.57" rx="35.5" ry="27"/>
<text text-anchor="middle" x="363.89" y="-479.37" font-family="Times,serif" font-size="14.00">add </text>
<text text-anchor="middle" x="363.89" y="-464.37" font-family="Times,serif" font-size="14.00"> (1, 1)</text>
</g>
<!-- 140041583241184&#45;&gt;140041583243128 -->
<g id="edge6" class="edge"><title>140041583241184&#45;&gt;140041583243128</title>
<path fill="none" stroke="black" d="M333.03,-462.04C286.32,-441.16 199.36,-394.37 163.89,-322.96 153.26,-301.57 150.5,-289 163.89,-269.22 188.04,-233.55 214.38,-250.4 253.89,-233.22 257.48,-231.66 261.2,-230 264.92,-228.31"/>
<polygon fill="black" stroke="black" points="266.483,-231.444 274.11,-224.09 263.562,-225.082 266.483,-231.444"/>
</g>
<!-- 140041583241184&#45;&gt;140041583280920 -->
<g id="edge7" class="edge"><title>140041583241184&#45;&gt;140041583280920</title>
<path fill="none" stroke="black" d="M328.74,-471.6C255.84,-463.29 89.703,-432.6 25.886,-322.96 13.871,-302.32 12.004,-288.66 25.886,-269.22 54.561,-229.08 84.492,-249.99 130.89,-233.22 137.66,-230.77 144.8,-228.13 151.8,-225.5"/>
<polygon fill="black" stroke="black" points="153.088,-228.755 161.2,-221.94 150.609,-222.209 153.088,-228.755"/>
</g>
<!-- 140041583242696 -->
<g id="node8" class="node"><title>140041583242696</title>
<ellipse fill="none" stroke="black" cx="75.886" cy="-206.35" rx="46" ry="27"/>
<text text-anchor="middle" x="75.886" y="-210.15" font-family="Times,serif" font-size="14.00">mul </text>
<text text-anchor="middle" x="75.886" y="-195.15" font-family="Times,serif" font-size="14.00"> (—, —)</text>
</g>
<!-- 140041583241184&#45;&gt;140041583242696 -->
<g id="edge8" class="edge"><title>140041583241184&#45;&gt;140041583242696</title>
<path fill="none" stroke="black" d="M328.83,-471.69C256.58,-465.12 94.293,-446.87 51.886,-412.7 0.43139,-371.24 -12.679,-330.16 12.886,-269.22 18.517,-255.8 28.638,-243.82 39.144,-234.06"/>
<polygon fill="black" stroke="black" points="41.5809,-236.578 46.803,-227.36 36.972,-231.31 41.5809,-236.578"/>
</g>
<!-- 140041583241832 -->
<g id="node9" class="node"><title>140041583241832</title>
<ellipse fill="none" stroke="black" cx="418.89" cy="-206.35" rx="46" ry="27"/>
<text text-anchor="middle" x="418.89" y="-210.15" font-family="Times,serif" font-size="14.00">mul </text>
<text text-anchor="middle" x="418.89" y="-195.15" font-family="Times,serif" font-size="14.00"> (—, —)</text>
</g>
<!-- 140041583241184&#45;&gt;140041583241832 -->
<g id="edge9" class="edge"><title>140041583241184&#45;&gt;140041583241832</title>
<path fill="none" stroke="black" d="M394.75,-462.04C441.45,-441.16 528.41,-394.37 563.89,-322.96 574.51,-301.57 577.28,-289 563.89,-269.22 539.73,-233.55 513.4,-250.4 473.89,-233.22 470.29,-231.66 466.57,-230 462.85,-228.31"/>
<polygon fill="black" stroke="black" points="464.208,-225.082 453.66,-224.09 461.287,-231.444 464.208,-225.082"/>
</g>
<!-- 140041583280488 -->
<g id="node10" class="node"><title>140041583280488</title>
<ellipse fill="none" stroke="black" cx="528.89" cy="-206.35" rx="46" ry="27"/>
<text text-anchor="middle" x="528.89" y="-210.15" font-family="Times,serif" font-size="14.00">mul </text>
<text text-anchor="middle" x="528.89" y="-195.15" font-family="Times,serif" font-size="14.00"> (—, —)</text>
</g>
<!-- 140041583241184&#45;&gt;140041583280488 -->
<g id="edge10" class="edge"><title>140041583241184&#45;&gt;140041583280488</title>
<path fill="none" stroke="black" d="M398.94,-471.35C471.28,-462.57 635.83,-431.07 701.89,-322.96 714.34,-302.58 715.77,-288.66 701.89,-269.22 673.21,-229.08 643.28,-249.99 596.89,-233.22 590.11,-230.77 582.97,-228.13 575.98,-225.5"/>
<polygon fill="black" stroke="black" points="577.162,-222.205 566.57,-221.94 574.685,-228.752 577.162,-222.205"/>
</g>
<!-- 140041583242264 -->
<g id="node11" class="node"><title>140041583242264</title>
<ellipse fill="none" stroke="black" cx="651.89" cy="-206.35" rx="46" ry="27"/>
<text text-anchor="middle" x="651.89" y="-210.15" font-family="Times,serif" font-size="14.00">mul </text>
<text text-anchor="middle" x="651.89" y="-195.15" font-family="Times,serif" font-size="14.00"> (—, —)</text>
</g>
<!-- 140041583241184&#45;&gt;140041583242264 -->
<g id="edge11" class="edge"><title>140041583241184&#45;&gt;140041583242264</title>
<path fill="none" stroke="black" d="M399.64,-474.66C457.22,-473.2 572.08,-463.51 651.89,-412.7 711.41,-374.8 748.42,-333.76 719.89,-269.22 713.65,-255.11 702.42,-242.83 690.86,-233.01"/>
<polygon fill="black" stroke="black" points="692.866,-230.132 682.87,-226.62 688.494,-235.599 692.866,-230.132"/>
</g>
<!-- 140041583241400 -->
<g id="node12" class="node"><title>140041583241400</title>
<ellipse fill="none" stroke="black" cx="363.89" cy="-385.83" rx="41" ry="27"/>
<text text-anchor="middle" x="363.89" y="-389.63" font-family="Times,serif" font-size="14.00">sub </text>
<text text-anchor="middle" x="363.89" y="-374.63" font-family="Times,serif" font-size="14.00"> (3, —)</text>
</g>
<!-- 140041583241184&#45;&gt;140041583241400 -->
<g id="edge12" class="edge"><title>140041583241184&#45;&gt;140041583241400</title>
<path fill="none" stroke="black" d="M363.89,-448.25C363.89,-440.28 363.89,-431.39 363.89,-422.9"/>
<polygon fill="black" stroke="black" points="367.39,-422.83 363.89,-412.83 360.39,-422.83 367.39,-422.83"/>
</g>
<!-- 140041583242696&#45;&gt;140041583281064 -->
<g id="edge13" class="edge"><title>140041583242696&#45;&gt;140041583281064</title>
<path fill="none" stroke="black" d="M113.08,-190.51C123.03,-186.73 133.81,-182.81 143.89,-179.48 188.79,-164.66 239.58,-150.22 281.03,-139.03"/>
<polygon fill="black" stroke="black" points="282.062,-142.377 290.81,-136.4 280.244,-135.617 282.062,-142.377"/>
</g>
<!-- 140041583241832&#45;&gt;140041583281064 -->
<g id="edge14" class="edge"><title>140041583241832&#45;&gt;140041583281064</title>
<path fill="none" stroke="black" d="M403.57,-180.91C397.97,-171.98 391.53,-161.71 385.49,-152.07"/>
<polygon fill="black" stroke="black" points="388.36,-150.059 380.08,-143.45 382.431,-153.781 388.36,-150.059"/>
</g>
<!-- 140041583280488&#45;&gt;140041583281064 -->
<g id="edge15" class="edge"><title>140041583280488&#45;&gt;140041583281064</title>
<path fill="none" stroke="black" d="M495.5,-187.59C473.01,-175.64 442.86,-159.6 417.09,-145.9"/>
<polygon fill="black" stroke="black" points="418.652,-142.767 408.18,-141.16 415.365,-148.947 418.652,-142.767"/>
</g>
<!-- 140041583242264&#45;&gt;140041583281064 -->
<g id="edge16" class="edge"><title>140041583242264&#45;&gt;140041583281064</title>
<path fill="none" stroke="black" d="M614.69,-190.51C604.75,-186.73 593.96,-182.81 583.89,-179.48 538.98,-164.66 488.2,-150.22 446.74,-139.03"/>
<polygon fill="black" stroke="black" points="447.526,-135.617 436.96,-136.4 445.708,-142.377 447.526,-135.617"/>
</g>
<!-- 140041583241400&#45;&gt;140041583242912 -->
<g id="edge17" class="edge"><title>140041583241400&#45;&gt;140041583242912</title>
<path fill="none" stroke="black" d="M349.96,-360.39C344.65,-351.07 338.5,-340.29 332.81,-330.29"/>
<polygon fill="black" stroke="black" points="335.734,-328.353 327.74,-321.4 329.654,-331.821 335.734,-328.353"/>
</g>
<!-- 140041583241400&#45;&gt;140041583280704 -->
<g id="edge18" class="edge"><title>140041583241400&#45;&gt;140041583280704</title>
<path fill="none" stroke="black" d="M333.89,-367.29C310.49,-353.6 277.81,-334.48 252.46,-319.65"/>
<polygon fill="black" stroke="black" points="254.229,-316.63 243.83,-314.6 250.693,-322.671 254.229,-316.63"/>
</g>
<!-- 140041583280272 -->
<g id="node13" class="node"><title>140041583280272</title>
<ellipse fill="none" stroke="black" cx="513.89" cy="-296.09" rx="41" ry="27"/>
<text text-anchor="middle" x="513.89" y="-299.89" font-family="Times,serif" font-size="14.00">add </text>
<text text-anchor="middle" x="513.89" y="-284.89" font-family="Times,serif" font-size="14.00"> (4, —)</text>
</g>
<!-- 140041583241400&#45;&gt;140041583280272 -->
<g id="edge19" class="edge"><title>140041583241400&#45;&gt;140041583280272</title>
<path fill="none" stroke="black" d="M393.88,-367.29C417.28,-353.6 449.96,-334.48 475.31,-319.65"/>
<polygon fill="black" stroke="black" points="477.077,-322.671 483.94,-314.6 473.541,-316.63 477.077,-322.671"/>
</g>
<!-- 140041583242480 -->
<g id="node14" class="node"><title>140041583242480</title>
<ellipse fill="none" stroke="black" cx="75.886" cy="-296.09" rx="41" ry="27"/>
<text text-anchor="middle" x="75.886" y="-299.89" font-family="Times,serif" font-size="14.00">add </text>
<text text-anchor="middle" x="75.886" y="-284.89" font-family="Times,serif" font-size="14.00"> (2, —)</text>
</g>
<!-- 140041583241400&#45;&gt;140041583242480 -->
<g id="edge20" class="edge"><title>140041583241400&#45;&gt;140041583242480</title>
<path fill="none" stroke="black" d="M327.12,-373.63C275.05,-357.77 179.82,-328.75 122.74,-311.36"/>
<polygon fill="black" stroke="black" points="123.476,-307.925 112.89,-308.36 121.436,-314.622 123.476,-307.925"/>
</g>
<!-- 140041583241616 -->
<g id="node15" class="node"><title>140041583241616</title>
<ellipse fill="none" stroke="black" cx="413.89" cy="-296.09" rx="41" ry="27"/>
<text text-anchor="middle" x="413.89" y="-299.89" font-family="Times,serif" font-size="14.00">add </text>
<text text-anchor="middle" x="413.89" y="-284.89" font-family="Times,serif" font-size="14.00"> (0, —)</text>
</g>
<!-- 140041583241400&#45;&gt;140041583241616 -->
<g id="edge21" class="edge"><title>140041583241400&#45;&gt;140041583241616</title>
<path fill="none" stroke="black" d="M377.81,-360.39C383.12,-351.07 389.27,-340.29 394.96,-330.29"/>
<polygon fill="black" stroke="black" points="398.116,-331.821 400.03,-321.4 392.036,-328.353 398.116,-331.821"/>
</g>
<!-- 140041583242048 -->
<g id="node16" class="node"><title>140041583242048</title>
<ellipse fill="none" stroke="black" cx="651.89" cy="-296.09" rx="41" ry="27"/>
<text text-anchor="middle" x="651.89" y="-299.89" font-family="Times,serif" font-size="14.00">add </text>
<text text-anchor="middle" x="651.89" y="-284.89" font-family="Times,serif" font-size="14.00"> (1, —)</text>
</g>
<!-- 140041583241400&#45;&gt;140041583242048 -->
<g id="edge22" class="edge"><title>140041583241400&#45;&gt;140041583242048</title>
<path fill="none" stroke="black" d="M400.65,-373.63C452.73,-357.77 547.96,-328.75 605.03,-311.36"/>
<polygon fill="black" stroke="black" points="606.334,-314.622 614.88,-308.36 604.294,-307.925 606.334,-314.622"/>
</g>
<!-- 140041583280272&#45;&gt;140041583280488 -->
<g id="edge23" class="edge"><title>140041583280272&#45;&gt;140041583280488</title>
<path fill="none" stroke="black" d="M518.31,-269.24C519.7,-261.1 521.26,-251.96 522.75,-243.26"/>
<polygon fill="black" stroke="black" points="526.214,-243.767 524.45,-233.32 519.314,-242.587 526.214,-243.767"/>
</g>
<!-- 140041583242480&#45;&gt;140041583242696 -->
<g id="edge24" class="edge"><title>140041583242480&#45;&gt;140041583242696</title>
<path fill="none" stroke="black" d="M75.886,-268.77C75.886,-260.8 75.886,-251.91 75.886,-243.42"/>
<polygon fill="black" stroke="black" points="79.3861,-243.35 75.886,-233.35 72.3861,-243.35 79.3861,-243.35"/>
</g>
<!-- 140041583241616&#45;&gt;140041583241832 -->
<g id="edge25" class="edge"><title>140041583241616&#45;&gt;140041583241832</title>
<path fill="none" stroke="black" d="M415.39,-268.77C415.84,-260.8 416.35,-251.91 416.83,-243.42"/>
<polygon fill="black" stroke="black" points="420.329,-243.532 417.4,-233.35 413.34,-243.136 420.329,-243.532"/>
</g>
<!-- 140041583242048&#45;&gt;140041583242264 -->
<g id="edge26" class="edge"><title>140041583242048&#45;&gt;140041583242264</title>
<path fill="none" stroke="black" d="M651.89,-268.77C651.89,-260.8 651.89,-251.91 651.89,-243.42"/>
<polygon fill="black" stroke="black" points="655.39,-243.35 651.89,-233.35 648.39,-243.35 655.39,-243.35"/>
</g>
</g>
</svg>
