<?xml version="1.0" encoding="UTF-8" standalone="no"?>
<!DOCTYPE svg PUBLIC "-//W3C//DTD SVG 1.1//EN"
 "http://www.w3.org/Graphics/SVG/1.1/DTD/svg11.dtd">
<!-- Generated by graphviz version 2.38.0 (20140413.2041)
 -->
<!-- Title: %3 Pages: 1 -->
<svg width="210pt" height="241pt"
 viewBox="0.00 0.00 210.00 241.48" xmlns="http://www.w3.org/2000/svg" xmlns:xlink="http://www.w3.org/1999/xlink">
<g id="graph0" class="graph" transform="scale(1 1) rotate(0) translate(4.038 237.35)">
<title>%3</title>
<polygon fill="white" stroke="none" points="-4.038,4.13 -4.038,-237.35 205.96,-237.35 205.96,4.13 -4.038,4.13"/>
<!-- 140459337915208 -->
<g id="node1" class="node"><title>140459337915208</title>
<ellipse fill="none" stroke="black" cx="100.96" cy="-26.87" rx="46" ry="27"/>
<text text-anchor="middle" x="100.96" y="-30.67" font-family="Times,serif" font-size="14.00">add </text>
<text text-anchor="middle" x="100.96" y="-15.67" font-family="Times,serif" font-size="14.00"> (―, ―)</text>
</g>
<!-- 140459337915032 -->
<g id="node2" class="node"><title>140459337915032</title>
<ellipse fill="none" stroke="black" cx="45.962" cy="-116.61" rx="46" ry="27"/>
<text text-anchor="middle" x="45.962" y="-120.41" font-family="Times,serif" font-size="14.00">add </text>
<text text-anchor="middle" x="45.962" y="-105.41" font-family="Times,serif" font-size="14.00"> (41, ―)</text>
</g>
<!-- 140459337915032&#45;&gt;140459337915208 -->
<g id="edge1" class="edge"><title>140459337915032&#45;&gt;140459337915208</title>
<path fill="none" stroke="black" d="M61.283,-91.17C67.133,-81.836 73.906,-71.031 80.182,-61.02"/>
<polygon fill="black" stroke="black" points="83.187,-62.8159 85.533,-52.484 77.256,-59.0978 83.187,-62.8159"/>
</g>
<!-- 140459337915120 -->
<g id="node3" class="node"><title>140459337915120</title>
<ellipse fill="none" stroke="black" cx="155.96" cy="-116.61" rx="46" ry="27"/>
<text text-anchor="middle" x="155.96" y="-120.41" font-family="Times,serif" font-size="14.00">min </text>
<text text-anchor="middle" x="155.96" y="-105.41" font-family="Times,serif" font-size="14.00"> (―, 44)</text>
</g>
<!-- 140459337915120&#45;&gt;140459337915208 -->
<g id="edge2" class="edge"><title>140459337915120&#45;&gt;140459337915208</title>
<path fill="none" stroke="black" d="M140.64,-91.17C134.79,-81.836 128.02,-71.031 121.74,-61.02"/>
<polygon fill="black" stroke="black" points="124.666,-59.0985 116.39,-52.484 118.735,-62.8161 124.666,-59.0985"/>
</g>
<!-- 140459337914944 -->
<g id="node4" class="node"><title>140459337914944</title>
<ellipse fill="none" stroke="black" cx="100.96" cy="-206.35" rx="45.5" ry="27"/>
<text text-anchor="middle" x="100.96" y="-210.15" font-family="Times,serif" font-size="14.00">add </text>
<text text-anchor="middle" x="100.96" y="-195.15" font-family="Times,serif" font-size="14.00"> (42, 43)</text>
</g>
<!-- 140459337914944&#45;&gt;140459337915032 -->
<g id="edge3" class="edge"><title>140459337914944&#45;&gt;140459337915032</title>
<path fill="none" stroke="black" d="M85.641,-180.91C79.79,-171.58 73.018,-160.77 66.742,-150.76"/>
<polygon fill="black" stroke="black" points="69.6666,-148.836 61.391,-142.22 63.7348,-152.552 69.6666,-148.836"/>
</g>
<!-- 140459337914944&#45;&gt;140459337915120 -->
<g id="edge4" class="edge"><title>140459337914944&#45;&gt;140459337915120</title>
<path fill="none" stroke="black" d="M116.28,-180.91C122.13,-171.58 128.91,-160.77 135.18,-150.76"/>
<polygon fill="black" stroke="black" points="138.187,-152.553 140.53,-142.22 132.255,-148.836 138.187,-152.553"/>
</g>
</g>
</svg>
