<?xml version="1.0" encoding="UTF-8" standalone="no"?>
<!DOCTYPE svg PUBLIC "-//W3C//DTD SVG 1.1//EN"
 "http://www.w3.org/Graphics/SVG/1.1/DTD/svg11.dtd">
<!-- Generated by graphviz version 2.38.0 (20140413.2041)
 -->
<!-- Title: %3 Pages: 1 -->
<svg width="154pt" height="331pt"
 viewBox="0.00 0.00 154.00 331.22" xmlns="http://www.w3.org/2000/svg" xmlns:xlink="http://www.w3.org/1999/xlink">
<g id="graph0" class="graph" transform="scale(1 1) rotate(0) translate(4.168 327.09)">
<title>%3</title>
<polygon fill="white" stroke="none" points="-4.168,4.13 -4.168,-327.09 149.832,-327.09 149.832,4.13 -4.168,4.13"/>
<!-- 139702416496824 -->
<g id="node1" class="node"><title>139702416496824</title>
<ellipse fill="none" stroke="black" cx="72.832" cy="-26.87" rx="73" ry="27"/>
<text text-anchor="middle" x="72.832" y="-30.67" font-family="Times,serif" font-size="14.00">_setattr </text>
<text text-anchor="middle" x="72.832" y="-15.67" font-family="Times,serif" font-size="14.00"> (—, second, 7)</text>
</g>
<!-- 139702416496536 -->
<g id="node2" class="node"><title>139702416496536</title>
<ellipse fill="none" stroke="black" cx="72.832" cy="-116.61" rx="47.5" ry="27"/>
<text text-anchor="middle" x="72.832" y="-120.41" font-family="Times,serif" font-size="14.00">_do_call </text>
<text text-anchor="middle" x="72.832" y="-105.41" font-family="Times,serif" font-size="14.00"> (—, 10)</text>
</g>
<!-- 139702416496536&#45;&gt;139702416496824 -->
<g id="edge1" class="edge"><title>139702416496536&#45;&gt;139702416496824</title>
<path fill="none" stroke="black" d="M72.832,-89.285C72.832,-81.319 72.832,-72.428 72.832,-63.939"/>
<polygon fill="black" stroke="black" points="76.3321,-63.874 72.832,-53.874 69.3321,-63.874 76.3321,-63.874"/>
</g>
<!-- 139702416496248 -->
<g id="node3" class="node"><title>139702416496248</title>
<ellipse fill="none" stroke="black" cx="72.832" cy="-206.35" rx="69.5" ry="27"/>
<text text-anchor="middle" x="72.832" y="-210.15" font-family="Times,serif" font-size="14.00">_getattr </text>
<text text-anchor="middle" x="72.832" y="-195.15" font-family="Times,serif" font-size="14.00"> (—, multiply)</text>
</g>
<!-- 139702416496248&#45;&gt;139702416496536 -->
<g id="edge2" class="edge"><title>139702416496248&#45;&gt;139702416496536</title>
<path fill="none" stroke="black" d="M72.832,-179.03C72.832,-171.06 72.832,-162.17 72.832,-153.68"/>
<polygon fill="black" stroke="black" points="76.3321,-153.61 72.832,-143.61 69.3321,-153.61 76.3321,-153.61"/>
</g>
<!-- 139702416495960 -->
<g id="node4" class="node"><title>139702416495960</title>
<ellipse fill="none" stroke="black" cx="72.832" cy="-296.09" rx="27" ry="27"/>
<text text-anchor="middle" x="72.832" y="-299.89" font-family="Times,serif" font-size="14.00">A </text>
<text text-anchor="middle" x="72.832" y="-284.89" font-family="Times,serif" font-size="14.00"> (5)</text>
</g>
<!-- 139702416495960&#45;&gt;139702416496248 -->
<g id="edge3" class="edge"><title>139702416495960&#45;&gt;139702416496248</title>
<path fill="none" stroke="black" d="M72.832,-268.77C72.832,-260.8 72.832,-251.91 72.832,-243.42"/>
<polygon fill="black" stroke="black" points="76.3321,-243.35 72.832,-233.35 69.3321,-243.35 76.3321,-243.35"/>
</g>
</g>
</svg>
