<?xml version="1.0" encoding="UTF-8" standalone="no"?>
<!DOCTYPE svg PUBLIC "-//W3C//DTD SVG 1.1//EN"
 "http://www.w3.org/Graphics/SVG/1.1/DTD/svg11.dtd">
<!-- Generated by graphviz version 2.38.0 (20140413.2041)
 -->
<!-- Title: %3 Pages: 1 -->
<svg width="334pt" height="780pt"
 viewBox="0.00 0.00 334.00 779.92" xmlns="http://www.w3.org/2000/svg" xmlns:xlink="http://www.w3.org/1999/xlink">
<g id="graph0" class="graph" transform="scale(1 1) rotate(0) translate(4.067 775.79)">
<title>%3</title>
<polygon fill="white" stroke="none" points="-4.067,4.13 -4.067,-775.79 329.93,-775.79 329.93,4.13 -4.067,4.13"/>
<!-- 140295268461312 -->
<g id="node1" class="node"><title>140295268461312</title>
<ellipse fill="none" stroke="black" cx="208.93" cy="-26.87" rx="64.5" ry="27"/>
<text text-anchor="middle" x="208.93" y="-30.67" font-family="Times,serif" font-size="14.00">_setattr </text>
<text text-anchor="middle" x="208.93" y="-15.67" font-family="Times,serif" font-size="14.00"> (—, attr, —)</text>
</g>
<!-- 140295268874784 -->
<g id="node2" class="node"><title>140295268874784</title>
<ellipse fill="none" stroke="black" cx="151.93" cy="-206.35" rx="56.5" ry="27"/>
<text text-anchor="middle" x="151.93" y="-210.15" font-family="Times,serif" font-size="14.00">_setattr </text>
<text text-anchor="middle" x="151.93" y="-195.15" font-family="Times,serif" font-size="14.00"> (—, x, —)</text>
</g>
<!-- 140295268874840 -->
<g id="node3" class="node"><title>140295268874840</title>
<ellipse fill="none" stroke="black" cx="151.93" cy="-116.61" rx="78" ry="27"/>
<text text-anchor="middle" x="151.93" y="-120.41" font-family="Times,serif" font-size="14.00">_setattr </text>
<text text-anchor="middle" x="151.93" y="-105.41" font-family="Times,serif" font-size="14.00"> (—, second, —)</text>
</g>
<!-- 140295268874784&#45;&gt;140295268874840 -->
<g id="edge1" class="edge"><title>140295268874784&#45;&gt;140295268874840</title>
<path fill="none" stroke="black" d="M151.93,-179.03C151.93,-171.06 151.93,-162.17 151.93,-153.68"/>
<polygon fill="black" stroke="black" points="155.43,-153.61 151.93,-143.61 148.43,-153.61 155.43,-153.61"/>
</g>
<!-- 140295268874840&#45;&gt;140295268461312 -->
<g id="edge2" class="edge"><title>140295268874840&#45;&gt;140295268461312</title>
<path fill="none" stroke="black" d="M168.42,-90.232C174.26,-81.242 180.92,-70.984 187.14,-61.42"/>
<polygon fill="black" stroke="black" points="190.17,-63.1811 192.68,-52.888 184.299,-59.369 190.17,-63.1811"/>
</g>
<!-- 140295268874952 -->
<g id="node4" class="node"><title>140295268874952</title>
<ellipse fill="none" stroke="black" cx="62.933" cy="-385.83" rx="63" ry="27"/>
<text text-anchor="middle" x="62.933" y="-389.63" font-family="Times,serif" font-size="14.00">_getattr </text>
<text text-anchor="middle" x="62.933" y="-374.63" font-family="Times,serif" font-size="14.00"> (—, second)</text>
</g>
<!-- 140295268874952&#45;&gt;140295268874840 -->
<g id="edge3" class="edge"><title>140295268874952&#45;&gt;140295268874840</title>
<path fill="none" stroke="black" d="M60.325,-358.91C57.408,-318.32 56.436,-238.33 85.933,-179.48 91.819,-167.74 100.9,-157.06 110.47,-148.01"/>
<polygon fill="black" stroke="black" points="113.066,-150.384 118.19,-141.11 108.402,-145.164 113.066,-150.384"/>
</g>
<!-- 140295274632304 -->
<g id="node5" class="node"><title>140295274632304</title>
<ellipse fill="none" stroke="black" cx="135.93" cy="-744.79" rx="27" ry="27"/>
<text text-anchor="middle" x="135.93" y="-748.59" font-family="Times,serif" font-size="14.00">A </text>
<text text-anchor="middle" x="135.93" y="-733.59" font-family="Times,serif" font-size="14.00"> (5)</text>
</g>
<!-- 140295274632528 -->
<g id="node6" class="node"><title>140295274632528</title>
<ellipse fill="none" stroke="black" cx="135.93" cy="-655.05" rx="69.5" ry="27"/>
<text text-anchor="middle" x="135.93" y="-658.85" font-family="Times,serif" font-size="14.00">_getattr </text>
<text text-anchor="middle" x="135.93" y="-643.85" font-family="Times,serif" font-size="14.00"> (—, multiply)</text>
</g>
<!-- 140295274632304&#45;&gt;140295274632528 -->
<g id="edge4" class="edge"><title>140295274632304&#45;&gt;140295274632528</title>
<path fill="none" stroke="black" d="M135.93,-717.47C135.93,-709.5 135.93,-700.61 135.93,-692.12"/>
<polygon fill="black" stroke="black" points="139.43,-692.05 135.93,-682.05 132.43,-692.05 139.43,-692.05"/>
</g>
<!-- 140295274632696 -->
<g id="node7" class="node"><title>140295274632696</title>
<ellipse fill="none" stroke="black" cx="135.93" cy="-565.31" rx="47.5" ry="27"/>
<text text-anchor="middle" x="135.93" y="-569.11" font-family="Times,serif" font-size="14.00">_do_call </text>
<text text-anchor="middle" x="135.93" y="-554.11" font-family="Times,serif" font-size="14.00"> (—, 10)</text>
</g>
<!-- 140295274632528&#45;&gt;140295274632696 -->
<g id="edge5" class="edge"><title>140295274632528&#45;&gt;140295274632696</title>
<path fill="none" stroke="black" d="M135.93,-627.73C135.93,-619.76 135.93,-610.87 135.93,-602.38"/>
<polygon fill="black" stroke="black" points="139.43,-602.31 135.93,-592.31 132.43,-602.31 139.43,-602.31"/>
</g>
<!-- 140295268972080 -->
<g id="node8" class="node"><title>140295268972080</title>
<ellipse fill="none" stroke="black" cx="135.93" cy="-475.57" rx="73" ry="27"/>
<text text-anchor="middle" x="135.93" y="-479.37" font-family="Times,serif" font-size="14.00">_setattr </text>
<text text-anchor="middle" x="135.93" y="-464.37" font-family="Times,serif" font-size="14.00"> (—, second, 7)</text>
</g>
<!-- 140295274632696&#45;&gt;140295268972080 -->
<g id="edge6" class="edge"><title>140295274632696&#45;&gt;140295268972080</title>
<path fill="none" stroke="black" d="M135.93,-537.99C135.93,-530.02 135.93,-521.13 135.93,-512.64"/>
<polygon fill="black" stroke="black" points="139.43,-512.57 135.93,-502.57 132.43,-512.57 139.43,-512.57"/>
</g>
<!-- 140295268972080&#45;&gt;140295268874952 -->
<g id="edge9" class="edge"><title>140295268972080&#45;&gt;140295268874952</title>
<path fill="none" stroke="black" d="M115.21,-449.66C107.36,-440.23 98.304,-429.34 89.959,-419.31"/>
<polygon fill="black" stroke="black" points="92.5439,-416.945 83.455,-411.5 87.1648,-421.424 92.5439,-416.945"/>
</g>
<!-- 140295268972304 -->
<g id="node11" class="node"><title>140295268972304</title>
<ellipse fill="none" stroke="black" cx="209.93" cy="-385.83" rx="66.5" ry="27"/>
<text text-anchor="middle" x="209.93" y="-389.63" font-family="Times,serif" font-size="14.00">_setattr </text>
<text text-anchor="middle" x="209.93" y="-374.63" font-family="Times,serif" font-size="14.00"> (—, attr, 1.0)</text>
</g>
<!-- 140295268972080&#45;&gt;140295268972304 -->
<g id="edge10" class="edge"><title>140295268972080&#45;&gt;140295268972304</title>
<path fill="none" stroke="black" d="M156.94,-449.66C164.9,-440.23 174.08,-429.34 182.54,-419.31"/>
<polygon fill="black" stroke="black" points="185.356,-421.4 189.13,-411.5 180.006,-416.886 185.356,-421.4"/>
</g>
<!-- 140295268461256 -->
<g id="node9" class="node"><title>140295268461256</title>
<ellipse fill="none" stroke="black" cx="276.93" cy="-206.35" rx="49" ry="27"/>
<text text-anchor="middle" x="276.93" y="-210.15" font-family="Times,serif" font-size="14.00">_getattr </text>
<text text-anchor="middle" x="276.93" y="-195.15" font-family="Times,serif" font-size="14.00"> (—, attr)</text>
</g>
<!-- 140295268461256&#45;&gt;140295268461312 -->
<g id="edge7" class="edge"><title>140295268461256&#45;&gt;140295268461312</title>
<path fill="none" stroke="black" d="M269.59,-179.74C262.56,-156.08 251.22,-120.1 238.93,-89.74 235.32,-80.801 230.99,-71.343 226.77,-62.583"/>
<polygon fill="black" stroke="black" points="229.817,-60.8464 222.27,-53.41 223.532,-63.9294 229.817,-60.8464"/>
</g>
<!-- 140295268952888 -->
<g id="node10" class="node"><title>140295268952888</title>
<ellipse fill="none" stroke="black" cx="117.93" cy="-296.09" rx="27" ry="27"/>
<text text-anchor="middle" x="117.93" y="-299.89" font-family="Times,serif" font-size="14.00">B </text>
<text text-anchor="middle" x="117.93" y="-284.89" font-family="Times,serif" font-size="14.00"> ()</text>
</g>
<!-- 140295268952888&#45;&gt;140295268874784 -->
<g id="edge8" class="edge"><title>140295268952888&#45;&gt;140295268874784</title>
<path fill="none" stroke="black" d="M127.4,-270.65C130.79,-261.92 134.67,-251.9 138.33,-242.45"/>
<polygon fill="black" stroke="black" points="141.689,-243.469 142.04,-232.88 135.162,-240.939 141.689,-243.469"/>
</g>
<!-- 140295268972304&#45;&gt;140295268461256 -->
<g id="edge11" class="edge"><title>140295268972304&#45;&gt;140295268461256</title>
<path fill="none" stroke="black" d="M234.48,-360.7C243.93,-350.01 253.89,-336.75 259.93,-322.96 270.94,-297.82 275.06,-266.97 276.5,-243.46"/>
<polygon fill="black" stroke="black" points="280.008,-243.376 276.99,-233.22 273.016,-243.041 280.008,-243.376"/>
</g>
<!-- 140295268874392 -->
<g id="node12" class="node"><title>140295268874392</title>
<ellipse fill="none" stroke="black" cx="206.93" cy="-296.09" rx="44" ry="27"/>
<text text-anchor="middle" x="206.93" y="-299.89" font-family="Times,serif" font-size="14.00">_getattr </text>
<text text-anchor="middle" x="206.93" y="-284.89" font-family="Times,serif" font-size="14.00"> (—, x)</text>
</g>
<!-- 140295268972304&#45;&gt;140295268874392 -->
<g id="edge12" class="edge"><title>140295268972304&#45;&gt;140295268874392</title>
<path fill="none" stroke="black" d="M209.03,-358.51C208.76,-350.54 208.46,-341.65 208.17,-333.16"/>
<polygon fill="black" stroke="black" points="211.665,-332.962 207.82,-323.09 204.67,-333.206 211.665,-332.962"/>
</g>
<!-- 140295268874392&#45;&gt;140295268874784 -->
<g id="edge13" class="edge"><title>140295268874392&#45;&gt;140295268874784</title>
<path fill="none" stroke="black" d="M191.61,-270.65C185.81,-261.39 179.1,-250.69 172.87,-240.75"/>
<polygon fill="black" stroke="black" points="175.829,-238.881 167.55,-232.27 169.9,-242.601 175.829,-238.881"/>
</g>
</g>
</svg>
