<?xml version="1.0" encoding="UTF-8" standalone="no"?>
<!DOCTYPE svg PUBLIC "-//W3C//DTD SVG 1.1//EN"
 "http://www.w3.org/Graphics/SVG/1.1/DTD/svg11.dtd">
<!-- Generated by graphviz version 2.38.0 (20140413.2041)
 -->
<!-- Title: %3 Pages: 1 -->
<svg width="210pt" height="241pt"
 viewBox="0.00 0.00 210.00 241.48" xmlns="http://www.w3.org/2000/svg" xmlns:xlink="http://www.w3.org/1999/xlink">
<g id="graph0" class="graph" transform="scale(1 1) rotate(0) translate(4.038 237.35)">
<title>%3</title>
<polygon fill="white" stroke="none" points="-4.038,4.13 -4.038,-237.35 205.96,-237.35 205.96,4.13 -4.038,4.13"/>
<!-- 1 -->
<g id="node1" class="node"><title>1</title>
<ellipse fill="none" stroke="black" cx="100.96" cy="-26.87" rx="28.5" ry="27"/>
<text text-anchor="middle" x="100.96" y="-30.67" font-family="Times,serif" font-size="14.00">add </text>
<text text-anchor="middle" x="100.96" y="-15.67" font-family="Times,serif" font-size="14.00"> {}</text>
</g>
<!-- 2 -->
<g id="node2" class="node"><title>2</title>
<ellipse fill="none" stroke="black" cx="45.962" cy="-116.61" rx="46" ry="27"/>
<text text-anchor="middle" x="45.962" y="-120.41" font-family="Times,serif" font-size="14.00">add </text>
<text text-anchor="middle" x="45.962" y="-105.41" font-family="Times,serif" font-size="14.00"> {&#39;a&#39;: 41}</text>
</g>
<!-- 2&#45;&gt;1 -->
<g id="edge1" class="edge"><title>2&#45;&gt;1</title>
<path fill="none" stroke="black" d="M61.283,-91.17C67.54,-81.187 74.852,-69.522 81.483,-58.945"/>
<polygon fill="black" stroke="black" points="84.5086,-60.708 86.854,-50.376 78.5774,-56.9903 84.5086,-60.708"/>
</g>
<!-- 3 -->
<g id="node3" class="node"><title>3</title>
<ellipse fill="none" stroke="black" cx="100.96" cy="-206.35" rx="74" ry="27"/>
<text text-anchor="middle" x="100.96" y="-210.15" font-family="Times,serif" font-size="14.00">add </text>
<text text-anchor="middle" x="100.96" y="-195.15" font-family="Times,serif" font-size="14.00"> {&#39;b&#39;: 43, &#39;a&#39;: 42}</text>
</g>
<!-- 3&#45;&gt;2 -->
<g id="edge2" class="edge"><title>3&#45;&gt;2</title>
<path fill="none" stroke="black" d="M85.054,-179.97C79.321,-170.83 72.766,-160.37 66.683,-150.67"/>
<polygon fill="black" stroke="black" points="69.5438,-148.644 61.267,-142.03 63.6128,-152.362 69.5438,-148.644"/>
</g>
<!-- 4 -->
<g id="node4" class="node"><title>4</title>
<ellipse fill="none" stroke="black" cx="155.96" cy="-116.61" rx="46" ry="27"/>
<text text-anchor="middle" x="155.96" y="-120.41" font-family="Times,serif" font-size="14.00">min </text>
<text text-anchor="middle" x="155.96" y="-105.41" font-family="Times,serif" font-size="14.00"> {&#39;a&#39;: 44}</text>
</g>
<!-- 3&#45;&gt;4 -->
<g id="edge3" class="edge"><title>3&#45;&gt;4</title>
<path fill="none" stroke="black" d="M116.87,-179.97C122.6,-170.83 129.16,-160.37 135.24,-150.67"/>
<polygon fill="black" stroke="black" points="138.311,-152.361 140.66,-142.03 132.381,-148.641 138.311,-152.361"/>
</g>
<!-- 4&#45;&gt;1 -->
<g id="edge4" class="edge"><title>4&#45;&gt;1</title>
<path fill="none" stroke="black" d="M140.64,-91.17C134.38,-81.187 127.07,-69.522 120.44,-58.945"/>
<polygon fill="black" stroke="black" points="123.346,-56.991 115.07,-50.376 117.414,-60.7082 123.346,-56.991"/>
</g>
</g>
</svg>
