<?xml version="1.0" encoding="UTF-8" standalone="no"?>
<!-- Generator: Adobe Illustrator 16.0.0, SVG Export Plug-In . SVG Version: 6.00 Build 0)  -->

<svg
   xmlns:dc="http://purl.org/dc/elements/1.1/"
   xmlns:cc="http://creativecommons.org/ns#"
   xmlns:rdf="http://www.w3.org/1999/02/22-rdf-syntax-ns#"
   xmlns:svg="http://www.w3.org/2000/svg"
   xmlns="http://www.w3.org/2000/svg"
   xmlns:sodipodi="http://sodipodi.sourceforge.net/DTD/sodipodi-0.dtd"
   xmlns:inkscape="http://www.inkscape.org/namespaces/inkscape"
   version="1.1"
   id="Layer_1"
   x="0px"
   y="0px"
   width="169.00641"
   height="34.368839"
   viewBox="0 0 169.0064 34.368839"
   enable-background="new 0 0 1190.551 841.89"
   xml:space="preserve"
   sodipodi:docname="nlesc-logo.svg"
   inkscape:version="0.92.4 5da689c313, 2019-01-14"><metadata
   id="metadata33"><rdf:RDF><cc:Work
       rdf:about=""><dc:format>image/svg+xml</dc:format><dc:type
         rdf:resource="http://purl.org/dc/dcmitype/StillImage" /><dc:title></dc:title></cc:Work></rdf:RDF></metadata><defs
   id="defs31" /><sodipodi:namedview
   pagecolor="#ffffff"
   bordercolor="#666666"
   borderopacity="1"
   objecttolerance="10"
   gridtolerance="10"
   guidetolerance="10"
   inkscape:pageopacity="0"
   inkscape:pageshadow="2"
   inkscape:window-width="1920"
   inkscape:window-height="1057"
   id="namedview29"
   showgrid="false"
   fit-margin-top="0"
   fit-margin-left="0"
   fit-margin-right="0"
   fit-margin-bottom="0"
   inkscape:zoom="3.1714774"
   inkscape:cx="66.154508"
   inkscape:cy="-32.360837"
   inkscape:window-x="1920"
   inkscape:window-y="0"
   inkscape:window-maximized="0"
   inkscape:current-layer="Layer_1" />
<rect
   style="fill:#ffffff;fill-opacity:1;stroke:none;stroke-width:0.99999994;stroke-miterlimit:4;stroke-dasharray:none;stroke-dashoffset:0"
   id="rect824"
   width="169.00641"
   height="34.368839"
   x="0"
   y="0" /><g
   id="g14"
   transform="translate(-236.21534,-39.180196)">
	<path
   d="m 343.563,59.291 c -0.034,0.512 -0.132,1.011 -0.298,1.498 -0.165,0.487 -0.396,0.921 -0.693,1.301 -0.446,0.562 -1.045,1.04 -1.795,1.437 -0.752,0.396 -1.623,0.594 -2.613,0.594 -0.991,0 -1.875,-0.202 -2.65,-0.607 -0.776,-0.404 -1.387,-0.879 -1.833,-1.424 -0.479,-0.611 -0.833,-1.313 -1.064,-2.105 -0.231,-0.793 -0.347,-1.66 -0.347,-2.601 0,-0.941 0.116,-1.809 0.347,-2.601 0.231,-0.793 0.585,-1.495 1.064,-2.105 0.446,-0.544 1.057,-1.019 1.833,-1.424 0.776,-0.404 1.659,-0.607 2.65,-0.607 0.991,0 1.861,0.198 2.613,0.595 0.75,0.396 1.349,0.875 1.795,1.437 0.297,0.38 0.528,0.813 0.693,1.3 0.166,0.487 0.264,0.987 0.298,1.498 h -3.047 c -0.017,-0.231 -0.058,-0.446 -0.123,-0.644 -0.067,-0.198 -0.149,-0.379 -0.248,-0.544 -0.182,-0.281 -0.438,-0.512 -0.768,-0.693 -0.33,-0.181 -0.734,-0.273 -1.213,-0.273 -0.43,0 -0.797,0.075 -1.102,0.223 -0.306,0.148 -0.566,0.339 -0.78,0.57 -0.38,0.413 -0.619,0.908 -0.718,1.485 -0.1,0.579 -0.148,1.173 -0.148,1.784 0,0.611 0.049,1.201 0.148,1.771 0.099,0.569 0.338,1.061 0.718,1.473 0.214,0.231 0.474,0.425 0.78,0.582 0.305,0.157 0.672,0.235 1.102,0.235 0.479,0 0.883,-0.09 1.213,-0.273 0.33,-0.181 0.586,-0.412 0.768,-0.693 0.099,-0.166 0.181,-0.347 0.248,-0.545 0.065,-0.198 0.106,-0.413 0.123,-0.644 z"
   id="path2"
   inkscape:connector-curvature="0" />
	<path
   d="m 356.466,57.507 c -0.017,0.116 -0.025,0.223 -0.025,0.322 v 0.545 h -8.619 c 0,0.495 0.079,0.966 0.236,1.412 0.156,0.446 0.392,0.817 0.706,1.115 0.231,0.215 0.499,0.401 0.805,0.557 0.305,0.157 0.672,0.235 1.102,0.235 0.446,0 0.813,-0.045 1.102,-0.136 0.289,-0.091 0.548,-0.252 0.78,-0.483 0.297,-0.297 0.503,-0.66 0.619,-1.089 h 2.972 c -0.034,0.38 -0.161,0.796 -0.384,1.25 -0.223,0.454 -0.458,0.83 -0.706,1.126 -0.545,0.644 -1.197,1.107 -1.957,1.387 -0.76,0.281 -1.553,0.421 -2.377,0.421 -0.892,0 -1.664,-0.145 -2.316,-0.434 -0.653,-0.289 -1.234,-0.673 -1.746,-1.151 -0.644,-0.627 -1.135,-1.378 -1.474,-2.254 -0.338,-0.875 -0.508,-1.841 -0.508,-2.898 0,-1.04 0.153,-2.002 0.459,-2.885 0.305,-0.883 0.771,-1.639 1.399,-2.266 0.479,-0.496 1.061,-0.892 1.747,-1.189 0.685,-0.297 1.473,-0.446 2.365,-0.446 0.958,0 1.85,0.194 2.675,0.582 0.825,0.389 1.502,0.987 2.031,1.796 0.479,0.71 0.784,1.433 0.917,2.167 0.131,0.735 0.197,1.507 0.197,2.316 z M 353.37,56.12 c -0.016,-0.941 -0.281,-1.692 -0.792,-2.254 -0.215,-0.231 -0.483,-0.413 -0.805,-0.545 -0.322,-0.131 -0.706,-0.198 -1.152,-0.198 -0.479,0 -0.9,0.091 -1.263,0.273 -0.363,0.182 -0.66,0.421 -0.892,0.718 -0.231,0.281 -0.396,0.578 -0.495,0.892 -0.099,0.314 -0.157,0.685 -0.173,1.114 z"
   id="path4"
   inkscape:connector-curvature="0" />
	<path
   d="m 366.497,63.848 v -7.901 c 0,-0.759 -0.149,-1.354 -0.446,-1.783 -0.297,-0.429 -0.859,-0.644 -1.684,-0.644 -0.545,0 -1,0.153 -1.362,0.458 -0.363,0.306 -0.653,0.697 -0.867,1.176 -0.215,0.479 -0.339,1.036 -0.372,1.672 -0.033,0.636 -0.049,1.226 -0.049,1.771 v 5.251 h -3.096 v -12.88 h 2.601 l 0.223,1.659 c 0.379,-0.677 0.92,-1.176 1.623,-1.498 0.702,-0.322 1.424,-0.483 2.167,-0.483 0.693,0 1.309,0.116 1.845,0.347 0.536,0.231 0.991,0.549 1.362,0.953 0.372,0.405 0.656,0.892 0.854,1.461 0.198,0.57 0.297,1.185 0.297,1.845 v 8.595 h -3.096 z"
   id="path6"
   inkscape:connector-curvature="0" />
	<path
   d="m 379.797,63.674 c -0.892,0.231 -1.775,0.347 -2.65,0.347 -1.304,0 -2.279,-0.351 -2.922,-1.052 -0.644,-0.702 -0.965,-1.672 -0.965,-2.91 V 53.52 h -2.354 v -2.551 h 2.354 v -3.27 l 3.095,-0.768 v 4.037 h 3.245 v 2.551 h -3.245 v 6.266 c 0,0.495 0.116,0.854 0.347,1.078 0.231,0.223 0.594,0.334 1.09,0.334 0.33,0 0.639,-0.008 0.929,-0.025 0.289,-0.016 0.648,-0.049 1.077,-0.099 v 2.601 z"
   id="path8"
   inkscape:connector-curvature="0" />
	<path
   d="m 392.33,57.507 c -0.016,0.116 -0.024,0.223 -0.024,0.322 v 0.545 h -8.62 c 0,0.495 0.078,0.966 0.235,1.412 0.157,0.446 0.392,0.817 0.705,1.115 0.231,0.215 0.5,0.401 0.805,0.557 0.306,0.157 0.674,0.235 1.103,0.235 0.446,0 0.813,-0.045 1.103,-0.136 0.289,-0.091 0.549,-0.252 0.78,-0.483 0.296,-0.297 0.503,-0.66 0.619,-1.089 h 2.972 c -0.033,0.38 -0.161,0.796 -0.384,1.25 -0.222,0.454 -0.458,0.83 -0.706,1.126 -0.544,0.644 -1.197,1.107 -1.957,1.387 -0.76,0.281 -1.552,0.421 -2.377,0.421 -0.892,0 -1.665,-0.145 -2.316,-0.434 -0.653,-0.289 -1.234,-0.673 -1.747,-1.151 -0.644,-0.627 -1.135,-1.378 -1.474,-2.254 -0.338,-0.875 -0.508,-1.841 -0.508,-2.898 0,-1.04 0.153,-2.002 0.458,-2.885 0.305,-0.883 0.771,-1.639 1.4,-2.266 0.478,-0.496 1.061,-0.892 1.746,-1.189 0.685,-0.297 1.474,-0.446 2.366,-0.446 0.957,0 1.849,0.194 2.675,0.582 0.826,0.389 1.502,0.987 2.031,1.796 0.479,0.71 0.784,1.433 0.916,2.167 0.132,0.735 0.199,1.507 0.199,2.316 z m -3.096,-1.387 c -0.018,-0.941 -0.282,-1.692 -0.793,-2.254 -0.215,-0.231 -0.483,-0.413 -0.805,-0.545 -0.322,-0.131 -0.706,-0.198 -1.151,-0.198 -0.479,0 -0.901,0.091 -1.264,0.273 -0.363,0.182 -0.661,0.421 -0.891,0.718 -0.231,0.281 -0.396,0.578 -0.496,0.892 -0.1,0.314 -0.157,0.685 -0.174,1.114 z"
   id="path10"
   inkscape:connector-curvature="0" />
	<path
   d="m 401.989,53.841 c -0.38,-0.083 -0.735,-0.124 -1.064,-0.124 -1.09,0 -1.917,0.346 -2.478,1.04 -0.561,0.693 -0.841,1.561 -0.841,2.6 v 6.49 h -3.121 V 50.968 h 2.626 l 0.272,1.932 c 0.297,-0.743 0.788,-1.279 1.473,-1.61 0.686,-0.33 1.408,-0.495 2.168,-0.495 0.313,0 0.635,0.024 0.965,0.074 z"
   id="path12"
   inkscape:connector-curvature="0" />
</g>
<g
   id="g26"
   transform="translate(-236.21534,-39.180196)">
	<path
   d="m 242.388,53.906 c -0.215,-0.231 -0.483,-0.413 -0.805,-0.546 -0.19,-0.078 -0.407,-0.125 -0.638,-0.157 v 2.957 h 2.237 c -0.017,-0.941 -0.282,-1.692 -0.794,-2.254 z"
   id="path16"
   inkscape:connector-curvature="0"
   style="fill:#00aeef" />
	<path
   d="m 324.38,54.153 c -0.231,0.282 -0.396,0.579 -0.495,0.892 -0.099,0.314 -0.157,0.686 -0.173,1.115 h 2.273 v -2.95 c -0.257,0.045 -0.497,0.117 -0.713,0.225 -0.363,0.182 -0.661,0.421 -0.892,0.718 z"
   id="path18"
   inkscape:connector-curvature="0"
   style="fill:#00aeef" />
	<path
   d="m 288.315,53.36 c -0.321,-0.131 -0.705,-0.198 -1.152,-0.198 -0.479,0 -0.9,0.091 -1.264,0.273 -0.363,0.181 -0.661,0.42 -0.892,0.718 -0.231,0.282 -0.396,0.579 -0.496,0.892 -0.098,0.314 -0.156,0.686 -0.173,1.115 h 5.575 c -0.017,-0.941 -0.281,-1.692 -0.793,-2.254 -0.214,-0.231 -0.482,-0.413 -0.805,-0.546 z"
   id="path20"
   inkscape:connector-curvature="0"
   style="fill:#00aeef" />
	<path
   d="m 322.572,62.628 c -0.645,-0.627 -1.136,-1.378 -1.475,-2.255 -0.337,-0.875 -0.508,-1.842 -0.508,-2.899 0,-1.041 0.153,-2.002 0.459,-2.886 0.305,-0.884 0.772,-1.64 1.399,-2.268 0.479,-0.495 1.061,-0.892 1.748,-1.189 0.533,-0.232 1.131,-0.371 1.79,-0.422 V 42.52 h -85.04 v 8.19 c 0.773,0.056 1.503,0.237 2.187,0.557 0.827,0.389 1.503,0.988 2.032,1.797 0.479,0.71 0.784,1.433 0.917,2.168 0.132,0.735 0.198,1.508 0.198,2.316 -0.016,0.116 -0.024,0.224 -0.024,0.323 v 0.544 h -5.309 v 3.295 c 0.239,-0.021 0.459,-0.054 0.638,-0.11 0.289,-0.09 0.549,-0.251 0.78,-0.483 0.297,-0.297 0.504,-0.661 0.62,-1.089 h 2.973 c -0.033,0.379 -0.161,0.796 -0.384,1.25 -0.222,0.455 -0.458,0.831 -0.706,1.127 -0.545,0.645 -1.199,1.107 -1.958,1.388 -0.631,0.233 -1.286,0.364 -1.963,0.403 v 5.254 h 85.04 v -5.264 c -0.623,-0.055 -1.177,-0.19 -1.667,-0.406 -0.653,-0.289 -1.236,-0.673 -1.747,-1.152 z m -61.636,-1.834 c -0.273,0.595 -0.623,1.107 -1.054,1.537 -0.676,0.677 -1.499,1.16 -2.465,1.449 -0.967,0.289 -1.995,0.435 -3.085,0.435 -0.941,0 -1.87,-0.137 -2.788,-0.41 -0.917,-0.272 -1.738,-0.739 -2.465,-1.4 -0.528,-0.479 -0.966,-1.069 -1.313,-1.772 -0.347,-0.702 -0.521,-1.474 -0.521,-2.316 h 3.271 c 0,0.43 0.087,0.831 0.26,1.202 0.174,0.372 0.392,0.69 0.658,0.953 0.379,0.38 0.837,0.632 1.374,0.756 0.537,0.124 1.062,0.186 1.574,0.186 0.61,0 1.188,-0.071 1.735,-0.211 0.544,-0.14 0.982,-0.384 1.313,-0.731 0.198,-0.214 0.364,-0.441 0.496,-0.681 0.132,-0.239 0.197,-0.574 0.197,-1.003 0,-0.645 -0.21,-1.128 -0.632,-1.45 -0.421,-0.322 -0.904,-0.533 -1.449,-0.631 -0.595,-0.116 -1.248,-0.199 -1.958,-0.249 -0.71,-0.049 -1.354,-0.124 -1.933,-0.222 -0.611,-0.1 -1.185,-0.273 -1.721,-0.521 -0.538,-0.248 -1.008,-0.574 -1.414,-0.979 -0.404,-0.404 -0.727,-0.892 -0.966,-1.462 -0.239,-0.57 -0.359,-1.218 -0.359,-1.945 0,-0.694 0.14,-1.33 0.421,-1.908 0.28,-0.579 0.652,-1.099 1.115,-1.561 0.578,-0.579 1.321,-1.032 2.23,-1.364 0.908,-0.33 1.883,-0.495 2.924,-0.495 0.941,0 1.845,0.145 2.713,0.434 0.868,0.289 1.598,0.714 2.193,1.276 0.528,0.496 0.954,1.057 1.276,1.685 0.321,0.627 0.49,1.313 0.507,2.056 h -3.271 c -0.016,-0.313 -0.095,-0.624 -0.235,-0.929 -0.14,-0.306 -0.318,-0.574 -0.532,-0.806 -0.282,-0.297 -0.678,-0.528 -1.19,-0.693 -0.512,-0.165 -1.008,-0.249 -1.486,-0.249 -0.496,0 -1.004,0.066 -1.523,0.199 -0.521,0.132 -0.963,0.389 -1.327,0.768 -0.183,0.198 -0.327,0.413 -0.433,0.644 -0.107,0.232 -0.162,0.512 -0.162,0.842 0,0.579 0.166,1.021 0.496,1.326 0.331,0.306 0.76,0.5 1.289,0.582 0.562,0.083 1.193,0.157 1.896,0.223 0.702,0.067 1.342,0.141 1.92,0.224 0.661,0.099 1.284,0.276 1.87,0.532 0.586,0.256 1.099,0.595 1.537,1.016 0.438,0.421 0.784,0.929 1.041,1.524 0.257,0.595 0.384,1.264 0.384,2.007 0.001,0.828 -0.136,1.538 -0.408,2.132 z m 4.818,-1.598 c 0.099,0.57 0.339,1.062 0.719,1.475 0.214,0.231 0.476,0.425 0.78,0.583 0.305,0.157 0.673,0.235 1.103,0.235 0.479,0 0.884,-0.09 1.214,-0.272 0.331,-0.181 0.587,-0.414 0.769,-0.693 0.098,-0.166 0.181,-0.347 0.248,-0.546 0.065,-0.197 0.106,-0.413 0.123,-0.644 h 3.049 c -0.034,0.513 -0.133,1.013 -0.298,1.499 -0.165,0.488 -0.397,0.921 -0.693,1.301 -0.447,0.562 -1.046,1.041 -1.797,1.438 -0.752,0.396 -1.623,0.595 -2.614,0.595 -0.991,0 -1.875,-0.203 -2.651,-0.607 -0.776,-0.404 -1.388,-0.879 -1.834,-1.425 -0.48,-0.611 -0.834,-1.313 -1.065,-2.105 -0.231,-0.793 -0.347,-1.661 -0.347,-2.603 0,-0.942 0.115,-1.809 0.347,-2.601 0.231,-0.793 0.585,-1.495 1.065,-2.107 0.446,-0.545 1.058,-1.02 1.834,-1.424 0.776,-0.405 1.66,-0.607 2.651,-0.607 0.991,0 1.862,0.198 2.614,0.595 0.751,0.396 1.35,0.876 1.797,1.437 0.296,0.38 0.528,0.814 0.693,1.3 0.165,0.488 0.264,0.988 0.298,1.5 h -3.049 c -0.017,-0.231 -0.058,-0.446 -0.123,-0.645 -0.066,-0.198 -0.149,-0.379 -0.248,-0.544 -0.182,-0.281 -0.438,-0.512 -0.769,-0.695 -0.33,-0.181 -0.735,-0.272 -1.214,-0.272 -0.43,0 -0.798,0.075 -1.103,0.224 -0.305,0.148 -0.566,0.339 -0.78,0.569 -0.38,0.414 -0.62,0.909 -0.719,1.487 -0.098,0.579 -0.148,1.173 -0.148,1.784 0,0.608 0.05,1.198 0.148,1.768 z m 13.208,4.695 h -3.147 V 51.006 h 3.147 z m 0.074,-14.668 h -3.32 v -3.197 h 3.32 z m 13.95,8.648 v 0.544 h -8.623 c 0,0.496 0.079,0.967 0.235,1.413 0.157,0.447 0.393,0.818 0.707,1.115 0.231,0.215 0.499,0.4 0.805,0.557 0.305,0.158 0.673,0.235 1.103,0.235 0.446,0 0.813,-0.045 1.102,-0.136 0.289,-0.09 0.549,-0.251 0.782,-0.483 0.297,-0.297 0.503,-0.661 0.619,-1.089 h 2.974 c -0.034,0.379 -0.161,0.796 -0.384,1.25 -0.223,0.454 -0.459,0.831 -0.707,1.127 -0.545,0.645 -1.197,1.107 -1.958,1.388 -0.759,0.281 -1.553,0.422 -2.379,0.422 -0.892,0 -1.664,-0.146 -2.316,-0.435 -0.653,-0.289 -1.235,-0.673 -1.747,-1.152 -0.644,-0.627 -1.135,-1.378 -1.475,-2.255 -0.338,-0.875 -0.508,-1.842 -0.508,-2.899 0,-1.041 0.152,-2.002 0.458,-2.886 0.305,-0.884 0.772,-1.64 1.4,-2.268 0.479,-0.495 1.061,-0.892 1.748,-1.189 0.685,-0.298 1.473,-0.446 2.365,-0.446 0.958,0 1.851,0.194 2.677,0.582 0.825,0.389 1.502,0.988 2.031,1.797 0.479,0.71 0.785,1.433 0.917,2.168 0.132,0.735 0.198,1.508 0.198,2.316 -0.015,0.117 -0.024,0.224 -0.024,0.324 z m 13.158,6.02 h -3.098 v -7.903 c 0,-0.761 -0.148,-1.354 -0.446,-1.785 -0.298,-0.429 -0.859,-0.644 -1.684,-0.644 -0.546,0 -1,0.152 -1.364,0.457 -0.363,0.306 -0.653,0.699 -0.867,1.177 -0.215,0.48 -0.339,1.037 -0.372,1.673 -0.034,0.636 -0.049,1.227 -0.049,1.771 v 5.252 h -3.098 V 51.006 h 2.603 l 0.222,1.66 c 0.379,-0.677 0.92,-1.177 1.623,-1.499 0.702,-0.323 1.425,-0.483 2.168,-0.483 0.694,0 1.31,0.116 1.846,0.347 0.537,0.231 0.992,0.549 1.363,0.953 0.372,0.406 0.656,0.893 0.854,1.463 0.199,0.569 0.298,1.186 0.298,1.845 v 8.599 z m 5.327,-4.695 c 0.098,0.57 0.338,1.062 0.718,1.475 0.215,0.231 0.475,0.425 0.781,0.583 0.306,0.157 0.673,0.235 1.103,0.235 0.479,0 0.884,-0.09 1.214,-0.272 0.33,-0.181 0.585,-0.414 0.769,-0.693 0.099,-0.166 0.181,-0.347 0.248,-0.546 0.065,-0.197 0.106,-0.413 0.124,-0.644 h 3.048 c -0.034,0.513 -0.132,1.013 -0.298,1.499 -0.165,0.488 -0.396,0.921 -0.693,1.301 -0.447,0.562 -1.044,1.041 -1.796,1.438 -0.752,0.396 -1.623,0.595 -2.614,0.595 -0.992,0 -1.875,-0.203 -2.652,-0.607 -0.776,-0.404 -1.388,-0.879 -1.833,-1.425 -0.479,-0.611 -0.834,-1.313 -1.066,-2.105 -0.232,-0.793 -0.347,-1.661 -0.347,-2.603 0,-0.942 0.115,-1.809 0.347,-2.601 0.231,-0.793 0.586,-1.495 1.066,-2.107 0.445,-0.545 1.057,-1.02 1.833,-1.424 0.776,-0.405 1.66,-0.607 2.652,-0.607 0.991,0 1.862,0.198 2.614,0.595 0.752,0.396 1.35,0.876 1.796,1.437 0.297,0.38 0.528,0.814 0.693,1.3 0.167,0.488 0.265,0.988 0.298,1.5 h -3.048 c -0.017,-0.231 -0.058,-0.446 -0.124,-0.645 -0.067,-0.198 -0.148,-0.379 -0.248,-0.544 -0.183,-0.281 -0.439,-0.512 -0.769,-0.695 -0.331,-0.181 -0.735,-0.272 -1.214,-0.272 -0.43,0 -0.797,0.075 -1.103,0.224 -0.306,0.148 -0.565,0.339 -0.781,0.569 -0.379,0.414 -0.62,0.909 -0.718,1.487 -0.099,0.579 -0.149,1.173 -0.149,1.784 0,0.608 0.05,1.198 0.149,1.768 z"
   id="path22"
   inkscape:connector-curvature="0"
   style="fill:#00aeef" />
	<path
   d="m 323.972,59.828 c 0.156,0.447 0.392,0.818 0.706,1.115 0.231,0.215 0.499,0.4 0.805,0.557 0.151,0.078 0.319,0.137 0.502,0.176 v -3.261 h -2.249 c 0,0.496 0.079,0.967 0.236,1.413 z"
   id="path24"
   inkscape:connector-curvature="0"
   style="fill:#00aeef" />
</g>
</svg>